<svg width="13" height="13" viewBox="0 0 13 13" fill="none" xmlns="http://www.w3.org/2000/svg">
<path d="M4.56227 5.3656H2.15154C2.04498 5.3656 1.94279 5.32327 1.86744 5.24792C1.79209 5.17257 1.74976 5.07037 1.74976 4.96381V2.55309C1.74976 2.44653 1.79209 2.34433 1.86744 2.26898C1.94279 2.19363 2.04498 2.1513 2.15154 2.1513C2.2581 2.1513 2.3603 2.19363 2.43565 2.26898C2.511 2.34433 2.55333 2.44653 2.55333 2.55309V3.75092C3.33029 2.87452 4.69335 1.74951 6.57121 1.74951C8.72177 1.74951 10.0155 3.01866 10.0698 3.0724C10.1453 3.14766 10.1878 3.24983 10.188 3.35645C10.1882 3.46307 10.146 3.5654 10.0708 3.64093C9.99552 3.71645 9.89334 3.75899 9.78672 3.75918C9.6801 3.75936 9.57777 3.71719 9.50225 3.64193C9.48869 3.62837 8.37523 2.55309 6.57121 2.55309C4.81339 2.55309 3.54625 3.79109 2.92699 4.56202H4.56227C4.66883 4.56202 4.77103 4.60436 4.84637 4.67971C4.92172 4.75505 4.96406 4.85725 4.96406 4.96381C4.96406 5.07037 4.92172 5.17257 4.84637 5.24792C4.77103 5.32327 4.66883 5.3656 4.56227 5.3656ZM10.9909 7.77632H8.58014C8.47358 7.77632 8.37139 7.81866 8.29604 7.894C8.22069 7.96935 8.17836 8.07155 8.17836 8.17811C8.17836 8.28467 8.22069 8.38687 8.29604 8.46222C8.37139 8.53757 8.47358 8.5799 8.58014 8.5799H10.2154C9.59616 9.35083 8.32903 10.5888 6.57121 10.5888C4.76718 10.5888 3.65373 9.51355 3.64017 9.49999C3.56464 9.42474 3.46231 9.38256 3.35569 9.38275C3.24907 9.38294 3.1469 9.42547 3.07164 9.501C2.99638 9.57652 2.9542 9.67885 2.95439 9.78547C2.95458 9.89209 2.99712 9.99427 3.07264 10.0695C3.12688 10.1233 4.42064 11.3924 6.57121 11.3924C8.44906 11.3924 9.81212 10.2674 10.5891 9.39101V10.5888C10.5891 10.6954 10.6314 10.7976 10.7068 10.8729C10.7821 10.9483 10.8843 10.9906 10.9909 10.9906C11.0974 10.9906 11.1996 10.9483 11.275 10.8729C11.3503 10.7976 11.3927 10.6954 11.3927 10.5888V8.17811C11.3927 8.07155 11.3503 7.96935 11.275 7.894C11.1996 7.81866 11.0974 7.77632 10.9909 7.77632Z" fill="#818187"/>
</svg>
