<svg width="13" height="13" viewBox="0 0 13 13" fill="none" xmlns="http://www.w3.org/2000/svg">
<path d="M4.56251 5.3656H2.15179C2.04523 5.3656 1.94303 5.32327 1.86768 5.24792C1.79233 5.17257 1.75 5.07037 1.75 4.96381V2.55309C1.75 2.44653 1.79233 2.34433 1.86768 2.26898C1.94303 2.19363 2.04523 2.1513 2.15179 2.1513C2.25835 2.1513 2.36054 2.19363 2.43589 2.26898C2.51124 2.34433 2.55358 2.44653 2.55358 2.55309V3.75092C3.33053 2.87452 4.6936 1.74951 6.57145 1.74951C8.72202 1.74951 10.0158 3.01866 10.07 3.0724C10.1455 3.14766 10.1881 3.24983 10.1883 3.35645C10.1885 3.46307 10.1463 3.5654 10.071 3.64093C9.99576 3.71645 9.89358 3.75899 9.78696 3.75918C9.68034 3.75936 9.57802 3.71719 9.50249 3.64193C9.48893 3.62837 8.37548 2.55309 6.57145 2.55309C4.81363 2.55309 3.54649 3.79109 2.92724 4.56202H4.56251C4.66907 4.56202 4.77127 4.60436 4.84662 4.67971C4.92197 4.75505 4.9643 4.85725 4.9643 4.96381C4.9643 5.07037 4.92197 5.17257 4.84662 5.24792C4.77127 5.32327 4.66907 5.3656 4.56251 5.3656ZM10.9911 7.77632H8.58039C8.47383 7.77632 8.37163 7.81866 8.29628 7.894C8.22093 7.96935 8.1786 8.07155 8.1786 8.17811C8.1786 8.28467 8.22093 8.38687 8.29628 8.46222C8.37163 8.53757 8.47383 8.5799 8.58039 8.5799H10.2157C9.59641 9.35083 8.32927 10.5888 6.57145 10.5888C4.76742 10.5888 3.65397 9.51355 3.64041 9.49999C3.56489 9.42474 3.46256 9.38256 3.35594 9.38275C3.24932 9.38294 3.14714 9.42547 3.07188 9.501C2.99662 9.57652 2.95445 9.67885 2.95464 9.78547C2.95483 9.89209 2.99736 9.99427 3.07289 10.0695C3.12713 10.1233 4.42088 11.3924 6.57145 11.3924C8.4493 11.3924 9.81237 10.2674 10.5893 9.39101V10.5888C10.5893 10.6954 10.6317 10.7976 10.707 10.8729C10.7824 10.9483 10.8846 10.9906 10.9911 10.9906C11.0977 10.9906 11.1999 10.9483 11.2752 10.8729C11.3506 10.7976 11.3929 10.6954 11.3929 10.5888V8.17811C11.3929 8.07155 11.3506 7.96935 11.2752 7.894C11.1999 7.81866 11.0977 7.77632 10.9911 7.77632Z" fill="#818187"/>
</svg>
