<svg width="13" height="13" viewBox="0 0 13 13" fill="none" xmlns="http://www.w3.org/2000/svg">
<path d="M4.56227 5.36609H2.15154C2.04498 5.36609 1.94279 5.32376 1.86744 5.24841C1.79209 5.17306 1.74976 5.07086 1.74976 4.9643V2.55358C1.74976 2.44701 1.79209 2.34482 1.86744 2.26947C1.94279 2.19412 2.04498 2.15179 2.15154 2.15179C2.2581 2.15179 2.3603 2.19412 2.43565 2.26947C2.511 2.34482 2.55333 2.44701 2.55333 2.55358V3.7514C3.33029 2.875 4.69335 1.75 6.57121 1.75C8.72177 1.75 10.0155 3.01915 10.0698 3.07289C10.1453 3.14814 10.1878 3.25032 10.188 3.35694C10.1882 3.46356 10.146 3.56589 10.0708 3.64141C9.99552 3.71694 9.89334 3.75947 9.78672 3.75966C9.6801 3.75985 9.57777 3.71768 9.50225 3.64242C9.48869 3.62886 8.37523 2.55358 6.57121 2.55358C4.81339 2.55358 3.54625 3.79158 2.92699 4.56251H4.56227C4.66883 4.56251 4.77103 4.60484 4.84637 4.68019C4.92172 4.75554 4.96406 4.85774 4.96406 4.9643C4.96406 5.07086 4.92172 5.17306 4.84637 5.24841C4.77103 5.32376 4.66883 5.36609 4.56227 5.36609ZM10.9909 7.77681H8.58014C8.47358 7.77681 8.37139 7.81914 8.29604 7.89449C8.22069 7.96984 8.17836 8.07204 8.17836 8.1786C8.17836 8.28516 8.22069 8.38736 8.29604 8.46271C8.37139 8.53806 8.47358 8.58039 8.58014 8.58039H10.2154C9.59616 9.35132 8.32903 10.5893 6.57121 10.5893C4.76718 10.5893 3.65373 9.51404 3.64017 9.50048C3.56464 9.42522 3.46231 9.38305 3.35569 9.38324C3.24907 9.38343 3.1469 9.42596 3.07164 9.50149C2.99638 9.57701 2.9542 9.67934 2.95439 9.78596C2.95458 9.89258 2.99712 9.99476 3.07264 10.07C3.12688 10.1238 4.42064 11.3929 6.57121 11.3929C8.44906 11.3929 9.81212 10.2679 10.5891 9.3915V10.5893C10.5891 10.6959 10.6314 10.7981 10.7068 10.8734C10.7821 10.9488 10.8843 10.9911 10.9909 10.9911C11.0974 10.9911 11.1996 10.9488 11.275 10.8734C11.3503 10.7981 11.3927 10.6959 11.3927 10.5893V8.1786C11.3927 8.07204 11.3503 7.96984 11.275 7.89449C11.1996 7.81914 11.0974 7.77681 10.9909 7.77681Z" fill="#818187"/>
</svg>
