<svg width="14" height="13" viewBox="0 0 14 13" fill="none" xmlns="http://www.w3.org/2000/svg">
<g clip-path="url(#clip0_66_5036)">
<path d="M12.6963 5.62411H11.2554L9.08024 3.44893C9.00589 3.37399 8.91739 3.31457 8.81987 3.27413C8.72236 3.2337 8.61778 3.21305 8.51221 3.21338H2.86659C2.7346 3.21363 2.60471 3.24638 2.48838 3.30875C2.37205 3.37112 2.27288 3.46118 2.19963 3.57097L0.71 5.8029C0.666231 5.86905 0.642831 5.94658 0.6427 6.0259V8.43662C0.6427 8.64974 0.727362 8.85413 0.878062 9.00483C1.02876 9.15553 1.23315 9.2402 1.44628 9.2402H2.30007C2.38859 9.5859 2.58964 9.89231 2.87154 10.1111C3.15344 10.3299 3.50014 10.4487 3.857 10.4487C4.21386 10.4487 4.56056 10.3299 4.84246 10.1111C5.12436 9.89231 5.32541 9.5859 5.41393 9.2402H8.72867C8.81719 9.5859 9.01824 9.89231 9.30014 10.1111C9.58204 10.3299 9.92874 10.4487 10.2856 10.4487C10.6425 10.4487 10.9892 10.3299 11.2711 10.1111C11.553 9.89231 11.754 9.5859 11.8425 9.2402H12.6963C12.9094 9.2402 13.1138 9.15553 13.2645 9.00483C13.4152 8.85413 13.4999 8.64974 13.4999 8.43662V6.42768C13.4999 6.21456 13.4152 6.01017 13.2645 5.85947C13.1138 5.70877 12.9094 5.62411 12.6963 5.62411ZM2.86659 4.01696H8.51221L10.1194 5.62411H1.79784L2.86659 4.01696ZM3.857 9.64198C3.69807 9.64198 3.54271 9.59485 3.41056 9.50656C3.27841 9.41826 3.17541 9.29276 3.11459 9.14592C3.05377 8.99909 3.03786 8.83752 3.06887 8.68164C3.09987 8.52576 3.1764 8.38258 3.28879 8.2702C3.40117 8.15781 3.54435 8.08128 3.70023 8.05027C3.85611 8.01927 4.01768 8.03518 4.16451 8.096C4.31135 8.15682 4.43685 8.25982 4.52515 8.39197C4.61345 8.52411 4.66057 8.67948 4.66057 8.83841C4.66057 9.05153 4.57591 9.25592 4.42521 9.40662C4.27451 9.55732 4.07012 9.64198 3.857 9.64198ZM10.2856 9.64198C10.1267 9.64198 9.9713 9.59485 9.83916 9.50656C9.70701 9.41826 9.60401 9.29276 9.54319 9.14592C9.48237 8.99909 9.46646 8.83752 9.49747 8.68164C9.52847 8.52576 9.60501 8.38258 9.71739 8.2702C9.82977 8.15781 9.97295 8.08128 10.1288 8.05027C10.2847 8.01927 10.4463 8.03518 10.5931 8.096C10.7399 8.15682 10.8654 8.25982 10.9537 8.39197C11.042 8.52411 11.0892 8.67948 11.0892 8.83841C11.0892 9.05153 11.0045 9.25592 10.8538 9.40662C10.7031 9.55732 10.4987 9.64198 10.2856 9.64198ZM12.6963 8.43662H11.8425C11.754 8.09092 11.553 7.7845 11.2711 7.56569C10.9892 7.34688 10.6425 7.22811 10.2856 7.22811C9.92874 7.22811 9.58204 7.34688 9.30014 7.56569C9.01824 7.7845 8.81719 8.09092 8.72867 8.43662H5.41393C5.32541 8.09092 5.12436 7.7845 4.84246 7.56569C4.56056 7.34688 4.21386 7.22811 3.857 7.22811C3.50014 7.22811 3.15344 7.34688 2.87154 7.56569C2.58964 7.7845 2.38859 8.09092 2.30007 8.43662H1.44628V6.42768H12.6963V8.43662Z" fill="#FF0000"/>
</g>
<defs>
<clipPath id="clip0_66_5036">
<rect width="12.8572" height="12.8572" fill="white" transform="translate(0.6427 -0.000976562)"/>
</clipPath>
</defs>
</svg>
