<svg width="13" height="13" viewBox="0 0 13 13" fill="none" xmlns="http://www.w3.org/2000/svg">
<g clip-path="url(#clip0_63_4601)">
<path d="M12.1962 5.62362H10.7553L8.58012 3.44844C8.50577 3.3735 8.41726 3.31408 8.31975 3.27364C8.22223 3.23321 8.11765 3.21256 8.01209 3.21289H2.36647C2.23448 3.21314 2.10458 3.24589 1.98826 3.30826C1.87193 3.37063 1.77276 3.46069 1.6995 3.57049L0.209878 5.80241C0.166109 5.86856 0.142709 5.94609 0.142578 6.02541L0.142578 8.43613C0.142578 8.64925 0.22724 8.85365 0.37794 9.00435C0.528639 9.15505 0.733032 9.23971 0.946153 9.23971H1.79995C1.88847 9.58541 2.08952 9.89182 2.37142 10.1106C2.65332 10.3295 3.00002 10.4482 3.35688 10.4482C3.71373 10.4482 4.06044 10.3295 4.34234 10.1106C4.62424 9.89182 4.82529 9.58541 4.9138 9.23971H8.22855C8.31707 9.58541 8.51812 9.89182 8.80002 10.1106C9.08192 10.3295 9.42862 10.4482 9.78548 10.4482C10.1423 10.4482 10.489 10.3295 10.7709 10.1106C11.0528 9.89182 11.2539 9.58541 11.3424 9.23971H12.1962C12.4093 9.23971 12.6137 9.15505 12.7644 9.00435C12.9151 8.85365 12.9998 8.64925 12.9998 8.43613V6.42719C12.9998 6.21407 12.9151 6.00968 12.7644 5.85898C12.6137 5.70828 12.4093 5.62362 12.1962 5.62362ZM2.36647 4.01647H8.01209L9.61924 5.62362H1.29772L2.36647 4.01647ZM3.35688 9.64149C3.19795 9.64149 3.04258 9.59437 2.91044 9.50607C2.77829 9.41777 2.67529 9.29227 2.61447 9.14543C2.55365 8.9986 2.53774 8.83703 2.56874 8.68115C2.59975 8.52527 2.67628 8.38209 2.78866 8.26971C2.90105 8.15732 3.04423 8.08079 3.20011 8.04979C3.35599 8.01878 3.51756 8.03469 3.66439 8.09551C3.81123 8.15633 3.93673 8.25933 4.02503 8.39148C4.11332 8.52362 4.16045 8.67899 4.16045 8.83792C4.16045 9.05104 4.07579 9.25543 3.92509 9.40613C3.77439 9.55683 3.57 9.64149 3.35688 9.64149ZM9.78548 9.64149C9.62655 9.64149 9.47118 9.59437 9.33904 9.50607C9.20689 9.41777 9.10389 9.29227 9.04307 9.14543C8.98225 8.9986 8.96634 8.83703 8.99734 8.68115C9.02835 8.52527 9.10488 8.38209 9.21727 8.26971C9.32965 8.15732 9.47283 8.08079 9.62871 8.04979C9.78459 8.01878 9.94616 8.03469 10.093 8.09551C10.2398 8.15633 10.3653 8.25933 10.4536 8.39148C10.5419 8.52362 10.5891 8.67899 10.5891 8.83792C10.5891 9.05104 10.5044 9.25543 10.3537 9.40613C10.203 9.55683 9.9986 9.64149 9.78548 9.64149ZM12.1962 8.43613H11.3424C11.2539 8.09043 11.0528 7.78402 10.7709 7.5652C10.489 7.34639 10.1423 7.22762 9.78548 7.22762C9.42862 7.22762 9.08192 7.34639 8.80002 7.5652C8.51812 7.78402 8.31707 8.09043 8.22855 8.43613H4.9138C4.82529 8.09043 4.62424 7.78402 4.34234 7.5652C4.06044 7.34639 3.71373 7.22762 3.35688 7.22762C3.00002 7.22762 2.65332 7.34639 2.37142 7.5652C2.08952 7.78402 1.88847 8.09043 1.79995 8.43613H0.946153V6.42719H12.1962V8.43613Z" fill="#818187"/>
</g>
<defs>
<clipPath id="clip0_63_4601">
<rect width="12.8572" height="12.8572" fill="white" transform="translate(0.142578 -0.000976562)"/>
</clipPath>
</defs>
</svg>
