<svg width="13" height="13" viewBox="0 0 13 13" fill="none" xmlns="http://www.w3.org/2000/svg">
<g clip-path="url(#clip0_66_5268)">
<path d="M12.1962 5.62411H10.7553L8.58012 3.44893C8.50577 3.37399 8.41726 3.31457 8.31975 3.27413C8.22223 3.2337 8.11765 3.21305 8.01209 3.21338H2.36647C2.23448 3.21363 2.10458 3.24638 1.98826 3.30875C1.87193 3.37112 1.77276 3.46118 1.6995 3.57097L0.209878 5.8029C0.166109 5.86905 0.142709 5.94658 0.142578 6.0259L0.142578 8.43662C0.142578 8.64974 0.22724 8.85413 0.37794 9.00483C0.528639 9.15553 0.733032 9.2402 0.946153 9.2402H1.79995C1.88847 9.5859 2.08952 9.89231 2.37142 10.1111C2.65332 10.3299 3.00002 10.4487 3.35688 10.4487C3.71373 10.4487 4.06044 10.3299 4.34234 10.1111C4.62424 9.89231 4.82529 9.5859 4.9138 9.2402H8.22855C8.31707 9.5859 8.51812 9.89231 8.80002 10.1111C9.08192 10.3299 9.42862 10.4487 9.78548 10.4487C10.1423 10.4487 10.489 10.3299 10.7709 10.1111C11.0528 9.89231 11.2539 9.5859 11.3424 9.2402H12.1962C12.4093 9.2402 12.6137 9.15553 12.7644 9.00483C12.9151 8.85413 12.9998 8.64974 12.9998 8.43662V6.42768C12.9998 6.21456 12.9151 6.01017 12.7644 5.85947C12.6137 5.70877 12.4093 5.62411 12.1962 5.62411ZM2.36647 4.01696H8.01209L9.61924 5.62411H1.29772L2.36647 4.01696ZM3.35688 9.64198C3.19795 9.64198 3.04258 9.59485 2.91044 9.50656C2.77829 9.41826 2.67529 9.29276 2.61447 9.14592C2.55365 8.99909 2.53774 8.83752 2.56874 8.68164C2.59975 8.52576 2.67628 8.38258 2.78866 8.2702C2.90105 8.15781 3.04423 8.08128 3.20011 8.05027C3.35599 8.01927 3.51756 8.03518 3.66439 8.096C3.81123 8.15682 3.93673 8.25982 4.02503 8.39197C4.11332 8.52411 4.16045 8.67948 4.16045 8.83841C4.16045 9.05153 4.07579 9.25592 3.92509 9.40662C3.77439 9.55732 3.57 9.64198 3.35688 9.64198ZM9.78548 9.64198C9.62655 9.64198 9.47118 9.59485 9.33904 9.50656C9.20689 9.41826 9.10389 9.29276 9.04307 9.14592C8.98225 8.99909 8.96634 8.83752 8.99734 8.68164C9.02835 8.52576 9.10488 8.38258 9.21727 8.2702C9.32965 8.15781 9.47283 8.08128 9.62871 8.05027C9.78459 8.01927 9.94616 8.03518 10.093 8.096C10.2398 8.15682 10.3653 8.25982 10.4536 8.39197C10.5419 8.52411 10.5891 8.67948 10.5891 8.83841C10.5891 9.05153 10.5044 9.25592 10.3537 9.40662C10.203 9.55732 9.9986 9.64198 9.78548 9.64198ZM12.1962 8.43662H11.3424C11.2539 8.09092 11.0528 7.7845 10.7709 7.56569C10.489 7.34688 10.1423 7.22811 9.78548 7.22811C9.42862 7.22811 9.08192 7.34688 8.80002 7.56569C8.51812 7.7845 8.31707 8.09092 8.22855 8.43662H4.9138C4.82529 8.09092 4.62424 7.7845 4.34234 7.56569C4.06044 7.34688 3.71373 7.22811 3.35688 7.22811C3.00002 7.22811 2.65332 7.34688 2.37142 7.56569C2.08952 7.7845 1.88847 8.09092 1.79995 8.43662H0.946153V6.42768H12.1962V8.43662Z" fill="#818187"/>
</g>
<defs>
<clipPath id="clip0_66_5268">
<rect width="12.8572" height="12.8572" fill="white" transform="translate(0.142578 -0.000976562)"/>
</clipPath>
</defs>
</svg>
