<svg width="14" height="14" viewBox="0 0 14 14" fill="none" xmlns="http://www.w3.org/2000/svg">
<path d="M11.7829 4.29182L9.7538 2.26274C9.71609 2.22507 9.67132 2.1952 9.62206 2.17483C9.57279 2.15446 9.52 2.144 9.46669 2.14404H5.40853C5.19327 2.14404 4.98683 2.22955 4.83462 2.38176C4.68241 2.53398 4.5969 2.74042 4.5969 2.95567V3.76731H3.78526C3.57001 3.76731 3.36356 3.85282 3.21135 4.00503C3.05914 4.15724 2.97363 4.36368 2.97363 4.57894V11.8836C2.97363 12.0989 3.05914 12.3053 3.21135 12.4575C3.36356 12.6097 3.57001 12.6953 3.78526 12.6953H9.46669C9.68195 12.6953 9.88839 12.6097 10.0406 12.4575C10.1928 12.3053 10.2783 12.0989 10.2783 11.8836V11.072H11.09C11.3052 11.072 11.5117 10.9865 11.6639 10.8343C11.8161 10.6821 11.9016 10.4756 11.9016 10.2604V4.57894C11.9016 4.52563 11.8912 4.47284 11.8708 4.42357C11.8504 4.37431 11.8206 4.32954 11.7829 4.29182ZM7.84342 10.6662H5.40853C5.3009 10.6662 5.19768 10.6234 5.12157 10.5473C5.04547 10.4712 5.00271 10.368 5.00271 10.2604C5.00271 10.1527 5.04547 10.0495 5.12157 9.97341C5.19768 9.8973 5.3009 9.85455 5.40853 9.85455H7.84342C7.95105 9.85455 8.05427 9.8973 8.13038 9.97341C8.20649 10.0495 8.24924 10.1527 8.24924 10.2604C8.24924 10.368 8.20649 10.4712 8.13038 10.5473C8.05427 10.6234 7.95105 10.6662 7.84342 10.6662ZM7.84342 9.04291H5.40853C5.3009 9.04291 5.19768 9.00016 5.12157 8.92405C5.04547 8.84795 5.00271 8.74473 5.00271 8.6371C5.00271 8.52947 5.04547 8.42625 5.12157 8.35014C5.19768 8.27404 5.3009 8.23128 5.40853 8.23128H7.84342C7.95105 8.23128 8.05427 8.27404 8.13038 8.35014C8.20649 8.42625 8.24924 8.52947 8.24924 8.6371C8.24924 8.74473 8.20649 8.84795 8.13038 8.92405C8.05427 9.00016 7.95105 9.04291 7.84342 9.04291ZM11.09 10.2604H10.2783V6.2022C10.2784 6.14889 10.2679 6.0961 10.2475 6.04684C10.2272 5.99757 10.1973 5.9528 10.1596 5.91509L8.13054 3.88601C8.09282 3.84833 8.04806 3.81846 7.99879 3.79809C7.94953 3.77773 7.89673 3.76727 7.84342 3.76731H5.40853V2.95567H9.29878L11.09 4.74685V10.2604Z" fill="black"/>
</svg>
