<svg width="29" height="30" viewBox="0 0 29 30" fill="none" xmlns="http://www.w3.org/2000/svg">
<g clip-path="url(#clip0_344_9751)">
<path d="M16.0364 10.9354C16.4624 9.17941 18.9604 9.17941 19.3864 10.9354C19.516 11.4705 19.8934 11.9114 20.402 12.1222C20.9107 12.3329 21.4893 12.288 21.9594 12.0014C23.5024 11.0614 25.2694 12.8274 24.3294 14.3714C24.0432 14.8413 23.9984 15.4195 24.2089 15.9278C24.4194 16.4361 24.8598 16.8134 25.3944 16.9434C27.1504 17.3694 27.1504 19.8674 25.3944 20.2934C24.8593 20.4231 24.4184 20.8004 24.2076 21.3091C23.9969 21.8177 24.0418 22.3963 24.3284 22.8664C25.2684 24.4094 23.5024 26.1764 21.9584 25.2364C21.4885 24.9502 20.9103 24.9055 20.402 25.1159C19.8937 25.3264 19.5164 25.7668 19.3864 26.3014C18.9604 28.0574 16.4624 28.0574 16.0364 26.3014C15.9068 25.7663 15.5294 25.3254 15.0207 25.1147C14.5121 24.9039 13.9335 24.9488 13.4634 25.2354C11.9204 26.1754 10.1534 24.4094 11.0934 22.8654C11.3796 22.3956 11.4243 21.8173 11.2139 21.309C11.0034 20.8007 10.563 20.4234 10.0284 20.2934C8.2724 19.8674 8.2724 17.3694 10.0284 16.9434C10.5635 16.8138 11.0044 16.4364 11.2151 15.9278C11.4259 15.4191 11.381 14.8405 11.0944 14.3704C10.1544 12.8274 11.9204 11.0604 13.4644 12.0004C14.4604 12.6084 15.7604 12.0704 16.0364 10.9354" stroke="#6B7280" stroke-width="1.42617" stroke-linecap="round" stroke-linejoin="round"/>
<path d="M20.7114 18.6184C20.7114 20.2742 19.3671 21.6184 17.7114 21.6184C16.0557 21.6184 14.7114 20.2742 14.7114 18.6184C14.7114 16.9627 16.0557 15.6184 17.7114 15.6184C19.3671 15.6184 20.7114 16.9627 20.7114 18.6184" stroke="#6B7280" stroke-width="1.42617" stroke-linecap="round" stroke-linejoin="round"/>
</g>
<defs>
<clipPath id="clip0_344_9751">
<rect width="17.1141" height="17.1141" fill="white" transform="translate(5.7114 6.61841)"/>
</clipPath>
</defs>
</svg>
