<svg width="29" height="30" viewBox="0 0 29 30" fill="none" xmlns="http://www.w3.org/2000/svg">
<g clip-path="url(#clip0_346_11806)">
<path d="M16.4681 10.5314C16.8941 8.77536 19.3921 8.77536 19.8181 10.5314C19.9477 11.0664 20.3251 11.5074 20.8337 11.7181C21.3423 11.9288 21.921 11.884 22.3911 11.5974C23.9341 10.6574 25.7011 12.4234 24.7611 13.9674C24.4749 14.4372 24.4301 15.0154 24.6406 15.5237C24.8511 16.032 25.2915 16.4094 25.8261 16.5394C27.5821 16.9654 27.5821 19.4634 25.8261 19.8894C25.291 20.019 24.85 20.3964 24.6393 20.905C24.4286 21.4136 24.4735 21.9923 24.7601 22.4624C25.7001 24.0054 23.9341 25.7724 22.3901 24.8324C21.9202 24.5462 21.342 24.5014 20.8337 24.7119C20.3254 24.9224 19.9481 25.3628 19.8181 25.8974C19.3921 27.6534 16.8941 27.6534 16.4681 25.8974C16.3384 25.3623 15.961 24.9213 15.4524 24.7106C14.9438 24.4999 14.3651 24.5448 13.8951 24.8314C12.3521 25.7714 10.5851 24.0054 11.5251 22.4614C11.8113 21.9915 11.856 21.4133 11.6455 20.905C11.4351 20.3967 10.9946 20.0194 10.4601 19.8894C8.70407 19.4634 8.70407 16.9654 10.4601 16.5394C10.9951 16.4097 11.4361 16.0323 11.6468 15.5237C11.8575 15.0151 11.8127 14.4364 11.5261 13.9664C10.5861 12.4234 12.3521 10.6564 13.8961 11.5964C14.8921 12.2044 16.1921 11.6664 16.4681 10.5314" stroke="#6B7280" stroke-width="1.42857" stroke-linecap="round" stroke-linejoin="round"/>
<path d="M21.1431 18.2144C21.1431 19.8701 19.7988 21.2144 18.1431 21.2144C16.4873 21.2144 15.1431 19.8701 15.1431 18.2144C15.1431 16.5586 16.4873 15.2144 18.1431 15.2144C19.7988 15.2144 21.1431 16.5586 21.1431 18.2144" stroke="#6B7280" stroke-width="1.42857" stroke-linecap="round" stroke-linejoin="round"/>
</g>
<defs>
<clipPath id="clip0_346_11806">
<rect width="17.1429" height="17.1429" fill="white" transform="translate(6.14307 6.21436)"/>
</clipPath>
</defs>
</svg>
