<svg width="29" height="30" viewBox="0 0 29 30" fill="none" xmlns="http://www.w3.org/2000/svg">
<g clip-path="url(#clip0_63_4101)">
<path d="M16.4679 10.5314C16.8939 8.77536 19.3919 8.77536 19.8179 10.5314C19.9475 11.0664 20.3249 11.5074 20.8335 11.7181C21.3422 11.9288 21.9208 11.884 22.3909 11.5974C23.9339 10.6574 25.7009 12.4234 24.7609 13.9674C24.4747 14.4372 24.4299 15.0154 24.6404 15.5237C24.8509 16.032 25.2913 16.4094 25.8259 16.5394C27.5819 16.9654 27.5819 19.4634 25.8259 19.8894C25.2908 20.019 24.8499 20.3964 24.6391 20.905C24.4284 21.4136 24.4733 21.9923 24.7599 22.4624C25.6999 24.0054 23.9339 25.7724 22.3899 24.8324C21.92 24.5462 21.3418 24.5014 20.8335 24.7119C20.3252 24.9224 19.9479 25.3628 19.8179 25.8974C19.3919 27.6534 16.8939 27.6534 16.4679 25.8974C16.3382 25.3623 15.9608 24.9213 15.4522 24.7106C14.9436 24.4999 14.3649 24.5448 13.8949 24.8314C12.3519 25.7714 10.5849 24.0054 11.5249 22.4614C11.8111 21.9915 11.8558 21.4133 11.6454 20.905C11.4349 20.3967 10.9945 20.0194 10.4599 19.8894C8.70388 19.4634 8.70388 16.9654 10.4599 16.5394C10.9949 16.4097 11.4359 16.0323 11.6466 15.5237C11.8574 15.0151 11.8125 14.4364 11.5259 13.9664C10.5859 12.4234 12.3519 10.6564 13.8959 11.5964C14.8919 12.2044 16.1919 11.6664 16.4679 10.5314" stroke="#6B7280" stroke-width="1.42857" stroke-linecap="round" stroke-linejoin="round"/>
<path d="M21.1429 18.2144C21.1429 19.8701 19.7986 21.2144 18.1429 21.2144C16.4871 21.2144 15.1429 19.8701 15.1429 18.2144C15.1429 16.5586 16.4871 15.2144 18.1429 15.2144C19.7986 15.2144 21.1429 16.5586 21.1429 18.2144" stroke="#6B7280" stroke-width="1.42857" stroke-linecap="round" stroke-linejoin="round"/>
</g>
<defs>
<clipPath id="clip0_63_4101">
<rect width="17.1429" height="17.1429" fill="white" transform="translate(6.14288 6.21436)"/>
</clipPath>
</defs>
</svg>
