<svg width="14" height="14" viewBox="0 0 14 14" fill="none" xmlns="http://www.w3.org/2000/svg">
<g clip-path="url(#clip0_66_5237)">
<path d="M6.53539 5.53476H8.67826C8.82034 5.53476 8.9566 5.47832 9.05707 5.37785C9.15753 5.27738 9.21397 5.14112 9.21397 4.99904C9.21397 4.85696 9.15753 4.7207 9.05707 4.62023C8.9566 4.51977 8.82034 4.46332 8.67826 4.46332H7.60682V3.92761C7.60682 3.78553 7.55038 3.64926 7.44992 3.5488C7.34945 3.44833 7.21319 3.39189 7.07111 3.39189C6.92903 3.39189 6.79277 3.44833 6.6923 3.5488C6.59183 3.64926 6.53539 3.78553 6.53539 3.92761V4.46332C6.10915 4.46332 5.70036 4.63265 5.39896 4.93405C5.09757 5.23545 4.92824 5.64423 4.92824 6.07047C4.92824 6.49672 5.09757 6.9055 5.39896 7.2069C5.70036 7.5083 6.10915 7.67762 6.53539 7.67762H7.60682C7.74891 7.67762 7.88517 7.73407 7.98563 7.83453C8.0861 7.935 8.14254 8.07126 8.14254 8.21334C8.14254 8.35542 8.0861 8.49168 7.98563 8.59215C7.88517 8.69262 7.74891 8.74906 7.60682 8.74906H5.46396C5.32188 8.74906 5.18562 8.8055 5.08515 8.90597C4.98468 9.00643 4.92824 9.14269 4.92824 9.28477C4.92824 9.42686 4.98468 9.56312 5.08515 9.66358C5.18562 9.76405 5.32188 9.82049 5.46396 9.82049H6.53539V10.3562C6.53539 10.4983 6.59183 10.6346 6.6923 10.735C6.79277 10.8355 6.92903 10.8919 7.07111 10.8919C7.21319 10.8919 7.34945 10.8355 7.44992 10.735C7.55038 10.6346 7.60682 10.4983 7.60682 10.3562V9.82049C8.03307 9.82049 8.44185 9.65117 8.74325 9.34977C9.04465 9.04837 9.21397 8.63958 9.21397 8.21334C9.21397 7.7871 9.04465 7.37831 8.74325 7.07691C8.44185 6.77551 8.03307 6.60619 7.60682 6.60619H6.53539C6.39331 6.60619 6.25705 6.54975 6.15658 6.44928C6.05612 6.34882 5.99968 6.21255 5.99968 6.07047C5.99968 5.92839 6.05612 5.79213 6.15658 5.69167C6.25705 5.5912 6.39331 5.53476 6.53539 5.53476ZM7.07111 1.24902C5.90561 1.24902 4.76628 1.59463 3.7972 2.24215C2.82812 2.88967 2.07281 3.81001 1.62679 4.8868C1.18078 5.96358 1.06408 7.14844 1.29146 8.29155C1.51883 9.43466 2.08008 10.4847 2.90421 11.3088C3.72835 12.1329 4.77836 12.6942 5.92146 12.9216C7.06457 13.1489 8.24943 13.0322 9.32622 12.5862C10.403 12.1402 11.3233 11.3849 11.9709 10.4158C12.6184 9.44674 12.964 8.30741 12.964 7.14191C12.964 5.57902 12.3431 4.08014 11.238 2.97501C10.1329 1.86988 8.634 1.24902 7.07111 1.24902ZM7.07111 11.9634C6.11752 11.9634 5.18534 11.6806 4.39245 11.1508C3.59957 10.621 2.98159 9.868 2.61667 8.987C2.25175 8.10599 2.15626 7.13656 2.3423 6.20129C2.52834 5.26602 2.98754 4.40692 3.66183 3.73263C4.33612 3.05833 5.19522 2.59914 6.13049 2.4131C7.06576 2.22706 8.03519 2.32254 8.9162 2.68747C9.7972 3.05239 10.5502 3.67037 11.08 4.46325C11.6098 5.25614 11.8926 6.18831 11.8926 7.14191C11.8926 8.42064 11.3846 9.64699 10.4804 10.5512C9.57619 11.4554 8.34984 11.9634 7.07111 11.9634Z" fill="#FF0000"/>
</g>
<defs>
<clipPath id="clip0_66_5237">
<rect width="12.8572" height="12.8572" fill="white" transform="translate(0.642578 0.713379)"/>
</clipPath>
</defs>
</svg>
