<svg width="13" height="14" viewBox="0 0 13 14" fill="none" xmlns="http://www.w3.org/2000/svg">
<g clip-path="url(#clip0_66_5192)">
<path d="M6.03539 5.53476H8.17826C8.32034 5.53476 8.4566 5.47832 8.55707 5.37785C8.65753 5.27738 8.71397 5.14112 8.71397 4.99904C8.71397 4.85696 8.65753 4.7207 8.55707 4.62023C8.4566 4.51977 8.32034 4.46332 8.17826 4.46332H7.10682V3.92761C7.10682 3.78553 7.05038 3.64926 6.94992 3.5488C6.84945 3.44833 6.71319 3.39189 6.57111 3.39189C6.42903 3.39189 6.29277 3.44833 6.1923 3.5488C6.09183 3.64926 6.03539 3.78553 6.03539 3.92761V4.46332C5.60915 4.46332 5.20036 4.63265 4.89896 4.93405C4.59757 5.23545 4.42824 5.64423 4.42824 6.07047C4.42824 6.49672 4.59757 6.9055 4.89896 7.2069C5.20036 7.5083 5.60915 7.67762 6.03539 7.67762H7.10682C7.24891 7.67762 7.38517 7.73407 7.48563 7.83453C7.5861 7.935 7.64254 8.07126 7.64254 8.21334C7.64254 8.35542 7.5861 8.49168 7.48563 8.59215C7.38517 8.69262 7.24891 8.74906 7.10682 8.74906H4.96396C4.82188 8.74906 4.68562 8.8055 4.58515 8.90597C4.48468 9.00643 4.42824 9.14269 4.42824 9.28477C4.42824 9.42686 4.48468 9.56312 4.58515 9.66358C4.68562 9.76405 4.82188 9.82049 4.96396 9.82049H6.03539V10.3562C6.03539 10.4983 6.09183 10.6346 6.1923 10.735C6.29277 10.8355 6.42903 10.8919 6.57111 10.8919C6.71319 10.8919 6.84945 10.8355 6.94992 10.735C7.05038 10.6346 7.10682 10.4983 7.10682 10.3562V9.82049C7.53307 9.82049 7.94185 9.65117 8.24325 9.34977C8.54465 9.04837 8.71397 8.63958 8.71397 8.21334C8.71397 7.7871 8.54465 7.37831 8.24325 7.07691C7.94185 6.77551 7.53307 6.60619 7.10682 6.60619H6.03539C5.89331 6.60619 5.75705 6.54975 5.65658 6.44928C5.55612 6.34882 5.49968 6.21255 5.49968 6.07047C5.49968 5.92839 5.55612 5.79213 5.65658 5.69167C5.75705 5.5912 5.89331 5.53476 6.03539 5.53476ZM6.57111 1.24902C5.40561 1.24902 4.26628 1.59463 3.2972 2.24215C2.32812 2.88967 1.57281 3.81001 1.12679 4.8868C0.680776 5.96358 0.564077 7.14844 0.791455 8.29155C1.01883 9.43466 1.58008 10.4847 2.40421 11.3088C3.22835 12.1329 4.27836 12.6942 5.42146 12.9216C6.56457 13.1489 7.74943 13.0322 8.82622 12.5862C9.903 12.1402 10.8233 11.3849 11.4709 10.4158C12.1184 9.44674 12.464 8.30741 12.464 7.14191C12.464 5.57902 11.8431 4.08014 10.738 2.97501C9.63288 1.86988 8.134 1.24902 6.57111 1.24902ZM6.57111 11.9634C5.61752 11.9634 4.68534 11.6806 3.89245 11.1508C3.09957 10.621 2.48159 9.868 2.11667 8.987C1.75175 8.10599 1.65626 7.13656 1.8423 6.20129C2.02834 5.26602 2.48754 4.40692 3.16183 3.73263C3.83612 3.05833 4.69522 2.59914 5.63049 2.4131C6.56576 2.22706 7.53519 2.32254 8.4162 2.68747C9.2972 3.05239 10.0502 3.67037 10.58 4.46325C11.1098 5.25614 11.3926 6.18831 11.3926 7.14191C11.3926 8.42064 10.8846 9.64699 9.98039 10.5512C9.07619 11.4554 7.84984 11.9634 6.57111 11.9634Z" fill="#818187"/>
</g>
<defs>
<clipPath id="clip0_66_5192">
<rect width="12.8572" height="12.8572" fill="white" transform="translate(0.142578 0.713379)"/>
</clipPath>
</defs>
</svg>
