<svg width="35" height="35" viewBox="0 0 35 35" fill="none" xmlns="http://www.w3.org/2000/svg">
<circle cx="17.1317" cy="17.8314" r="17.1141" fill="#D1110B" fill-opacity="0.24"/>
<path d="M23.0266 14.2779C22.9663 14.1327 22.8509 14.0173 22.7057 13.957C22.6343 13.9265 22.5576 13.9104 22.4799 13.9094H19.5087C19.3511 13.9094 19.2 13.972 19.0885 14.0835C18.9771 14.1949 18.9145 14.3461 18.9145 14.5037C18.9145 14.6613 18.9771 14.8124 19.0885 14.9239C19.2 15.0353 19.3511 15.0979 19.5087 15.0979H21.0478L17.726 18.4197L15.7709 16.4587C15.7157 16.403 15.65 16.3588 15.5776 16.3286C15.5052 16.2985 15.4275 16.2829 15.349 16.2829C15.2706 16.2829 15.1929 16.2985 15.1205 16.3286C15.0481 16.3588 14.9824 16.403 14.9271 16.4587L11.3617 20.0241C11.306 20.0794 11.2618 20.1451 11.2316 20.2175C11.2014 20.2899 11.1859 20.3676 11.1859 20.4461C11.1859 20.5245 11.2014 20.6022 11.2316 20.6746C11.2618 20.747 11.306 20.8127 11.3617 20.868C11.4169 20.9237 11.4827 20.9679 11.5551 20.998C11.6275 21.0282 11.7052 21.0437 11.7836 21.0437C11.862 21.0437 11.9397 21.0282 12.0121 20.998C12.0845 20.9679 12.1503 20.9237 12.2055 20.868L15.349 17.7185L17.3041 19.6795C17.3593 19.7352 17.425 19.7794 17.4975 19.8096C17.5699 19.8397 17.6475 19.8553 17.726 19.8553C17.8044 19.8553 17.8821 19.8397 17.9545 19.8096C18.0269 19.7794 18.0927 19.7352 18.1479 19.6795L21.8857 15.9358V17.4749C21.8857 17.6325 21.9483 17.7836 22.0597 17.8951C22.1712 18.0065 22.3223 18.0691 22.4799 18.0691C22.6375 18.0691 22.7887 18.0065 22.9001 17.8951C23.0115 17.7836 23.0741 17.6325 23.0741 17.4749V14.5037C23.0732 14.426 23.0571 14.3493 23.0266 14.2779Z" fill="#D1110B"/>
</svg>
