<svg width="35" height="35" viewBox="0 0 35 35" fill="none" xmlns="http://www.w3.org/2000/svg">
<circle cx="17.4606" cy="17.8314" r="17.1141" fill="#E0FAF5"/>
<path d="M19.2433 11.5325C18.2705 11.5333 17.3288 11.8749 16.5818 12.4981C15.8349 13.1213 15.33 13.9865 15.1549 14.9434C14.6429 15.2196 14.2063 15.6169 13.8831 16.1006C13.56 16.5843 13.3601 17.1398 13.3009 17.7185C12.8586 17.913 12.4705 18.2125 12.1701 18.5909C11.8697 18.9694 11.6661 19.4153 11.577 19.8902C11.4879 20.3651 11.5159 20.8545 11.6587 21.3161C11.8014 21.7777 12.0546 22.1975 12.3962 22.5392C12.7379 22.8808 13.1577 23.134 13.6193 23.2767C14.0809 23.4195 14.5703 23.4475 15.0452 23.3584C15.5201 23.2693 15.966 23.0657 16.3445 22.7653C16.7229 22.465 17.0224 22.0768 17.2169 21.6345C17.7939 21.5772 18.3482 21.38 18.8318 21.06C19.3154 20.7401 19.7136 20.307 19.992 19.7983C21.0325 19.6314 21.9708 19.0759 22.6175 18.2438C23.2641 17.4118 23.5709 16.3654 23.4759 15.3159C23.3808 14.2664 22.891 13.2922 22.1053 12.5899C21.3197 11.8876 20.2968 11.5097 19.2433 11.5325ZM16.2721 20.7016C16.2721 20.761 16.2721 20.8204 16.2305 20.8858C16.1537 21.1916 15.9972 21.4717 15.7769 21.6973C15.5566 21.9229 15.2804 22.0861 14.9765 22.1701C14.6725 22.2541 14.3517 22.2561 14.0468 22.1757C13.7419 22.0953 13.4638 21.9354 13.2408 21.7124C13.0178 21.4895 12.858 21.2113 12.7776 20.9064C12.6972 20.6015 12.6991 20.2807 12.7831 19.9768C12.8672 19.6728 13.0303 19.3966 13.2559 19.1763C13.4816 18.956 13.7616 18.7995 14.0674 18.7228L14.2338 18.6633C14.5129 18.6112 14.8004 18.6278 15.0716 18.7118C15.3427 18.7958 15.5894 18.9446 15.7901 19.1453C15.9908 19.346 16.1396 19.5927 16.2236 19.8638C16.3076 20.135 16.3242 20.4225 16.2721 20.7016ZM19.2433 18.5207C19.2354 18.5589 19.2255 18.5966 19.2135 18.6336C19.188 18.743 19.1543 18.8503 19.1125 18.9545C18.9757 19.3014 18.7592 19.6113 18.4805 19.859C18.2018 20.1068 17.8686 20.2855 17.5081 20.3807C17.5081 20.2737 17.5081 20.1727 17.4724 20.0657C17.4368 19.9588 17.4724 19.9053 17.4724 19.828C17.4724 19.7508 17.4011 19.6022 17.3655 19.4893C17.3298 19.3764 17.3239 19.3467 17.2942 19.2754C17.2429 19.1622 17.1833 19.0529 17.1159 18.9486C17.1159 18.8951 17.0624 18.8357 17.0267 18.7822C16.9211 18.6273 16.8017 18.4821 16.6702 18.3484L16.5514 18.2474C16.4517 18.1558 16.3466 18.0704 16.2364 17.9918C16.1717 17.9497 16.1042 17.912 16.0344 17.8789C15.9393 17.8185 15.84 17.7649 15.7372 17.7185C15.6605 17.6857 15.5809 17.6598 15.4996 17.6412C15.3995 17.6006 15.2961 17.5688 15.1905 17.5462C15.1074 17.5462 15.0182 17.5462 14.9291 17.5105L14.5666 17.4749C14.6612 17.1149 14.839 16.7822 15.0857 16.5035C15.3323 16.2248 15.641 16.008 15.9868 15.8704C16.0887 15.8279 16.1941 15.7941 16.3018 15.7694L16.4206 15.7397C16.5672 15.7089 16.7165 15.6929 16.8663 15.6921C17.4967 15.6921 18.1013 15.9426 18.5471 16.3883C18.9928 16.8341 19.2433 17.4387 19.2433 18.0691C19.2425 18.2208 19.2265 18.3721 19.1957 18.5207H19.2433ZM20.4317 18.4256C20.4317 18.3068 20.4317 18.1879 20.4317 18.0691C20.4317 17.1235 20.0561 16.2166 19.3874 15.548C18.7188 14.8793 17.8119 14.5037 16.8663 14.5037C16.7475 14.5037 16.6286 14.5037 16.5098 14.5037C16.7056 14.0631 17.0058 13.6768 17.3843 13.3781C17.7629 13.0794 18.2084 12.8774 18.6825 12.7894C19.1566 12.7014 19.6449 12.7301 20.1054 12.873C20.566 13.0159 20.9848 13.2687 21.3257 13.6097C21.6667 13.9506 21.9195 14.3695 22.0624 14.83C22.2054 15.2905 22.234 15.7788 22.146 16.2529C22.058 16.727 21.856 17.1725 21.5573 17.5511C21.2586 17.9296 20.8723 18.2298 20.4317 18.4256Z" fill="#00D5AA"/>
</svg>
