<svg width="14" height="14" viewBox="0 0 14 14" fill="none" xmlns="http://www.w3.org/2000/svg">
<path d="M12.3856 3.97423C12.3313 3.84333 12.2273 3.73931 12.0964 3.68495C12.0319 3.6575 11.9628 3.64294 11.8928 3.64209H9.2142C9.07212 3.64209 8.93586 3.69853 8.83539 3.799C8.73492 3.89946 8.67848 4.03573 8.67848 4.17781C8.67848 4.31989 8.73492 4.45615 8.83539 4.55662C8.93586 4.65708 9.07212 4.71352 9.2142 4.71352H10.6017L7.60705 7.70818L5.84454 5.94031C5.79474 5.8901 5.73549 5.85025 5.67021 5.82305C5.60492 5.79585 5.5349 5.78185 5.46418 5.78185C5.39346 5.78185 5.32344 5.79585 5.25816 5.82305C5.19288 5.85025 5.13363 5.8901 5.08382 5.94031L1.86952 9.15461C1.81931 9.20442 1.77946 9.26367 1.75226 9.32895C1.72506 9.39423 1.71106 9.46425 1.71106 9.53497C1.71106 9.60569 1.72506 9.67571 1.75226 9.741C1.77946 9.80628 1.81931 9.86553 1.86952 9.91533C1.91933 9.96554 1.97858 10.0054 2.04386 10.0326C2.10914 10.0598 2.17916 10.0738 2.24988 10.0738C2.3206 10.0738 2.39062 10.0598 2.45591 10.0326C2.52119 10.0054 2.58044 9.96554 2.63024 9.91533L5.46418 7.07603L7.22669 8.8439C7.27649 8.89411 7.33574 8.93396 7.40102 8.96116C7.46631 8.98836 7.53633 9.00236 7.60705 9.00236C7.67777 9.00236 7.74779 8.98836 7.81307 8.96116C7.87836 8.93396 7.93761 8.89411 7.98741 8.8439L11.3571 5.46888V6.85639C11.3571 6.99847 11.4135 7.13473 11.514 7.2352C11.6144 7.33566 11.7507 7.39211 11.8928 7.39211C12.0349 7.39211 12.1711 7.33566 12.2716 7.2352C12.3721 7.13473 12.4285 6.99847 12.4285 6.85639V4.17781C12.4277 4.1078 12.4131 4.03864 12.3856 3.97423Z" fill="#FF0000"/>
</svg>
