<svg width="13" height="14" viewBox="0 0 13 14" fill="none" xmlns="http://www.w3.org/2000/svg">
<path d="M11.8855 3.97375C11.8312 3.84284 11.7271 3.73882 11.5962 3.68446C11.5318 3.65701 11.4627 3.64245 11.3927 3.6416H8.71408C8.572 3.6416 8.43573 3.69804 8.33527 3.79851C8.2348 3.89898 8.17836 4.03524 8.17836 4.17732C8.17836 4.3194 8.2348 4.45566 8.33527 4.55613C8.43573 4.65659 8.572 4.71303 8.71408 4.71303H10.1016L7.10693 7.70769L5.34442 5.93983C5.29462 5.88961 5.23537 5.84976 5.17008 5.82256C5.1048 5.79536 5.03478 5.78136 4.96406 5.78136C4.89334 5.78136 4.82332 5.79536 4.75804 5.82256C4.69275 5.84976 4.6335 5.88961 4.5837 5.93983L1.3694 9.15413C1.31919 9.20393 1.27934 9.26318 1.25214 9.32846C1.22494 9.39374 1.21094 9.46376 1.21094 9.53448C1.21094 9.60521 1.22494 9.67523 1.25214 9.74051C1.27934 9.80579 1.31919 9.86504 1.3694 9.91484C1.4192 9.96505 1.47845 10.0049 1.54374 10.0321C1.60902 10.0593 1.67904 10.0733 1.74976 10.0733C1.82048 10.0733 1.8905 10.0593 1.95578 10.0321C2.02107 10.0049 2.08032 9.96505 2.13012 9.91484L4.96406 7.07555L6.72657 8.84341C6.77637 8.89362 6.83562 8.93348 6.9009 8.96067C6.96618 8.98787 7.03621 9.00187 7.10693 9.00187C7.17765 9.00187 7.24767 8.98787 7.31295 8.96067C7.37823 8.93348 7.43748 8.89362 7.48729 8.84341L10.8569 5.4684V6.8559C10.8569 6.99798 10.9134 7.13424 11.0139 7.23471C11.1143 7.33518 11.2506 7.39162 11.3927 7.39162C11.5347 7.39162 11.671 7.33518 11.7715 7.23471C11.8719 7.13424 11.9284 6.99798 11.9284 6.8559V4.17732C11.9275 4.10731 11.913 4.03815 11.8855 3.97375Z" fill="#818187"/>
</svg>
