<svg width="16" height="16" viewBox="0 0 16 16" fill="none" xmlns="http://www.w3.org/2000/svg">
<g clip-path="url(#clip0_146_554)">
<path d="M15.6005 8.30979C15.6005 7.78864 15.5583 7.26466 15.4681 6.75195H8.23666V9.70425H12.3778C12.2059 10.6564 11.6538 11.4987 10.8453 12.034V13.9496H13.3159C14.7667 12.6143 15.6005 10.6423 15.6005 8.30979Z" fill="#4285F4"/>
<path d="M8.23665 15.8003C10.3044 15.8003 12.0482 15.1214 13.3187 13.9495L10.8481 12.0339C10.1607 12.5016 9.27334 12.7664 8.23947 12.7664C6.23935 12.7664 4.54347 11.417 3.93498 9.60278H1.38553V11.5776C2.68702 14.1664 5.33788 15.8003 8.23665 15.8003V15.8003Z" fill="#34A853"/>
<path d="M3.93217 9.60278C3.61102 8.65061 3.61102 7.61957 3.93217 6.6674V4.69263H1.38553C0.298144 6.85896 0.298144 9.41122 1.38553 11.5776L3.93217 9.60278V9.60278Z" fill="#FBBC04"/>
<path d="M8.23665 3.50106C9.32968 3.48416 10.3861 3.89545 11.1777 4.65042L13.3665 2.46156C11.9805 1.16007 10.141 0.444533 8.23665 0.467069C5.33788 0.467069 2.68702 2.10097 1.38553 4.69268L3.93216 6.66745C4.53783 4.85044 6.23653 3.50106 8.23665 3.50106V3.50106Z" fill="#EA4335"/>
</g>
<defs>
<clipPath id="clip0_146_554">
<rect width="15.3333" height="15.3333" fill="white" transform="translate(0.416656 0.466553)"/>
</clipPath>
</defs>
</svg>
