<svg width="18" height="19" viewBox="0 0 18 19" fill="none" xmlns="http://www.w3.org/2000/svg">
<path d="M8.96356 2.33496C6.31271 2.33496 4.1661 4.48157 4.1661 7.13242V8.64513C4.1661 9.13496 3.96441 9.86971 3.71229 10.2875L2.79746 11.8146C2.23559 12.7583 2.62458 13.81 3.66187 14.1557C7.10509 15.3011 10.8292 15.3011 14.2725 14.1557C15.2449 13.8316 15.6627 12.6934 15.1369 11.8146L14.222 10.2875C13.9699 9.86971 13.7682 9.12776 13.7682 8.64513V7.13242C13.761 4.49598 11.6 2.33496 8.96356 2.33496Z" stroke="#A5B4CB" stroke-width="1.08051" stroke-miterlimit="10" stroke-linecap="round"/>
<path d="M11.3478 14.4512C11.3478 15.7694 10.2672 16.8499 8.94902 16.8499C8.29351 16.8499 7.68843 16.5762 7.25622 16.144C6.82402 15.7118 6.55029 15.1067 6.55029 14.4512" stroke="#A5B4CB" stroke-width="1.08051" stroke-miterlimit="10"/>
<circle cx="12.5512" cy="3.77625" r="2.16102" fill="#FE6470"/>
</svg>
