<svg width="356" height="227" viewBox="0 0 356 227" fill="none" xmlns="http://www.w3.org/2000/svg">
<g clip-path="url(#clip0_344_10382)">
<path d="M63.9976 224.744C67.3829 221.885 69.4392 217.368 68.9 212.971C68.3607 208.574 65.0207 204.531 60.6882 203.597C56.3556 202.664 51.4169 205.248 50.101 209.479C49.3768 201.323 48.5422 192.825 44.2041 185.88C40.276 179.591 33.4725 175.091 26.0991 174.286C18.7257 173.481 10.9624 176.521 6.36381 182.339C1.76526 188.156 0.639315 196.613 3.86002 203.291C6.2326 208.211 10.6037 211.873 15.1836 214.851C29.9827 224.396 47.7324 228.277 65.1668 225.781L63.9976 224.744Z" fill="#F2F2F2"/>
<path d="M13.6552 176.69C19.7393 181.643 25.3207 187.183 30.3188 193.229C35.3178 199.27 39.7188 205.78 43.4601 212.67C45.5513 216.534 47.4299 220.51 49.0874 224.58C49.4254 225.407 48.0806 225.768 47.7464 224.949C44.8104 217.775 41.1781 210.905 36.9014 204.439C32.6456 197.997 27.7745 191.982 22.3567 186.479C19.2923 183.369 16.0592 180.429 12.6719 177.673C11.9776 177.108 12.9667 176.13 13.6552 176.69Z" fill="white"/>
<path d="M266.017 0.285645H82.682C81.9833 0.286419 81.3135 0.564178 80.8194 1.05799C80.3254 1.55179 80.0475 2.22132 80.0468 2.91967V127.095C80.0475 127.793 80.3254 128.463 80.8194 128.957C81.3135 129.45 81.9833 129.728 82.682 129.729H266.017C266.716 129.728 267.386 129.45 267.88 128.957C268.374 128.463 268.651 127.793 268.652 127.095V2.91967C268.651 2.22132 268.374 1.55179 267.88 1.05799C267.386 0.564178 266.716 0.286419 266.017 0.285645ZM267.899 127.095C267.899 127.594 267.701 128.072 267.348 128.425C266.995 128.778 266.516 128.976 266.017 128.976H82.682C82.1828 128.976 81.7042 128.778 81.3512 128.425C80.9982 128.072 80.7999 127.594 80.7997 127.095V2.91967C80.7999 2.42074 80.9982 1.9423 81.3512 1.58951C81.7042 1.23671 82.1828 1.03842 82.682 1.03822H266.017C266.516 1.03842 266.995 1.23671 267.348 1.58951C267.701 1.9423 267.899 2.42074 267.899 2.91967V127.095Z" fill="#563D3D"/>
<path d="M268.276 10.8369H80.4232V11.5895H268.276V10.8369Z" fill="#563D3D"/>
<path d="M86.823 8.18783C88.0704 8.18783 89.0817 7.17701 89.0817 5.9301C89.0817 4.68318 88.0704 3.67236 86.823 3.67236C85.5755 3.67236 84.5642 4.68318 84.5642 5.9301C84.5642 7.17701 85.5755 8.18783 86.823 8.18783Z" fill="#563D3D"/>
<path d="M93.3169 8.18783C94.5643 8.18783 95.5756 7.17701 95.5756 5.9301C95.5756 4.68318 94.5643 3.67236 93.3169 3.67236C92.0694 3.67236 91.0581 4.68318 91.0581 5.9301C91.0581 7.17701 92.0694 8.18783 93.3169 8.18783Z" fill="#563D3D"/>
<path d="M99.8108 8.18783C101.058 8.18783 102.069 7.17701 102.069 5.9301C102.069 4.68318 101.058 3.67236 99.8108 3.67236C98.5633 3.67236 97.552 4.68318 97.552 5.9301C97.552 7.17701 98.5633 8.18783 99.8108 8.18783Z" fill="#563D3D"/>
<path d="M190.161 28.3193H158.538C157.839 28.3193 157.169 28.0418 156.675 27.5478C156.181 27.0539 155.903 26.3839 155.903 25.6853C155.903 24.9867 156.181 24.3167 156.675 23.8228C157.169 23.3288 157.839 23.0513 158.538 23.0513H190.161C190.86 23.0513 191.53 23.3288 192.024 23.8228C192.518 24.3167 192.796 24.9867 192.796 25.6853C192.796 26.3839 192.518 27.0539 192.024 27.5478C191.53 28.0418 190.86 28.3193 190.161 28.3193Z" fill="#CCCCCC"/>
<path d="M211.807 41.1128H136.892C136.193 41.1128 135.523 40.8353 135.029 40.3413C134.534 39.8473 134.257 39.1773 134.257 38.4787C134.257 37.7802 134.534 37.1102 135.029 36.6162C135.523 36.1222 136.193 35.8447 136.892 35.8447H211.807C212.506 35.8447 213.176 36.1222 213.67 36.6162C214.165 37.1102 214.442 37.7802 214.442 38.4787C214.442 39.1773 214.165 39.8473 213.67 40.3413C213.176 40.8353 212.506 41.1128 211.807 41.1128Z" fill="#CCCCCC"/>
<path d="M234.275 119.739C231.435 119.739 228.659 118.897 226.298 117.32C223.937 115.743 222.097 113.502 221.01 110.88C219.923 108.258 219.639 105.372 220.193 102.588C220.747 99.8045 222.114 97.2474 224.122 95.2404C226.13 93.2334 228.689 91.8666 231.474 91.3129C234.259 90.7591 237.145 91.0433 239.769 92.1295C242.392 93.2157 244.635 95.0551 246.212 97.4151C247.79 99.7751 248.632 102.55 248.632 105.388C248.628 109.193 247.114 112.84 244.422 115.531C241.73 118.221 238.081 119.735 234.275 119.739ZM234.275 92.0268C231.631 92.0268 229.046 92.8105 226.848 94.2786C224.65 95.7467 222.937 97.8335 221.925 100.275C220.913 102.716 220.648 105.403 221.164 107.995C221.68 110.586 222.953 112.967 224.823 114.836C226.692 116.704 229.074 117.977 231.667 118.492C234.26 119.008 236.947 118.743 239.39 117.732C241.832 116.721 243.92 115.008 245.389 112.811C246.858 110.614 247.642 108.031 247.642 105.388C247.638 101.846 246.228 98.4495 243.722 95.9447C241.216 93.4398 237.819 92.0308 234.275 92.0268Z" fill="#563D3D"/>
<path d="M113.907 81.3038C111.068 81.3038 108.292 80.4621 105.931 78.8852C103.57 77.3083 101.729 75.0671 100.643 72.4448C99.5561 69.8225 99.2718 66.937 99.8258 64.1532C100.38 61.3694 101.747 58.8123 103.755 56.8053C105.763 54.7983 108.321 53.4315 111.106 52.8778C113.891 52.3241 116.778 52.6083 119.402 53.6944C122.025 54.7806 124.267 56.62 125.845 58.98C127.423 61.34 128.265 64.1146 128.265 66.9529C128.26 70.7577 126.746 74.4054 124.055 77.0958C121.363 79.7862 117.714 81.2995 113.907 81.3038ZM113.907 53.5918C111.263 53.5918 108.679 54.3754 106.481 55.8435C104.283 57.3117 102.569 59.3984 101.558 61.8398C100.546 64.2813 100.281 66.9678 100.797 69.5596C101.313 72.1514 102.586 74.5321 104.455 76.4007C106.325 78.2693 108.706 79.5418 111.299 80.0574C113.892 80.5729 116.58 80.3083 119.023 79.297C121.465 78.2858 123.553 76.5732 125.022 74.376C126.49 72.1788 127.274 69.5955 127.274 66.9529C127.27 63.4106 125.861 60.0144 123.355 57.5096C120.849 55.0048 117.451 53.5958 113.907 53.5918Z" fill="#563D3D"/>
<path d="M119.484 74.5602C119.108 74.5603 118.748 74.4112 118.482 74.1458C118.216 73.8803 118.066 73.5201 118.065 73.1444V65.0924C118.066 64.717 118.215 64.3571 118.481 64.0917C118.746 63.8263 119.106 63.677 119.482 63.6765H119.484C119.86 63.677 120.22 63.8263 120.485 64.0917C120.751 64.3571 120.9 64.717 120.901 65.0924V73.1444C120.9 73.5197 120.751 73.8796 120.485 74.145C120.22 74.4105 119.86 74.5598 119.484 74.5602ZM115.786 74.5602C115.598 74.5621 115.412 74.5269 115.238 74.4567C115.065 74.3864 114.906 74.2825 114.773 74.151C114.639 74.0194 114.533 73.8627 114.46 73.6899C114.388 73.5172 114.35 73.3318 114.349 73.1444V68.807C114.349 68.4316 114.499 68.0718 114.764 67.8063C115.03 67.5409 115.39 67.3917 115.765 67.3913H115.786C116.161 67.3917 116.521 67.5409 116.787 67.8063C117.052 68.0718 117.202 68.4316 117.202 68.807V73.1444C117.202 73.5197 117.052 73.8796 116.787 74.145C116.521 74.4105 116.161 74.5598 115.786 74.5602ZM112.052 74.5602C111.676 74.5603 111.315 74.4112 111.049 74.1458C110.783 73.8803 110.633 73.5201 110.633 73.1444V60.7611C110.633 60.3857 110.782 60.0258 111.048 59.7604C111.314 59.495 111.674 59.3456 112.049 59.3452H112.052C112.427 59.3456 112.787 59.495 113.053 59.7604C113.318 60.0258 113.468 60.3857 113.468 60.7611V73.1444C113.468 73.5197 113.318 73.8796 113.053 74.145C112.787 74.4105 112.427 74.5598 112.052 74.5602ZM108.332 74.5602C108.145 74.5604 107.961 74.5239 107.789 74.4528C107.617 74.3816 107.46 74.2773 107.329 74.1457C107.197 74.0141 107.093 73.8578 107.021 73.6858C106.95 73.5138 106.914 73.3295 106.914 73.1433L106.915 71.2834C106.916 70.9079 107.065 70.5479 107.331 70.2825C107.596 70.0171 107.957 69.8681 108.332 69.8683C108.708 69.8685 109.068 70.0178 109.334 70.2834C109.599 70.549 109.748 70.9092 109.748 71.2846V73.1444C109.748 73.5197 109.598 73.8796 109.333 74.145C109.067 74.4105 108.707 74.5598 108.332 74.5602Z" fill="#EC5757"/>
<path d="M331.705 225.798C328.865 225.798 326.089 224.957 323.728 223.38C321.367 221.803 319.527 219.562 318.44 216.939C317.353 214.317 317.069 211.432 317.623 208.648C318.177 205.864 319.544 203.307 321.552 201.3C323.56 199.293 326.118 197.926 328.904 197.372C331.689 196.819 334.575 197.103 337.199 198.189C339.822 199.275 342.065 201.115 343.642 203.475C345.22 205.835 346.062 208.609 346.062 211.448C346.058 215.252 344.544 218.9 341.852 221.59C339.16 224.281 335.511 225.794 331.705 225.798ZM331.705 198.086C329.061 198.086 326.476 198.87 324.278 200.338C322.08 201.806 320.367 203.893 319.355 206.334C318.343 208.776 318.078 211.462 318.594 214.054C319.11 216.646 320.383 219.027 322.252 220.895C324.122 222.764 326.504 224.036 329.097 224.552C331.69 225.068 334.377 224.803 336.82 223.792C339.262 222.78 341.35 221.068 342.819 218.871C344.288 216.673 345.072 214.09 345.072 211.448C345.068 207.905 343.658 204.509 341.152 202.004C338.646 199.499 335.248 198.09 331.705 198.086Z" fill="#563D3D"/>
<path d="M335.662 208.957L332.863 213.235C333.088 213.508 333.21 213.851 333.209 214.204C333.208 214.612 333.046 215.003 332.757 215.291C332.468 215.58 332.077 215.741 331.669 215.741C331.261 215.741 330.87 215.58 330.581 215.291C330.292 215.003 330.13 214.612 330.129 214.204C330.13 214.105 330.139 214.007 330.156 213.909L328.308 212.834C328.07 213.064 327.763 213.212 327.433 213.253C327.104 213.295 326.77 213.228 326.481 213.064L324.516 214.905V216.739C324.517 217.102 324.661 217.45 324.917 217.707C325.174 217.964 325.521 218.109 325.884 218.11H337.521C337.885 218.109 338.233 217.964 338.489 217.707C338.746 217.45 338.891 217.102 338.893 216.739V209.935L337.013 208.686C336.824 208.832 336.604 208.933 336.37 208.98C336.135 209.027 335.893 209.02 335.662 208.957Z" fill="#EC5757"/>
<path d="M327.241 210.198C327.65 210.198 328.041 210.36 328.33 210.649C328.619 210.937 328.781 211.329 328.781 211.737V211.935L330.708 213.013C330.983 212.788 331.328 212.665 331.684 212.665C331.796 212.665 331.908 212.677 332.018 212.7L334.823 208.36C334.683 208.163 334.591 207.936 334.555 207.697C334.52 207.459 334.541 207.215 334.617 206.986C334.694 206.756 334.823 206.549 334.995 206.379C335.167 206.209 335.377 206.083 335.607 206.01C335.837 205.936 336.082 205.918 336.32 205.957C336.559 205.996 336.784 206.091 336.979 206.234C337.174 206.376 337.333 206.563 337.442 206.779C337.551 206.994 337.608 207.232 337.607 207.474C337.607 207.596 337.593 207.718 337.566 207.837L338.893 208.723V206.156C338.891 205.793 338.746 205.445 338.489 205.188C338.233 204.932 337.885 204.787 337.521 204.785H325.884C325.521 204.787 325.174 204.932 324.917 205.189C324.661 205.445 324.517 205.793 324.516 206.156V213.51L325.799 212.281C325.713 212.048 325.685 211.799 325.716 211.553C325.748 211.308 325.838 211.073 325.98 210.87C326.121 210.667 326.31 210.501 326.53 210.387C326.749 210.272 326.993 210.212 327.241 210.212V210.198Z" fill="#EC5757"/>
<path d="M174.919 81.3038C172.079 81.3038 169.303 80.4621 166.942 78.8852C164.581 77.3083 162.741 75.0671 161.654 72.4448C160.568 69.8225 160.283 66.937 160.837 64.1532C161.391 61.3694 162.759 58.8123 164.767 56.8053C166.775 54.7983 169.333 53.4315 172.118 52.8778C174.903 52.3241 177.79 52.6083 180.413 53.6944C183.037 54.7806 185.279 56.62 186.857 58.98C188.434 61.34 189.276 64.1146 189.276 66.9529C189.272 70.7577 187.758 74.4054 185.066 77.0958C182.375 79.7862 178.725 81.2995 174.919 81.3038ZM174.919 53.5918C172.275 53.5918 169.691 54.3754 167.492 55.8435C165.294 57.3117 163.581 59.3984 162.569 61.8398C161.557 64.2813 161.293 66.9678 161.809 69.5596C162.324 72.1514 163.597 74.5321 165.467 76.4007C167.336 78.2693 169.718 79.5418 172.311 80.0574C174.904 80.5729 177.592 80.3083 180.034 79.297C182.477 78.2858 184.564 76.5732 186.033 74.376C187.502 72.1788 188.286 69.5955 188.286 66.9529C188.282 63.4106 186.872 60.0144 184.366 57.5096C181.86 55.0048 178.463 53.5958 174.919 53.5918Z" fill="#563D3D"/>
<path d="M167.291 72.1547C167.085 72.1546 166.883 72.0934 166.712 71.9789C166.54 71.8644 166.406 71.7016 166.327 71.5111C166.248 71.3206 166.227 71.1109 166.267 70.9086C166.307 70.7063 166.406 70.5203 166.552 70.3743L171.857 65.0569C171.939 64.9737 172.038 64.9077 172.146 64.8627C172.254 64.8178 172.37 64.7948 172.488 64.7951H172.488C172.605 64.7948 172.721 64.8176 172.83 64.8624C172.938 64.9072 173.036 64.973 173.119 65.056L175.579 67.5152C175.629 67.5651 175.687 67.6046 175.752 67.6315C175.817 67.6584 175.887 67.6721 175.957 67.6719C176.028 67.6721 176.097 67.6583 176.162 67.6314C176.227 67.6045 176.286 67.5649 176.336 67.5151L179.809 64.0372C179.826 64.0206 179.839 64.001 179.848 63.9794C179.857 63.9577 179.862 63.9345 179.862 63.9111C179.862 63.8877 179.857 63.8645 179.848 63.8429C179.839 63.8213 179.826 63.8017 179.809 63.7852L178.685 62.6636C178.61 62.5889 178.559 62.4936 178.539 62.3899C178.518 62.2861 178.528 62.1786 178.569 62.0808C178.609 61.983 178.678 61.8994 178.766 61.8406C178.854 61.7818 178.957 61.7505 179.063 61.7505H183.055C183.197 61.7506 183.333 61.807 183.433 61.9073C183.533 62.0075 183.59 62.1435 183.59 62.2852V66.2728C183.59 66.3785 183.559 66.4819 183.5 66.5699C183.441 66.6578 183.358 66.7264 183.26 66.7669C183.162 66.8074 183.054 66.818 182.951 66.7974C182.847 66.7767 182.752 66.7258 182.677 66.651L181.551 65.5258C181.535 65.5093 181.515 65.4961 181.493 65.4872C181.472 65.4782 181.449 65.4736 181.425 65.4736C181.402 65.4736 181.378 65.4782 181.357 65.4872C181.335 65.4961 181.316 65.5093 181.299 65.5258L176.595 70.2243C176.513 70.3072 176.414 70.373 176.306 70.4178C176.198 70.4626 176.082 70.4855 175.965 70.4852C175.848 70.4855 175.732 70.4626 175.624 70.4177C175.515 70.3729 175.417 70.3071 175.334 70.2241L172.873 67.7636C172.771 67.6664 172.636 67.6122 172.495 67.6122C172.354 67.6122 172.218 67.6664 172.116 67.7636L168.029 71.8488C167.933 71.9461 167.818 72.0232 167.691 72.0757C167.564 72.1282 167.428 72.155 167.291 72.1547Z" fill="#EC5757"/>
<path d="M174.919 118.932C172.079 118.932 169.303 118.091 166.942 116.514C164.581 114.937 162.741 112.695 161.654 110.073C160.568 107.451 160.283 104.565 160.837 101.782C161.391 98.9978 162.759 96.4408 164.767 94.4337C166.775 92.4267 169.333 91.06 172.118 90.5062C174.903 89.9525 177.79 90.2367 180.413 91.3229C183.037 92.4091 185.279 94.2484 186.857 96.6084C188.434 98.9684 189.276 101.743 189.276 104.581C189.272 108.386 187.758 112.034 185.066 114.724C182.375 117.415 178.725 118.928 174.919 118.932Z" fill="#E6E6E6"/>
<path d="M234.399 80.1749C231.56 80.1749 228.784 79.3332 226.423 77.7563C224.062 76.1794 222.222 73.9381 221.135 71.3159C220.048 68.6936 219.764 65.8081 220.318 63.0243C220.872 60.2405 222.239 57.6834 224.247 55.6764C226.255 53.6694 228.813 52.3026 231.598 51.7489C234.383 51.1952 237.27 51.4794 239.894 52.5655C242.517 53.6517 244.759 55.4911 246.337 57.8511C247.915 60.2111 248.757 62.9857 248.757 65.824C248.752 69.6288 247.238 73.2765 244.547 75.9669C241.855 78.6573 238.206 80.1706 234.399 80.1749Z" fill="#E6E6E6"/>
<path d="M113.908 90.2305C111.443 90.2336 109.021 90.8684 106.872 92.0743C109.977 92.3486 112.889 93.6992 115.104 95.8924C117.319 98.0856 118.698 100.984 119.002 104.085C119.305 107.187 118.515 110.297 116.768 112.878C115.02 115.459 112.425 117.348 109.432 118.219C109.992 118.405 110.564 118.554 111.144 118.667C112.055 118.846 112.98 118.935 113.908 118.934C117.716 118.934 121.368 117.422 124.06 114.73C126.753 112.039 128.266 108.388 128.266 104.582C128.266 100.776 126.753 97.1254 124.06 94.434C121.368 91.7425 117.716 90.2305 113.908 90.2305Z" fill="#E6E6E6"/>
<path d="M108.46 91.3071C107.551 91.125 106.625 91.0342 105.697 91.0362C102.005 91.0323 98.4538 92.4485 95.7784 94.9911C93.103 97.5337 91.5089 101.008 91.3266 104.693C91.1443 108.379 92.3877 111.993 94.7991 114.787C97.2106 117.581 100.605 119.341 104.279 119.701C107.953 120.061 111.625 118.994 114.534 116.722C117.442 114.45 119.364 111.146 119.902 107.495C120.44 103.844 119.551 100.127 117.421 97.1131C115.291 94.0993 112.082 92.0203 108.46 91.3071ZM109.432 118.219C107.593 118.754 105.661 118.887 103.766 118.611C101.871 118.334 100.058 117.654 98.449 116.616C96.84 115.578 95.4729 114.207 94.4401 112.595C93.4073 110.983 92.7331 109.169 92.4629 107.274C92.1927 105.379 92.3329 103.448 92.8741 101.612C93.4153 99.776 94.3448 98.0776 95.5996 96.6318C96.8545 95.186 98.4055 94.0265 100.148 93.2319C101.89 92.4372 103.782 92.0259 105.697 92.0258C106.092 92.0258 106.484 92.0446 106.872 92.0747C109.977 92.3491 112.889 93.6996 115.104 95.8928C117.319 98.086 118.698 100.984 119.002 104.086C119.305 107.187 118.515 110.297 116.768 112.878C115.02 115.459 112.425 117.348 109.432 118.219Z" fill="#563D3D"/>
<path d="M114.057 102.862C113.582 100.782 112.302 98.9766 110.496 97.8403C108.691 96.7041 106.508 96.3304 104.427 96.8012C104.224 96.8476 104.013 96.9046 103.828 96.9617L105.747 105.389L114.178 103.475C114.142 103.279 114.103 103.065 114.057 102.862Z" fill="#EC5757"/>
<path d="M113.24 104.953L104.805 106.868L102.89 98.4404C101.42 98.8952 100.11 99.762 99.1174 100.938C98.1247 102.114 97.4901 103.55 97.2889 105.075C97.0877 106.601 97.3284 108.152 97.9824 109.545C98.6363 110.938 99.6762 112.114 100.979 112.934C102.281 113.755 103.792 114.184 105.331 114.173C106.87 114.161 108.374 113.708 109.664 112.868C110.954 112.028 111.975 110.836 112.608 109.433C113.241 108.03 113.457 106.476 113.233 104.953H113.24Z" fill="#EC5757"/>
<path d="M261.455 172.42C258.616 172.42 255.84 171.578 253.479 170.001C251.118 168.424 249.277 166.183 248.191 163.56C247.104 160.938 246.82 158.053 247.374 155.269C247.928 152.485 249.295 149.928 251.303 147.921C253.311 145.914 255.869 144.547 258.654 143.994C261.439 143.44 264.326 143.724 266.95 144.81C269.573 145.896 271.815 147.736 273.393 150.096C274.971 152.456 275.813 155.23 275.813 158.069C275.808 161.873 274.294 165.521 271.603 168.211C268.911 170.902 265.262 172.415 261.455 172.42ZM261.455 144.708C258.811 144.708 256.227 145.491 254.029 146.959C251.831 148.427 250.117 150.514 249.106 152.956C248.094 155.397 247.829 158.083 248.345 160.675C248.861 163.267 250.134 165.648 252.003 167.516C253.873 169.385 256.254 170.658 258.847 171.173C261.44 171.689 264.128 171.424 266.571 170.413C269.013 169.401 271.101 167.689 272.57 165.492C274.038 163.294 274.822 160.711 274.822 158.069C274.818 154.526 273.409 151.13 270.903 148.625C268.397 146.12 264.999 144.712 261.455 144.708Z" fill="#563D3D"/>
<path d="M267.65 163.818C267.125 163.819 266.611 163.663 266.174 163.372C265.737 163.08 265.396 162.666 265.194 162.181C264.993 161.695 264.94 161.161 265.042 160.646C265.144 160.131 265.397 159.658 265.768 159.286C266.14 158.914 266.613 158.661 267.128 158.558C267.644 158.455 268.178 158.508 268.664 158.708C269.149 158.909 269.564 159.249 269.857 159.686C270.149 160.122 270.305 160.636 270.306 161.161C270.306 161.865 270.026 162.541 269.528 163.039C269.03 163.537 268.355 163.818 267.65 163.818ZM261.455 163.818C260.751 163.818 260.076 163.538 259.579 163.04C259.081 162.543 258.801 161.868 258.8 161.164V154.972C258.801 154.269 259.081 153.595 259.579 153.098C260.077 152.6 260.752 152.321 261.455 152.321C262.159 152.321 262.834 152.6 263.332 153.098C263.83 153.595 264.11 154.269 264.111 154.972V161.164C264.11 161.868 263.83 162.543 263.332 163.04C262.834 163.538 262.159 163.818 261.455 163.818ZM255.262 163.818C254.558 163.818 253.882 163.538 253.384 163.04C252.886 162.542 252.606 161.867 252.605 161.163V158.689C252.605 157.984 252.885 157.309 253.383 156.811C253.882 156.312 254.557 156.033 255.262 156.033C255.967 156.033 256.643 156.312 257.141 156.811C257.639 157.309 257.919 157.984 257.919 158.689V161.163C257.918 161.867 257.638 162.542 257.14 163.04C256.642 163.538 255.966 163.818 255.262 163.818Z" fill="#EC5757"/>
<path d="M79.3976 222.453L83.7739 221.957L83.9411 204.849L77.4822 205.581L79.3976 222.453Z" fill="#A0616A"/>
<path d="M92.6747 225.061L78.9212 226.621L78.3182 221.309L86.7578 220.352C88.1671 220.192 89.5823 220.598 90.6919 221.481C91.8015 222.364 92.5147 223.652 92.6747 225.061Z" fill="#412E2E"/>
<path d="M34.3925 222.18L38.7967 222.179L40.8916 205.199L34.3917 205.2L34.3925 222.18Z" fill="#A0616A"/>
<path d="M47.2904 226.268L33.4486 226.268L33.4484 220.923L41.9422 220.922C43.3606 220.922 44.7209 221.485 45.7238 222.488C46.7268 223.49 47.2903 224.85 47.2904 226.268Z" fill="#412E2E"/>
<path d="M65.9915 146.246L68.5062 154.422L82.1573 183.949L85.7497 211.958L77.4872 212.317L72.4578 186.463L55.2143 167.791L40.1262 216.626L33.3007 215.907C33.3007 215.907 39.0485 152.71 46.9518 146.246C46.9518 146.246 59.8844 140.142 65.9915 146.246Z" fill="#412E2E"/>
<path d="M54.8366 110.969C59.7096 110.969 63.6599 107.02 63.6599 102.149C63.6599 97.2786 59.7096 93.3301 54.8366 93.3301C49.9636 93.3301 46.0133 97.2786 46.0133 102.149C46.0133 107.02 49.9636 110.969 54.8366 110.969Z" fill="#A0616A"/>
<path d="M66.8896 147.861C66.8896 147.861 67.9673 111.235 52.8792 113.749C37.7911 116.262 44.0778 151.632 44.0778 151.632C44.0778 151.632 47.311 158.095 55.2143 150.913C63.1175 143.732 66.8896 147.861 66.8896 147.861Z" fill="#EC5757"/>
<path d="M98.1257 117.377C97.8425 117.822 97.4649 118.2 97.0197 118.484C96.5745 118.768 96.0724 118.951 95.5488 119.02C95.0252 119.089 94.4929 119.042 93.9893 118.883C93.4856 118.724 93.023 118.457 92.6339 118.1L81.3324 124.186L81.9241 117.544L92.5656 112.783C93.2088 112.17 94.0549 111.813 94.9435 111.782C95.8321 111.75 96.7014 112.045 97.3868 112.611C98.0721 113.178 98.5259 113.975 98.6621 114.854C98.7983 115.732 98.6074 116.63 98.1257 117.377Z" fill="#A0616A"/>
<path d="M54.7524 118.221L73.0975 121.321L89.5376 113.563L92.0336 118.898L74.0365 130.356C74.0365 130.356 54.9831 131.649 50.5779 126.627C48.926 124.744 48.7372 123.029 49.1464 121.622C49.5049 120.469 50.2727 119.487 51.3052 118.861C52.3377 118.235 53.5637 118.007 54.7524 118.221Z" fill="#EC5757"/>
<path d="M53.7873 111.416C53.8294 111.378 53.8622 111.331 53.883 111.279C53.9037 111.226 53.912 111.169 53.907 111.113C53.902 111.056 53.8839 111.002 53.8542 110.954C53.8245 110.906 53.784 110.865 53.7359 110.835C52.9523 110.35 52.314 109.663 51.8878 108.847C51.4617 108.03 51.2635 107.113 51.3141 106.194C51.3646 105.274 51.6621 104.385 52.1753 103.619C52.6884 102.854 53.3982 102.241 54.2302 101.845C56.8243 100.609 60.3395 101.571 62.2571 99.1949C62.6471 98.6866 62.9229 98.1003 63.0656 97.4758C63.2084 96.8514 63.2148 96.2035 63.0843 95.5764C62.6705 93.3326 60.983 91.6663 59.0931 90.5243C56.7715 89.1215 54.1032 88.3966 51.3905 88.4319C48.6779 88.4672 46.0294 89.2611 43.7451 90.7238C41.4607 92.1865 39.6319 94.2595 38.4658 96.7079C37.2998 99.1562 36.843 101.882 37.1474 104.577C37.3914 106.736 38.058 109.158 36.7734 110.911C35.6427 112.454 33.5085 112.743 31.6338 113.127C27.6128 113.949 23.7335 115.847 21.0048 118.911C18.276 121.975 16.8203 126.275 17.6431 130.294C18.4658 134.314 21.7664 137.846 25.8232 138.469C29.1252 138.976 32.5347 137.574 34.9595 135.277C37.3844 132.98 38.9171 129.878 39.8838 126.682C41.0313 122.888 41.4839 118.8 43.5556 115.421C45.5828 112.114 49.9515 109.743 53.3754 111.465C53.441 111.499 53.5155 111.513 53.589 111.504C53.6625 111.496 53.7316 111.465 53.7873 111.416Z" fill="#412E2E"/>
<path d="M309.481 176.696C309.958 176.458 310.378 176.119 310.71 175.702C311.042 175.285 311.279 174.8 311.403 174.281C311.527 173.763 311.537 173.224 311.43 172.701C311.323 172.179 311.103 171.686 310.785 171.258L319.287 124.231L311.354 124.127L305.45 170.63C304.766 171.212 304.319 172.024 304.193 172.912C304.068 173.801 304.273 174.705 304.77 175.453C305.267 176.2 306.021 176.74 306.889 176.969C307.757 177.198 308.68 177.101 309.481 176.696Z" fill="#FFB8B8"/>
<path d="M284.86 174.466L281.848 188.765L282.224 220.749H287.871L290.506 189.517L294.647 176.347L284.86 174.466Z" fill="#FFB8B8"/>
<path d="M303.522 175.539L300.51 189.838L300.887 221.823H306.534L309.169 190.591L313.31 177.421L303.522 175.539Z" fill="#FFB8B8"/>
<path d="M280.252 220.386L289.153 220.364L289.167 225.966L274.662 226.002C274.66 225.266 274.803 224.538 275.083 223.857C275.363 223.177 275.774 222.558 276.293 222.037C276.812 221.515 277.429 221.101 278.108 220.818C278.788 220.535 279.516 220.388 280.252 220.386Z" fill="#412E2E"/>
<path d="M299.053 220.991L307.954 220.969L307.968 226.57L293.463 226.607C293.461 225.871 293.605 225.142 293.884 224.462C294.164 223.782 294.576 223.163 295.095 222.641C295.614 222.12 296.231 221.706 296.91 221.423C297.589 221.139 298.318 220.993 299.053 220.991Z" fill="#412E2E"/>
<path d="M298.6 104.342C303.707 104.342 307.846 100.205 307.846 95.1004C307.846 89.9962 303.707 85.8584 298.6 85.8584C293.494 85.8584 289.354 89.9962 289.354 95.1004C289.354 100.205 293.494 104.342 298.6 104.342Z" fill="#FFB8B8"/>
<path d="M319.033 117.959C316.22 113.547 307.388 103.083 294.245 109.089C293.209 109.568 292.345 110.352 291.769 111.336C291.192 112.32 290.931 113.457 291.02 114.594C291.656 122.985 292.458 144.364 285.612 157.157C285.612 157.157 305.565 163.177 316.482 157.533C316.482 157.533 312.717 132.321 316.482 127.43C317.737 125.866 318.754 124.126 319.498 122.265C319.76 121.56 319.854 120.804 319.773 120.057C319.693 119.31 319.439 118.592 319.033 117.959Z" fill="#563D3D"/>
<path d="M315.352 117.646L319.047 119.185C319.293 119.288 319.504 119.458 319.657 119.677C319.809 119.895 319.896 120.152 319.907 120.418L320.246 128.559L311.964 127.806L315.352 117.646Z" fill="#563D3D"/>
<path d="M287.118 156.404C287.118 156.404 278.836 171.832 280.342 186.131L292.012 188.013L300.294 168.069L298.412 188.389L310.459 188.765C310.459 188.765 318.364 159.415 315.729 156.781L287.118 156.404Z" fill="#412E2E"/>
<path d="M275.355 157.781C275.883 157.701 276.386 157.506 276.829 157.21C277.273 156.914 277.646 156.524 277.923 156.068C278.199 155.612 278.373 155.102 278.431 154.572C278.488 154.042 278.429 153.505 278.257 153.001L295.058 121.344L287.535 118.825L273.368 150.776C272.539 151.121 271.865 151.758 271.474 152.566C271.084 153.374 271.004 154.298 271.249 155.161C271.494 156.025 272.047 156.768 272.804 157.251C273.561 157.734 274.469 157.923 275.355 157.781Z" fill="#FFB8B8"/>
<path d="M297.352 112.774L294.24 111.382C294.24 111.382 291.602 109.747 289.263 113.345C286.924 116.942 284.398 124.826 284.398 124.826L294.551 127.682L297.352 112.774Z" fill="#563D3D"/>
<path d="M300.081 99.5501C300.413 98.398 300.317 96.8389 299.2 96.4031C298.618 96.1761 297.968 96.3552 297.346 96.4188C296.13 96.5382 294.912 96.2032 293.928 95.4783C292.772 94.6194 292.058 93.3065 291.38 92.0363L290.354 90.1151C290.126 89.7146 289.932 89.2958 289.773 88.8632C289.202 87.1671 289.822 85.2036 291.09 83.9407C292.415 82.7082 294.16 82.0247 295.97 82.0283C297.766 82.0412 299.54 82.4212 301.184 83.1449C304.106 84.3353 306.752 86.1123 308.959 88.3659C310.402 89.841 311.715 91.7627 311.414 93.8033C311.179 95.3918 310.021 96.6637 308.916 97.8294L304.909 102.058C304.199 102.807 303.441 103.586 302.45 103.874C301.459 104.162 300.182 103.739 299.912 102.743C299.912 102.743 299.749 100.702 300.081 99.5501Z" fill="#412E2E"/>
<path d="M355.481 226.714H1.23364C1.13379 226.714 1.03804 226.675 0.967439 226.604C0.89684 226.534 0.857178 226.438 0.857178 226.338C0.857178 226.238 0.89684 226.143 0.967439 226.072C1.03804 226.002 1.13379 225.962 1.23364 225.962H355.481C355.581 225.962 355.676 226.002 355.747 226.072C355.818 226.143 355.857 226.238 355.857 226.338C355.857 226.438 355.818 226.534 355.747 226.604C355.676 226.675 355.581 226.714 355.481 226.714Z" fill="#563D3D"/>
<path d="M239.545 111.408H229.004C228.705 111.408 228.417 111.289 228.206 111.077C227.994 110.866 227.875 110.579 227.875 110.279C227.875 109.98 227.994 109.693 228.206 109.481C228.417 109.269 228.705 109.15 229.004 109.15H239.545C239.844 109.15 240.132 109.269 240.344 109.481C240.555 109.693 240.674 109.98 240.674 110.279C240.674 110.579 240.555 110.866 240.344 111.077C240.132 111.289 239.844 111.408 239.545 111.408Z" fill="#EC5757"/>
<path d="M239.545 106.517H229.004C228.705 106.517 228.417 106.398 228.206 106.186C227.994 105.974 227.875 105.687 227.875 105.388C227.875 105.088 227.994 104.801 228.206 104.589C228.417 104.378 228.705 104.259 229.004 104.259H239.545C239.844 104.259 240.132 104.378 240.344 104.589C240.555 104.801 240.674 105.088 240.674 105.388C240.674 105.687 240.555 105.974 240.344 106.186C240.132 106.398 239.844 106.517 239.545 106.517Z" fill="#EC5757"/>
<path d="M239.545 101.625H229.004C228.705 101.625 228.417 101.506 228.206 101.294C227.994 101.083 227.875 100.795 227.875 100.496C227.875 100.197 227.994 99.9095 228.206 99.6978C228.417 99.4861 228.705 99.3672 229.004 99.3672H239.545C239.844 99.3672 240.132 99.4861 240.344 99.6978C240.555 99.9095 240.674 100.197 240.674 100.496C240.674 100.795 240.555 101.083 240.344 101.294C240.132 101.506 239.844 101.625 239.545 101.625Z" fill="#EC5757"/>
</g>
<defs>
<clipPath id="clip0_344_10382">
<rect width="355" height="226.429" fill="white" transform="translate(0.857178 0.285645)"/>
</clipPath>
</defs>
</svg>
