<svg width="118" height="117" viewBox="0 0 118 117" fill="none" xmlns="http://www.w3.org/2000/svg">
<path d="M75.6725 94.3526C67.0683 94.3605 58.4641 94.3684 49.8599 94.3762C47.1711 94.3786 44.4822 94.3804 41.6887 94.3143C41.3951 94.2325 41.2062 94.2187 41.0174 94.2049C39.4917 93.4679 37.8809 92.8046 37.1822 91.0888C36.8523 90.2786 36.5814 89.4068 36.5013 88.5428C36.4153 87.6156 36.4777 86.6412 36.678 85.732C36.8259 85.0607 37.2521 84.4306 37.6386 83.837C38.1482 83.0544 38.7637 82.3416 39.2901 81.5691C39.8044 80.8143 40.2356 80.0027 40.7539 79.2509C41.6537 77.9457 42.6044 76.6757 43.5098 75.3744C43.9898 74.6846 44.431 73.9668 44.8689 73.2489C45.3193 72.5107 45.7359 71.752 46.1822 71.0114C47.1529 69.4007 48.0625 67.7472 49.1263 66.2001C50.6441 63.9928 51.2292 61.4907 51.7301 58.7784C51.7917 58.5715 51.8518 58.5181 51.852 58.4645C51.8661 54.409 51.8798 50.3535 51.8686 46.2981C51.8682 46.1492 51.6216 46.0011 51.4897 45.8526C51.4897 45.8526 51.5066 45.8518 51.5139 45.794C51.4411 45.7092 51.3611 45.6822 51.2811 45.6551C50.0488 44.4603 49.7458 43.0119 50.4298 41.4903C50.8794 40.4902 51.8574 39.932 53.0295 39.6424C57.1367 39.7223 61.1211 39.7454 65.1055 39.7574C65.2028 39.7577 65.3005 39.6348 65.398 39.5693C68.3842 40.6531 69.0319 43.7708 66.7991 45.7981C66.583 45.9401 66.5128 46.0748 66.4426 46.2095C66.5435 46.162 66.6445 46.1146 66.7454 46.0671C66.7578 46.1937 66.7702 46.3204 66.704 46.4176C66.5317 46.6264 66.438 46.8645 66.3443 47.1026C66.4859 47.3401 66.736 47.5715 66.7498 47.8161C66.8022 48.7467 66.7782 49.6815 66.7075 50.5933C66.536 50.8038 66.3581 51.0351 66.3561 51.2679C66.3369 53.5965 66.3432 55.9253 66.3555 58.2541C66.3564 58.4217 66.461 58.5889 66.5174 58.7563C66.727 60.9763 67.4528 63.077 68.4324 65.0247C69.6696 67.4847 71.1557 69.8274 72.6453 72.1497C73.7208 73.8265 75.016 75.3609 76.1405 77.0084C77.0448 78.3332 77.8126 79.7505 78.6918 81.0934C79.5334 82.3788 80.6476 83.5302 81.255 84.9107C81.7623 86.0636 81.9605 87.4841 81.8523 88.7482C81.6402 91.226 80.1343 92.8934 77.8535 93.8606C77.6846 93.9322 77.5425 94.0671 77.2463 94.1761C77.0545 94.1802 77.0042 94.1808 76.9538 94.1814C76.9538 94.1814 76.8961 94.1927 76.8108 94.152C76.3746 94.1917 76.0235 94.2722 75.6725 94.3526ZM53.3326 42.2542C53.2728 42.2891 53.2405 42.3411 53.121 42.4854C52.447 43.1138 53.1034 43.4746 53.492 44.0484C53.646 44.0779 53.8 44.1329 53.954 44.1331C57.3689 44.1379 60.7838 44.1397 64.1986 44.1291C64.4009 44.1285 64.6028 44.0195 64.9055 43.8743C65.3456 43.4152 65.9804 42.9695 64.9836 42.3155C64.9264 42.2889 64.8693 42.2623 64.825 42.2352C64.825 42.2352 64.8242 42.2481 64.8072 42.0936C64.6122 42.0169 64.4174 41.8742 64.222 41.8733C60.8313 41.8584 57.4405 41.8539 54.0499 41.8763C53.8367 41.8777 53.6251 42.1183 53.4118 42.2343C53.4118 42.2343 53.4252 42.2336 53.3326 42.2542ZM63.824 46.4839C60.8006 46.4573 57.7772 46.4279 54.7537 46.4134C54.6212 46.4128 54.488 46.5484 54.3613 46.6062C54.3613 46.6062 54.3757 46.6122 54.2326 46.6588C54.1521 46.9481 54.006 47.2362 54.0009 47.5268C53.9221 51.9879 53.8597 56.4493 53.8064 60.9108C53.8048 61.0416 53.9442 61.1741 54.0044 61.4519C53.5623 62.7849 53.1235 64.1189 52.6757 65.45C52.5655 65.7776 52.4634 66.1164 52.2943 66.4141C51.4029 67.9832 50.5211 69.5589 49.5776 71.0966C48.7808 72.3952 47.9219 73.6569 47.0591 74.9134C45.7847 76.7695 44.4638 78.5938 43.1987 80.456C42.346 81.7112 41.5706 83.0185 40.7324 84.2838C40.0502 85.3136 39.0368 86.1705 39.0637 87.556C39.0856 88.688 39.062 89.8578 40.0601 90.657C41.0502 91.4497 42.1453 91.9031 43.4802 91.8986C53.624 91.8642 63.768 91.8652 73.9119 91.8888C75.7166 91.893 77.3156 91.6532 78.526 90.0786C79.2192 89.1768 79.5361 87.016 78.8784 86.0869C77.8481 84.6312 76.8237 83.1707 75.8278 81.6914C75.3101 80.9223 74.8926 80.0851 74.3672 79.3217C73.9083 78.655 73.3114 78.082 72.8649 77.4084C72.0256 76.1421 71.4215 74.6753 70.4081 73.5801C69.0008 72.0594 68.3003 70.1588 67.2092 68.4781C66.4211 67.2641 65.9865 65.8258 65.3314 64.519C64.5705 63.0012 64.1242 61.4174 64.1791 59.598C64.2016 59.5062 64.2438 59.4143 64.2438 59.3225C64.2456 55.3291 64.2486 51.3357 64.2304 47.3424C64.2292 47.0897 64.0586 46.8378 63.824 46.4839Z" fill="#EC5757"/>
<path d="M61.6774 34.6657C60.4342 36.9657 57.519 36.4637 56.4074 34.5072C55.4224 32.7737 56.7257 30.4175 58.7348 30.2455C60.938 30.0568 62.4891 31.4532 62.1638 33.9272C62.1317 34.1716 61.8805 34.3871 61.6774 34.6657Z" fill="#EC5757"/>
<path d="M55.0258 21.5049C56.8557 21.555 57.9611 22.4488 58.1454 23.6849C58.2798 24.5865 57.7595 25.7464 56.9103 26.2514C55.8727 26.8685 54.9515 26.6338 54.0079 26.1249C52.5931 25.3618 53.2064 24.137 53.3029 23.2227C53.3678 22.6072 54.3703 22.0906 55.0258 21.5049Z" fill="#EC5757"/>
<path d="M51.4946 45.9414C51.6215 46.0011 51.8681 46.1492 51.8686 46.2981C51.8797 50.3535 51.8661 54.409 51.852 58.4644C51.8518 58.5181 51.7916 58.5715 51.7291 58.6985C51.6369 58.4922 51.5221 58.2127 51.521 57.9328C51.5048 53.9653 51.5041 49.9977 51.4946 45.9414Z" fill="#EC5757"/>
<path d="M65.3256 39.5329C65.3006 39.6347 65.2029 39.7577 65.1056 39.7574C61.1212 39.7453 57.1368 39.7222 53.0996 39.6419C53.2479 39.5159 53.4487 39.3907 53.65 39.39C57.4039 39.3768 61.1578 39.3773 64.9118 39.3818C65.0256 39.3819 65.1394 39.4566 65.3256 39.5329Z" fill="#7D7D7D"/>
<path d="M66.5583 58.6879C66.4611 58.5894 66.3565 58.4222 66.3556 58.2546C66.3433 55.9258 66.337 53.597 66.3562 51.2684C66.3582 51.0356 66.5361 50.8043 66.6902 50.667C66.7456 53.0194 66.7493 55.2771 66.7344 57.5347C66.732 57.8964 66.6462 58.2576 66.5583 58.6879Z" fill="#EC5757"/>
<path d="M75.7485 94.3603C76.0236 94.2727 76.3746 94.1923 76.7817 94.1562C76.5 94.2562 76.1623 94.3118 75.7485 94.3603Z" fill="#494949"/>
<path d="M41.0649 94.2478C41.2062 94.2186 41.3951 94.2324 41.6001 94.3028C41.4483 94.3365 41.2804 94.3136 41.0649 94.2478Z" fill="#494949"/>
<path d="M66.408 47.2C66.438 46.8645 66.5317 46.6264 66.6864 46.4795C66.6555 46.8129 66.5636 47.0551 66.408 47.2Z" fill="#CBCBCB"/>
<path d="M66.7454 46.0027C66.6445 46.1143 66.5436 46.1618 66.4426 46.2093C66.5129 46.0746 66.5831 45.9399 66.7453 45.8271C66.8066 45.8789 66.776 45.9088 66.7454 46.0027Z" fill="#B2B2B2"/>
<path d="M51.3042 45.7048C51.3611 45.6822 51.4411 45.7092 51.5142 45.8025C51.4473 45.8306 51.3873 45.7925 51.3042 45.7048Z" fill="#B2B2B2"/>
<path d="M76.9861 94.2153C77.0041 94.181 77.0545 94.1804 77.1805 94.1822C77.1769 94.206 77.0976 94.2275 76.9861 94.2153Z" fill="#494949"/>
<path d="M54.3041 46.6357C54.3782 50.8337 54.3907 55.055 54.3724 59.2762C54.3696 59.9207 54.2237 60.5646 54.0809 61.2574C53.9442 61.1744 53.8048 61.0419 53.8064 60.9111C53.8597 56.4496 53.9221 51.9882 54.0009 47.5271C54.006 47.2364 54.1521 46.9483 54.3041 46.6357Z" fill="#EC5757"/>
<path d="M64.1311 59.6594C64.0121 59.3609 63.8812 59.0016 63.8797 58.6418C63.8635 54.7611 63.8677 50.8804 63.8897 46.8514C63.9311 46.664 63.949 46.625 63.9669 46.5859C64.0587 46.8382 64.2293 47.09 64.2305 47.3427C64.2488 51.336 64.2458 55.3294 64.244 59.3228C64.2439 59.4147 64.2017 59.5065 64.1311 59.6594Z" fill="#EC5757"/>
<path d="M64.8157 42.1714C61.0798 42.2478 57.3355 42.247 53.502 42.2471C53.625 42.1188 53.8366 41.8782 54.0498 41.8768C57.4404 41.8544 60.8313 41.8589 64.222 41.8738C64.4174 41.8747 64.6121 42.0174 64.8157 42.1714Z" fill="#7D7D7D"/>
<path d="M53.4495 43.9774C57.1477 43.923 60.8886 43.9395 64.7172 43.9585C64.6029 44.0195 64.401 44.1285 64.1987 44.1291C60.7839 44.1397 57.369 44.138 53.9541 44.1331C53.8001 44.1329 53.6461 44.0779 53.4495 43.9774Z" fill="#B2B2B2"/>
<path d="M63.8956 46.5354C63.9491 46.6253 63.9311 46.6643 63.8915 46.7641C63.5096 46.753 63.1499 46.6211 62.7894 46.6189C60.038 46.6023 57.2863 46.6109 54.4451 46.6164C54.4882 46.549 54.6214 46.4134 54.7539 46.4141C57.7774 46.4285 60.8008 46.4579 63.8956 46.5354Z" fill="#7D7D7D"/>
<path d="M64.9946 42.3645C64.9514 42.3847 64.8973 42.3558 64.8276 42.2813C64.8693 42.2623 64.9265 42.2889 64.9946 42.3645Z" fill="#7D7D7D"/>
<path d="M53.3789 42.2441C53.4149 42.2998 53.3823 42.3517 53.2816 42.4001C53.2406 42.3413 53.2729 42.2894 53.3789 42.2441Z" fill="#7D7D7D"/>
<path d="M49.8354 90.5272C47.3429 90.4764 44.8497 90.4458 42.3581 90.3661C41.0899 90.3256 39.9291 88.724 40.3952 87.5563C40.8248 86.4799 41.4095 85.4495 42.0401 84.4727C43.2682 82.5706 44.4945 80.656 45.8878 78.8768C46.5264 78.0613 46.6469 76.8341 47.8373 76.4214C48.7181 76.116 49.8316 76.318 50.5526 76.9077C52.45 78.4597 54.5775 79.0953 57.0462 78.538C59.3411 78.0201 61.1511 76.833 62.7993 75.172C65.2666 72.6855 67.9735 73.3051 69.7946 75.2806C70.4215 75.9608 70.7913 76.8714 71.3296 77.6411C73.3013 80.4603 75.299 83.2612 77.277 86.0759C77.9368 87.015 78.1519 88.0742 77.6065 89.0951C77.1722 89.9079 76.4556 90.4992 75.2402 90.4021C66.8606 90.3909 58.6481 90.3803 50.4355 90.3784C50.2355 90.3783 50.0354 90.4754 49.8354 90.5272Z" fill="#EC5757"/>
<path d="M58.7231 69.0805C60.3136 71.0514 59.854 71.863 58.4581 73.4287C57.747 74.2263 55.8884 74.2412 54.9086 73.6331C53.985 73.0598 53.2831 71.4399 53.602 70.4323C54.3354 68.1146 56.4726 67.488 58.7231 69.0805Z" fill="#EC5757"/>
<path d="M61.7919 61.648C62.4138 62.483 62.5413 63.5029 61.966 64.2524C61.5467 64.7987 60.6403 65.1308 59.9064 65.2311C59.1607 65.3331 58.5548 64.8483 58.2549 64.0226C57.9676 63.2315 57.9423 62.5139 58.4218 61.7181C59.5995 60.9774 60.6948 61.0179 61.7919 61.648Z" fill="#EC5757"/>
<path d="M59.2676 55.135C58.5206 55.6891 57.7413 55.7573 57.1752 55.1464C56.6652 54.5961 56.8321 53.8318 57.318 53.2824C57.5345 53.0378 57.965 52.8877 58.3078 52.8691C59.0713 52.8275 59.3783 53.4784 59.591 54.0361C59.6961 54.3117 59.4246 54.7309 59.2676 55.135Z" fill="#EC5757"/>
<path d="M49.9216 90.5375C50.0354 90.476 50.2355 90.3789 50.4355 90.3789C58.648 90.3808 66.8606 90.3915 75.1585 90.3883C74.8834 90.4337 74.523 90.5421 74.1625 90.5425C66.111 90.5513 58.0594 90.5481 49.9216 90.5375Z" fill="#CBCBCB"/>
<path d="M61.7941 61.5727C60.6949 61.0186 59.5996 60.978 58.4348 61.6464C58.3806 61.5154 58.3538 61.3523 58.4221 61.2835C59.0968 60.6036 61.1711 60.7428 61.7941 61.5727Z" fill="#7D7D7D"/>
</svg>
