<svg width="13" height="14" viewBox="0 0 13 14" fill="none" xmlns="http://www.w3.org/2000/svg">
<path d="M2.28516 6.85814C2.28516 7.00022 2.3416 7.13649 2.44206 7.23695C2.54253 7.33742 2.67879 7.39386 2.82087 7.39386H6.88696L5.65481 8.62065C5.6046 8.67045 5.56475 8.7297 5.53755 8.79499C5.51035 8.86027 5.49635 8.93029 5.49635 9.00101C5.49635 9.07173 5.51035 9.14175 5.53755 9.20703C5.56475 9.27232 5.6046 9.33157 5.65481 9.38137C5.70462 9.43158 5.76387 9.47144 5.82915 9.49863C5.89443 9.52583 5.96445 9.53983 6.03517 9.53983C6.10589 9.53983 6.17592 9.52583 6.2412 9.49863C6.30648 9.47144 6.36573 9.43158 6.41553 9.38137L8.5584 7.2385C8.60717 7.18755 8.6454 7.12748 8.6709 7.06172C8.72448 6.93129 8.72448 6.785 8.6709 6.65457C8.6454 6.58881 8.60717 6.52873 8.5584 6.47778L6.41553 4.33492C6.36558 4.28497 6.30628 4.24535 6.24102 4.21831C6.17576 4.19128 6.10581 4.17737 6.03517 4.17737C5.96453 4.17737 5.89459 4.19128 5.82932 4.21831C5.76406 4.24535 5.70476 4.28497 5.65481 4.33492C5.60486 4.38487 5.56524 4.44417 5.53821 4.50943C5.51118 4.57469 5.49726 4.64464 5.49726 4.71528C5.49726 4.78592 5.51118 4.85586 5.53821 4.92113C5.56524 4.98639 5.60486 5.04569 5.65481 5.09564L6.88696 6.32243H2.82087C2.67879 6.32243 2.54253 6.37887 2.44206 6.47933C2.3416 6.5798 2.28516 6.71606 2.28516 6.85814ZM9.24947 1.50098H3.89231C3.46606 1.50098 3.05728 1.6703 2.75588 1.9717C2.45448 2.2731 2.28516 2.68188 2.28516 3.10813V4.71528C2.28516 4.85736 2.3416 4.99362 2.44206 5.09409C2.54253 5.19455 2.67879 5.25099 2.82087 5.25099C2.96295 5.25099 3.09922 5.19455 3.19968 5.09409C3.30015 4.99362 3.35659 4.85736 3.35659 4.71528V3.10813C3.35659 2.96605 3.41303 2.82978 3.5135 2.72932C3.61396 2.62885 3.75023 2.57241 3.89231 2.57241H9.24947C9.39155 2.57241 9.52782 2.62885 9.62828 2.72932C9.72875 2.82978 9.78519 2.96605 9.78519 3.10813V10.6082C9.78519 10.7502 9.72875 10.8865 9.62828 10.987C9.52782 11.0874 9.39155 11.1439 9.24947 11.1439H3.89231C3.75023 11.1439 3.61396 11.0874 3.5135 10.987C3.41303 10.8865 3.35659 10.7502 3.35659 10.6082V9.00101C3.35659 8.85893 3.30015 8.72267 3.19968 8.6222C3.09922 8.52173 2.96295 8.46529 2.82087 8.46529C2.67879 8.46529 2.54253 8.52173 2.44206 8.6222C2.3416 8.72267 2.28516 8.85893 2.28516 9.00101V10.6082C2.28516 11.0344 2.45448 11.4432 2.75588 11.7446C3.05728 12.046 3.46606 12.2153 3.89231 12.2153H9.24947C9.67572 12.2153 10.0845 12.046 10.3859 11.7446C10.6873 11.4432 10.8566 11.0344 10.8566 10.6082V3.10813C10.8566 2.68188 10.6873 2.2731 10.3859 1.9717C10.0845 1.6703 9.67572 1.50098 9.24947 1.50098Z" fill="#D1110B"/>
</svg>
