<svg width="13" height="14" viewBox="0 0 13 14" fill="none" xmlns="http://www.w3.org/2000/svg">
<path d="M5.35437 9.90899C5.33478 9.98683 4.8451 11.8205 2.15162 11.8205C2.04506 11.8205 1.94286 11.7782 1.86751 11.7028C1.79216 11.6275 1.74983 11.5253 1.74983 11.4187C1.74983 8.72522 3.58349 8.23554 3.66133 8.21596C3.76477 8.19011 3.87422 8.20642 3.96563 8.26128C4.05704 8.31615 4.12291 8.40508 4.14875 8.50851C4.17459 8.61194 4.15829 8.7214 4.10343 8.81281C4.04856 8.90421 3.95963 8.97008 3.8562 8.99593C3.811 9.00848 2.73019 9.32439 2.57249 10.9978C4.24594 10.8401 4.56234 9.76133 4.5754 9.71111C4.60204 9.60781 4.66863 9.51933 4.7605 9.46512C4.85238 9.41092 4.96203 9.39543 5.06533 9.42207C5.16863 9.44871 5.25711 9.5153 5.31132 9.60718C5.36552 9.69905 5.38101 9.8087 5.35437 9.912V9.90899ZM10.0251 6.52393L9.78558 6.76349V9.69303C9.78618 9.79896 9.76571 9.90395 9.72535 10.0019C9.685 10.0998 9.62558 10.1888 9.55054 10.2636L7.82687 11.9862C7.75254 12.0611 7.66412 12.1205 7.56671 12.161C7.4693 12.2015 7.36484 12.2223 7.25934 12.2223C7.17228 12.2223 7.08578 12.2082 7.0032 12.1806C6.86142 12.1337 6.73558 12.0481 6.6399 11.9334C6.54423 11.8187 6.48253 11.6796 6.46179 11.5317L6.19209 9.59861L3.97172 7.37823L2.03962 7.10853C1.89153 7.08776 1.75218 7.02608 1.63723 6.93043C1.52229 6.83478 1.43631 6.70896 1.38898 6.56711C1.34164 6.42526 1.33483 6.27302 1.3693 6.12751C1.40377 5.982 1.47816 5.84899 1.58409 5.74346L3.30676 4.01979C3.38153 3.94475 3.47048 3.88532 3.56842 3.84497C3.66637 3.80462 3.77136 3.78415 3.8773 3.78474H6.80683L7.04639 3.54518C8.38636 2.20572 10.001 2.14796 10.6328 2.18563C10.8288 2.19753 11.0135 2.28073 11.1523 2.41951C11.2911 2.55829 11.3743 2.74307 11.3862 2.93898C11.4229 3.56928 11.3651 5.18397 10.0256 6.52393H10.0251ZM2.15162 6.31299L4.01742 6.57315L6.00325 4.58832H3.8773L2.15162 6.31299ZM4.72908 6.99904L6.57128 8.84124L9.45662 5.9559C9.84546 5.56968 10.1471 5.1047 10.3413 4.59222C10.5356 4.07973 10.6178 3.53161 10.5826 2.98468C10.036 2.95078 9.48841 3.03392 8.97647 3.22853C8.46453 3.42314 8 3.72474 7.61392 4.1132L4.72908 6.99904ZM8.98201 7.56707L6.99667 9.5524L7.25783 11.4187L8.98201 9.69303V7.56707Z" fill="#818187"/>
</svg>
