<svg width="13" height="14" viewBox="0 0 13 14" fill="none" xmlns="http://www.w3.org/2000/svg">
<path d="M5.28259 9.91045C5.263 9.9883 4.77332 11.822 2.07984 11.822C1.97328 11.822 1.87108 11.7796 1.79573 11.7043C1.72038 11.6289 1.67805 11.5267 1.67805 11.4202C1.67805 8.72669 3.51171 8.23701 3.58956 8.21742C3.69299 8.19158 3.80245 8.20788 3.89386 8.26275C3.98526 8.31761 4.05114 8.40654 4.07698 8.50997C4.10282 8.6134 4.08651 8.72286 4.03165 8.81427C3.97678 8.90568 3.88786 8.97155 3.78442 8.99739C3.73922 9.00995 2.65842 9.32585 2.50071 10.9993C4.17416 10.8416 4.49057 9.7628 4.50362 9.71257C4.53026 9.60927 4.59685 9.52079 4.68873 9.46659C4.78061 9.41238 4.89026 9.3969 4.99355 9.42354C5.09685 9.45018 5.18533 9.51676 5.23954 9.60864C5.29374 9.70052 5.30923 9.81017 5.28259 9.91347V9.91045ZM9.95337 6.52539L9.7138 6.76496V9.69449C9.7144 9.80042 9.69393 9.90542 9.65358 10.0034C9.61322 10.1013 9.5538 10.1903 9.47876 10.265L7.75509 11.9877C7.68076 12.0626 7.59234 12.122 7.49493 12.1625C7.39753 12.203 7.29306 12.2238 7.18756 12.2237C7.1005 12.2237 7.01401 12.2096 6.93143 12.1821C6.78964 12.1352 6.6638 12.0495 6.56812 11.9349C6.47245 11.8202 6.41076 11.6811 6.39002 11.5332L6.12032 9.60007L3.89994 7.37969L1.96784 7.10999C1.81976 7.08922 1.6804 7.02754 1.56546 6.9319C1.45051 6.83625 1.36453 6.71042 1.3172 6.56857C1.26987 6.42672 1.26305 6.27448 1.29752 6.12897C1.33199 5.98346 1.40638 5.85046 1.51232 5.74492L3.23498 4.02125C3.30975 3.94621 3.3987 3.88679 3.49665 3.84643C3.59459 3.80608 3.69959 3.78561 3.80552 3.78621H6.73505L6.97462 3.54664C8.31458 2.20718 9.92926 2.14943 10.5611 2.18709C10.757 2.199 10.9418 2.28219 11.0805 2.42097C11.2193 2.55976 11.3025 2.74454 11.3144 2.94044C11.3511 3.57075 11.2933 5.18543 9.95387 6.52539H9.95337ZM2.07984 6.31445L3.94564 6.57461L5.93148 4.58978H3.80552L2.07984 6.31445ZM4.65731 7.00051L6.4995 8.8427L9.38484 5.95737C9.77368 5.57115 10.0753 5.10617 10.2696 4.59368C10.4638 4.08119 10.5461 3.53307 10.5108 2.98615C9.96421 2.95225 9.41664 3.03538 8.90469 3.22999C8.39275 3.4246 7.92822 3.72621 7.54214 4.11467L4.65731 7.00051ZM8.91023 7.56853L6.9249 9.55387L7.18606 11.4202L8.91023 9.69449V7.56853Z" fill="#FF0000"/>
</svg>
