<svg width="13" height="14" viewBox="0 0 13 14" fill="none" xmlns="http://www.w3.org/2000/svg">
<path d="M5.35424 9.90923C5.33466 9.98708 4.84498 11.8207 2.1515 11.8207C2.04494 11.8207 1.94274 11.7784 1.86739 11.7031C1.79204 11.6277 1.74971 11.5255 1.74971 11.4189C1.74971 8.72547 3.58337 8.23579 3.66121 8.2162C3.76464 8.19036 3.8741 8.20666 3.96551 8.26153C4.05692 8.31639 4.12279 8.40532 4.14863 8.50875C4.17447 8.61218 4.15817 8.72164 4.1033 8.81305C4.04844 8.90446 3.95951 8.97033 3.85608 8.99617C3.81088 9.00873 2.73007 9.32463 2.57237 10.9981C4.24581 10.8404 4.56222 9.76157 4.57528 9.71135C4.60192 9.60805 4.6685 9.51957 4.76038 9.46537C4.85226 9.41116 4.96191 9.39568 5.06521 9.42232C5.16851 9.44896 5.25699 9.51554 5.31119 9.60742C5.3654 9.6993 5.38088 9.80895 5.35424 9.91225V9.90923ZM10.025 6.52417L9.78546 6.76374V9.69327C9.78606 9.7992 9.76558 9.9042 9.72523 10.0021C9.68488 10.1001 9.62545 10.189 9.55041 10.2638L7.82674 11.9865C7.75241 12.0613 7.66399 12.1207 7.56659 12.1613C7.46918 12.2018 7.36472 12.2226 7.25922 12.2225C7.17215 12.2225 7.08566 12.2084 7.00308 12.1808C6.8613 12.1339 6.73545 12.0483 6.63978 11.9337C6.5441 11.819 6.48241 11.6798 6.46167 11.532L6.19197 9.59885L3.97159 7.37847L2.0395 7.10877C1.89141 7.088 1.75206 7.02632 1.63711 6.93067C1.52217 6.83502 1.43619 6.7092 1.38886 6.56735C1.34152 6.4255 1.3347 6.27326 1.36917 6.12775C1.40364 5.98224 1.47803 5.84924 1.58397 5.7437L3.30664 4.02003C3.38141 3.94499 3.47035 3.88557 3.5683 3.84521C3.66625 3.80486 3.77124 3.78439 3.87717 3.78499H6.80671L7.04627 3.54542C8.38623 2.20596 10.0009 2.1482 10.6327 2.18587C10.8286 2.19778 11.0134 2.28097 11.1522 2.41975C11.291 2.55854 11.3742 2.74332 11.3861 2.93922C11.4227 3.56953 11.365 5.18421 10.0255 6.52417H10.025ZM2.1515 6.31323L4.0173 6.57339L6.00313 4.58856H3.87717L2.1515 6.31323ZM4.72896 6.99929L6.57116 8.84148L9.45649 5.95615C9.84534 5.56993 10.147 5.10495 10.3412 4.59246C10.5354 4.07997 10.6177 3.53185 10.5825 2.98493C10.0359 2.95103 9.48829 3.03416 8.97635 3.22877C8.4644 3.42338 7.99988 3.72499 7.6138 4.11345L4.72896 6.99929ZM8.98188 7.56731L6.99655 9.55265L7.25771 11.4189L8.98188 9.69327V7.56731Z" fill="#818187"/>
</svg>
