<svg width="13" height="14" viewBox="0 0 13 14" fill="none" xmlns="http://www.w3.org/2000/svg">
<path d="M5.35424 9.91045C5.33466 9.9883 4.84498 11.822 2.1515 11.822C2.04494 11.822 1.94274 11.7796 1.86739 11.7043C1.79204 11.6289 1.74971 11.5267 1.74971 11.4202C1.74971 8.72669 3.58337 8.23701 3.66121 8.21742C3.76464 8.19158 3.8741 8.20788 3.96551 8.26275C4.05692 8.31761 4.12279 8.40654 4.14863 8.50997C4.17447 8.6134 4.15817 8.72286 4.1033 8.81427C4.04844 8.90568 3.95951 8.97155 3.85608 8.99739C3.81088 9.00995 2.73007 9.32585 2.57237 10.9993C4.24581 10.8416 4.56222 9.7628 4.57528 9.71257C4.60192 9.60927 4.6685 9.52079 4.76038 9.46659C4.85226 9.41238 4.96191 9.3969 5.06521 9.42354C5.16851 9.45018 5.25699 9.51676 5.31119 9.60864C5.3654 9.70052 5.38088 9.81017 5.35424 9.91347V9.91045ZM10.025 6.52539L9.78546 6.76496V9.69449C9.78606 9.80042 9.76558 9.90542 9.72523 10.0034C9.68488 10.1013 9.62545 10.1903 9.55041 10.265L7.82674 11.9877C7.75241 12.0626 7.66399 12.122 7.56659 12.1625C7.46918 12.203 7.36472 12.2238 7.25922 12.2237C7.17215 12.2237 7.08566 12.2096 7.00308 12.1821C6.8613 12.1352 6.73545 12.0495 6.63978 11.9349C6.5441 11.8202 6.48241 11.6811 6.46167 11.5332L6.19197 9.60007L3.97159 7.37969L2.0395 7.10999C1.89141 7.08922 1.75206 7.02754 1.63711 6.9319C1.52217 6.83625 1.43619 6.71042 1.38886 6.56857C1.34152 6.42672 1.3347 6.27448 1.36917 6.12897C1.40364 5.98346 1.47803 5.85046 1.58397 5.74492L3.30664 4.02125C3.38141 3.94621 3.47035 3.88679 3.5683 3.84643C3.66625 3.80608 3.77124 3.78561 3.87717 3.78621H6.80671L7.04627 3.54664C8.38623 2.20718 10.0009 2.14943 10.6327 2.18709C10.8286 2.199 11.0134 2.28219 11.1522 2.42097C11.291 2.55976 11.3742 2.74454 11.3861 2.94044C11.4227 3.57075 11.365 5.18543 10.0255 6.52539H10.025ZM2.1515 6.31445L4.0173 6.57461L6.00313 4.58978H3.87717L2.1515 6.31445ZM4.72896 7.00051L6.57116 8.8427L9.45649 5.95737C9.84534 5.57115 10.147 5.10617 10.3412 4.59368C10.5354 4.08119 10.6177 3.53307 10.5825 2.98615C10.0359 2.95225 9.48829 3.03538 8.97635 3.22999C8.4644 3.4246 7.99988 3.72621 7.6138 4.11467L4.72896 7.00051ZM8.98188 7.56853L6.99655 9.55387L7.25771 11.4202L8.98188 9.69449V7.56853Z" fill="#818187"/>
</svg>
