<svg width="14" height="14" viewBox="0 0 14 14" fill="none" xmlns="http://www.w3.org/2000/svg">
<path d="M5.85437 9.90899C5.83478 9.98683 5.3451 11.8205 2.65162 11.8205C2.54506 11.8205 2.44286 11.7782 2.36751 11.7028C2.29216 11.6275 2.24983 11.5253 2.24983 11.4187C2.24983 8.72522 4.08349 8.23554 4.16133 8.21596C4.26477 8.19011 4.37422 8.20642 4.46563 8.26128C4.55704 8.31615 4.62291 8.40508 4.64875 8.50851C4.67459 8.61194 4.65829 8.7214 4.60343 8.81281C4.54856 8.90421 4.45963 8.97008 4.3562 8.99593C4.311 9.00848 3.23019 9.32439 3.07249 10.9978C4.74594 10.8401 5.06234 9.76133 5.0754 9.71111C5.10204 9.60781 5.16863 9.51933 5.2605 9.46512C5.35238 9.41092 5.46203 9.39543 5.56533 9.42207C5.66863 9.44871 5.75711 9.5153 5.81132 9.60718C5.86552 9.69905 5.88101 9.8087 5.85437 9.912V9.90899ZM10.5251 6.52393L10.2856 6.76349V9.69303C10.2862 9.79896 10.2657 9.90395 10.2254 10.0019C10.185 10.0998 10.1256 10.1888 10.0505 10.2636L8.32687 11.9862C8.25254 12.0611 8.16412 12.1205 8.06671 12.161C7.9693 12.2015 7.86484 12.2223 7.75934 12.2223C7.67228 12.2223 7.58578 12.2082 7.5032 12.1806C7.36142 12.1337 7.23558 12.0481 7.1399 11.9334C7.04423 11.8187 6.98253 11.6796 6.96179 11.5317L6.69209 9.59861L4.47172 7.37823L2.53962 7.10853C2.39153 7.08776 2.25218 7.02608 2.13723 6.93043C2.02229 6.83478 1.93631 6.70896 1.88898 6.56711C1.84164 6.42526 1.83483 6.27302 1.8693 6.12751C1.90377 5.982 1.97816 5.84899 2.08409 5.74346L3.80676 4.01979C3.88153 3.94475 3.97048 3.88532 4.06842 3.84497C4.16637 3.80462 4.27136 3.78415 4.3773 3.78474H7.30683L7.54639 3.54518C8.88636 2.20572 10.501 2.14796 11.1328 2.18563C11.3288 2.19753 11.5135 2.28073 11.6523 2.41951C11.7911 2.55829 11.8743 2.74307 11.8862 2.93898C11.9229 3.56928 11.8651 5.18397 10.5256 6.52393H10.5251ZM2.65162 6.31299L4.51742 6.57315L6.50325 4.58832H4.3773L2.65162 6.31299ZM5.22908 6.99904L7.07128 8.84124L9.95662 5.9559C10.3455 5.56968 10.6471 5.1047 10.8413 4.59222C11.0356 4.07973 11.1178 3.53161 11.0826 2.98468C10.536 2.95078 9.98841 3.03392 9.47647 3.22853C8.96453 3.42314 8.5 3.72474 8.11392 4.1132L5.22908 6.99904ZM9.48201 7.56707L7.49667 9.5524L7.75783 11.4187L9.48201 9.69303V7.56707Z" fill="#FF0000"/>
</svg>
