<svg width="14" height="14" viewBox="0 0 14 14" fill="none" xmlns="http://www.w3.org/2000/svg">
<path d="M12.0642 5.40111L11.0517 5.06361L11.5284 4.11003C11.5768 4.01022 11.5929 3.89787 11.5747 3.78848C11.5565 3.67909 11.5047 3.57805 11.4267 3.49931L10.2856 2.35824C10.2064 2.279 10.1044 2.22656 9.99391 2.2083C9.8834 2.19005 9.76995 2.20688 9.66951 2.25645L8.71593 2.73324L8.37843 1.72073C8.34278 1.61519 8.27513 1.52339 8.18487 1.4581C8.09461 1.39281 7.98625 1.35727 7.87485 1.35645H6.2677C6.1554 1.35616 6.04583 1.39117 5.95451 1.45654C5.86318 1.52191 5.79471 1.61433 5.75877 1.72073L5.42127 2.73324L4.4677 2.25645C4.36789 2.20812 4.25553 2.19195 4.14614 2.21018C4.03676 2.22842 3.93572 2.28015 3.85698 2.35824L2.7159 3.49931C2.63666 3.57847 2.58423 3.68048 2.56597 3.79099C2.54771 3.9015 2.56455 4.01495 2.61412 4.11539L3.0909 5.06896L2.0784 5.40647C1.97286 5.44211 1.88106 5.50977 1.81576 5.60002C1.75047 5.69028 1.71494 5.79864 1.71411 5.91004V7.51719C1.71382 7.6295 1.74884 7.73906 1.81421 7.83038C1.87958 7.92171 1.972 7.99018 2.0784 8.02612L3.0909 8.36362L2.61412 9.3172C2.56578 9.41701 2.54962 9.52936 2.56785 9.63875C2.58608 9.74814 2.63781 9.84917 2.7159 9.92791L3.85698 11.069C3.93614 11.1482 4.03815 11.2007 4.14865 11.2189C4.25916 11.2372 4.37261 11.2203 4.47305 11.1708L5.42663 10.694L5.76413 11.7065C5.80007 11.8129 5.86854 11.9053 5.95987 11.9707C6.05119 12.0361 6.16075 12.0711 6.27306 12.0708H7.88021C7.99252 12.0711 8.10208 12.0361 8.19341 11.9707C8.28473 11.9053 8.3532 11.8129 8.38914 11.7065L8.72664 10.694L9.68022 11.1708C9.77939 11.2179 9.89065 11.2334 9.99892 11.2152C10.1072 11.197 10.2073 11.1459 10.2856 11.069L11.4267 9.92791C11.5059 9.84875 11.5583 9.74675 11.5766 9.63624C11.5948 9.52573 11.578 9.41228 11.5284 9.31184L11.0517 8.35826L12.0642 8.02076C12.1697 7.98512 12.2615 7.91746 12.3268 7.8272C12.3921 7.73695 12.4276 7.62858 12.4284 7.51719V5.91004C12.4287 5.79773 12.3937 5.68817 12.3284 5.59684C12.263 5.50552 12.1706 5.43705 12.0642 5.40111ZM11.357 7.13147L10.7142 7.34576C10.5663 7.39371 10.4307 7.47325 10.3167 7.57885C10.2027 7.68445 10.113 7.8136 10.0539 7.95732C9.99474 8.10105 9.96759 8.25591 9.9743 8.41118C9.98101 8.56644 10.0214 8.71839 10.0927 8.85648L10.3981 9.4672L9.80879 10.0565L9.21415 9.73505C9.07676 9.66661 8.92628 9.62848 8.77288 9.62325C8.61948 9.61802 8.46675 9.64581 8.32503 9.70473C8.1833 9.76366 8.05589 9.85234 7.95142 9.96479C7.84695 10.0772 7.76786 10.2108 7.7195 10.3565L7.50521 10.9993H6.65342L6.43913 10.3565C6.39118 10.2087 6.31165 10.073 6.20604 9.95901C6.10044 9.845 5.9713 9.75532 5.82757 9.69619C5.68385 9.63707 5.52898 9.60993 5.37371 9.61664C5.21845 9.62335 5.0665 9.66375 4.92841 9.73505L4.3177 10.0404L3.72841 9.45113L4.04984 8.85648C4.12114 8.71839 4.16155 8.56644 4.16826 8.41118C4.17497 8.25591 4.14782 8.10105 4.0887 7.95732C4.02958 7.8136 3.9399 7.68445 3.82588 7.57885C3.71186 7.47325 3.57623 7.39371 3.42841 7.34576L2.78555 7.13147V6.29575L3.42841 6.08147C3.57623 6.03352 3.71186 5.95398 3.82588 5.84838C3.9399 5.74277 4.02958 5.61363 4.0887 5.4699C4.14782 5.32618 4.17497 5.17131 4.16826 5.01605C4.16155 4.86078 4.12114 4.70884 4.04984 4.57075L3.74448 3.9761L4.33377 3.38681L4.92841 3.69217C5.0665 3.76347 5.21845 3.80388 5.37371 3.81059C5.52898 3.8173 5.68385 3.79015 5.82757 3.73103C5.9713 3.67191 6.10044 3.58223 6.20604 3.46821C6.31165 3.35419 6.39118 3.21857 6.43913 3.07074L6.65342 2.42788H7.48914L7.70343 3.07074C7.75138 3.21857 7.83091 3.35419 7.93652 3.46821C8.04212 3.58223 8.17126 3.67191 8.31499 3.73103C8.45871 3.79015 8.61358 3.8173 8.76885 3.81059C8.92411 3.80388 9.07606 3.76347 9.21415 3.69217L9.82486 3.38681L10.4142 3.9761L10.0927 4.57075C10.0243 4.70813 9.98615 4.85861 9.98092 5.01201C9.97568 5.16541 10.0035 5.31814 10.0624 5.45987C10.1213 5.60159 10.21 5.729 10.3225 5.83347C10.4349 5.93794 10.5685 6.01704 10.7142 6.0654L11.357 6.27968V7.13147ZM7.07128 4.57075C6.64746 4.57075 6.23316 4.69642 5.88077 4.93189C5.52837 5.16735 5.25372 5.50202 5.09153 5.89357C4.92934 6.28513 4.8869 6.71599 4.96959 7.13167C5.05227 7.54734 5.25636 7.92916 5.55604 8.22885C5.85573 8.52853 6.23755 8.73262 6.65323 8.81531C7.0689 8.89799 7.49976 8.85555 7.89132 8.69336C8.28288 8.53118 8.61755 8.25652 8.85301 7.90413C9.08847 7.55173 9.21415 7.13743 9.21415 6.71361C9.21415 6.14529 8.98838 5.60024 8.58651 5.19838C8.18465 4.79651 7.6396 4.57075 7.07128 4.57075ZM7.07128 7.78505C6.85937 7.78505 6.65222 7.72221 6.47602 7.60448C6.29983 7.48675 6.1625 7.31941 6.0814 7.12363C6.00031 6.92785 5.97909 6.71242 6.02043 6.50459C6.06177 6.29675 6.16382 6.10584 6.31366 5.956C6.4635 5.80615 6.65442 5.70411 6.86225 5.66277C7.07009 5.62143 7.28552 5.64264 7.4813 5.72374C7.67708 5.80483 7.84441 5.94216 7.96214 6.11836C8.07987 6.29455 8.14271 6.5017 8.14271 6.71361C8.14271 6.99778 8.02983 7.2703 7.8289 7.47123C7.62796 7.67216 7.35544 7.78505 7.07128 7.78505Z" fill="#FF0000"/>
</svg>
