<svg width="13" height="14" viewBox="0 0 13 14" fill="none" xmlns="http://www.w3.org/2000/svg">
<path d="M11.5639 5.40111L10.5514 5.06361L11.0282 4.11003C11.0765 4.01022 11.0927 3.89787 11.0745 3.78848C11.0562 3.67909 11.0045 3.57805 10.9264 3.49931L9.78534 2.35824C9.70618 2.279 9.60417 2.22656 9.49366 2.2083C9.38315 2.19005 9.2697 2.20688 9.16926 2.25645L8.21569 2.73324L7.87818 1.72073C7.84254 1.61519 7.77488 1.52339 7.68463 1.4581C7.59437 1.39281 7.486 1.35727 7.37461 1.35645H5.76746C5.65515 1.35616 5.54559 1.39117 5.45427 1.45654C5.36294 1.52191 5.29447 1.61433 5.25853 1.72073L4.92103 2.73324L3.96745 2.25645C3.86764 2.20812 3.75529 2.19195 3.6459 2.21018C3.53651 2.22842 3.43548 2.28015 3.35674 2.35824L2.21566 3.49931C2.13642 3.57847 2.08398 3.68048 2.06573 3.79099C2.04747 3.9015 2.06431 4.01495 2.11387 4.11539L2.59066 5.06896L1.57816 5.40647C1.47262 5.44211 1.38081 5.50977 1.31552 5.60002C1.25023 5.69028 1.2147 5.79864 1.21387 5.91004V7.51719C1.21358 7.6295 1.24859 7.73906 1.31396 7.83038C1.37933 7.92171 1.47175 7.99018 1.57816 8.02612L2.59066 8.36362L2.11387 9.3172C2.06554 9.41701 2.04937 9.52936 2.06761 9.63875C2.08584 9.74814 2.13757 9.84917 2.21566 9.92791L3.35674 11.069C3.4359 11.1482 3.5379 11.2007 3.64841 11.2189C3.75892 11.2372 3.87237 11.2203 3.97281 11.1708L4.92639 10.694L5.26389 11.7065C5.29983 11.8129 5.3683 11.9053 5.45962 11.9707C5.55095 12.0361 5.66051 12.0711 5.77282 12.0708H7.37997C7.49228 12.0711 7.60184 12.0361 7.69316 11.9707C7.78449 11.9053 7.85296 11.8129 7.8889 11.7065L8.2264 10.694L9.17998 11.1708C9.27915 11.2179 9.3904 11.2334 9.49868 11.2152C9.60696 11.197 9.70702 11.1459 9.78534 11.069L10.9264 9.92791C11.0057 9.84875 11.0581 9.74675 11.0763 9.63624C11.0946 9.52573 11.0778 9.41228 11.0282 9.31184L10.5514 8.35826L11.5639 8.02076C11.6695 7.98512 11.7613 7.91746 11.8266 7.8272C11.8918 7.73695 11.9274 7.62858 11.9282 7.51719V5.91004C11.9285 5.79773 11.8935 5.68817 11.8281 5.59684C11.7627 5.50552 11.6703 5.43705 11.5639 5.40111ZM10.8568 7.13147L10.2139 7.34576C10.0661 7.39371 9.93046 7.47325 9.81644 7.57885C9.70242 7.68445 9.61274 7.8136 9.55362 7.95732C9.4945 8.10105 9.46735 8.25591 9.47406 8.41118C9.48077 8.56644 9.52118 8.71839 9.59248 8.85648L9.89784 9.4672L9.30855 10.0565L8.7139 9.73505C8.57652 9.66661 8.42604 9.62848 8.27264 9.62325C8.11924 9.61802 7.96651 9.64581 7.82478 9.70473C7.68306 9.76366 7.55565 9.85234 7.45117 9.96479C7.3467 10.0772 7.26761 10.2108 7.21925 10.3565L7.00497 10.9993H6.15318L5.93889 10.3565C5.89094 10.2087 5.8114 10.073 5.7058 9.95901C5.60019 9.845 5.47105 9.75532 5.32733 9.69619C5.1836 9.63707 5.02873 9.60993 4.87347 9.61664C4.7182 9.62335 4.56626 9.66375 4.42817 9.73505L3.81745 10.0404L3.22816 9.45113L3.54959 8.85648C3.62089 8.71839 3.6613 8.56644 3.66801 8.41118C3.67472 8.25591 3.64757 8.10105 3.58845 7.95732C3.52933 7.8136 3.43965 7.68445 3.32563 7.57885C3.21162 7.47325 3.07599 7.39371 2.92816 7.34576L2.2853 7.13147V6.29575L2.92816 6.08147C3.07599 6.03352 3.21162 5.95398 3.32563 5.84838C3.43965 5.74277 3.52933 5.61363 3.58845 5.4699C3.64757 5.32618 3.67472 5.17131 3.66801 5.01605C3.6613 4.86078 3.62089 4.70884 3.54959 4.57075L3.24424 3.9761L3.83352 3.38681L4.42817 3.69217C4.56626 3.76347 4.7182 3.80388 4.87347 3.81059C5.02873 3.8173 5.1836 3.79015 5.32733 3.73103C5.47105 3.67191 5.60019 3.58223 5.7058 3.46821C5.8114 3.35419 5.89094 3.21857 5.93889 3.07074L6.15318 2.42788H6.98889L7.20318 3.07074C7.25113 3.21857 7.33067 3.35419 7.43627 3.46821C7.54188 3.58223 7.67102 3.67191 7.81474 3.73103C7.95847 3.79015 8.11334 3.8173 8.2686 3.81059C8.42387 3.80388 8.57581 3.76347 8.7139 3.69217L9.32462 3.38681L9.91391 3.9761L9.59248 4.57075C9.52403 4.70813 9.4859 4.85861 9.48067 5.01201C9.47544 5.16541 9.50323 5.31814 9.56215 5.45987C9.62108 5.60159 9.70977 5.729 9.82221 5.83347C9.93466 5.93794 10.0682 6.01704 10.2139 6.0654L10.8568 6.27968V7.13147ZM6.57104 4.57075C6.14722 4.57075 5.73292 4.69642 5.38052 4.93189C5.02813 5.16735 4.75347 5.50202 4.59128 5.89357C4.4291 6.28513 4.38666 6.71599 4.46934 7.13167C4.55203 7.54734 4.75611 7.92916 5.0558 8.22885C5.35548 8.52853 5.73731 8.73262 6.15298 8.81531C6.56866 8.89799 6.99952 8.85555 7.39108 8.69336C7.78263 8.53118 8.1173 8.25652 8.35276 7.90413C8.58822 7.55173 8.7139 7.13743 8.7139 6.71361C8.7139 6.14529 8.48814 5.60024 8.08627 5.19838C7.68441 4.79651 7.13936 4.57075 6.57104 4.57075ZM6.57104 7.78505C6.35913 7.78505 6.15198 7.72221 5.97578 7.60448C5.79958 7.48675 5.66225 7.31941 5.58116 7.12363C5.50007 6.92785 5.47885 6.71242 5.52019 6.50459C5.56153 6.29675 5.66358 6.10584 5.81342 5.956C5.96326 5.80615 6.15417 5.70411 6.36201 5.66277C6.56985 5.62143 6.78528 5.64264 6.98105 5.72374C7.17683 5.80483 7.34417 5.94216 7.4619 6.11836C7.57963 6.29455 7.64247 6.5017 7.64247 6.71361C7.64247 6.99778 7.52959 7.2703 7.32865 7.47123C7.12772 7.67216 6.8552 7.78505 6.57104 7.78505Z" fill="#818187"/>
</svg>
