<svg width="14" height="13" viewBox="0 0 14 13" fill="none" xmlns="http://www.w3.org/2000/svg">
<g clip-path="url(#clip0_347_12199)">
<path d="M9.95752 1.13867C5.60869 1.13867 2.08252 4.66484 2.08252 9.01367C2.08252 13.3625 5.60869 16.8887 9.95752 16.8887C14.3063 16.8887 17.8325 13.3625 17.8325 9.01367C17.8325 4.66484 14.3063 1.13867 9.95752 1.13867ZM12.8649 12.0055L11.7048 12.0002L9.95752 9.91719L8.21201 11.9984L7.0501 12.0037C6.97275 12.0037 6.90947 11.9422 6.90947 11.8631C6.90947 11.8297 6.92178 11.798 6.94287 11.7717L9.22978 9.04707L6.94287 6.32422C6.92163 6.29846 6.90984 6.2662 6.90947 6.23281C6.90947 6.15547 6.97275 6.09219 7.0501 6.09219L8.21201 6.09746L9.95752 8.18047L11.703 6.09922L12.8632 6.09395C12.9405 6.09395 13.0038 6.15547 13.0038 6.23457C13.0038 6.26797 12.9915 6.29961 12.9704 6.32598L10.687 9.04883L12.9722 11.7734C12.9933 11.7998 13.0056 11.8314 13.0056 11.8648C13.0056 11.9422 12.9423 12.0055 12.8649 12.0055Z" fill="white"/>
</g>
<defs>
<clipPath id="clip0_347_12199">
<rect width="12.9661" height="12.9661" fill="white" transform="translate(0.95752 0.0136719)"/>
</clipPath>
</defs>
</svg>
