<svg width="14" height="14" viewBox="0 0 14 14" fill="none" xmlns="http://www.w3.org/2000/svg">
<g clip-path="url(#clip0_347_12223)">
<path d="M9.83887 1.52051C5.49004 1.52051 1.96387 5.04668 1.96387 9.39551C1.96387 13.7443 5.49004 17.2705 9.83887 17.2705C14.1877 17.2705 17.7139 13.7443 17.7139 9.39551C17.7139 5.04668 14.1877 1.52051 9.83887 1.52051ZM13.2402 6.82383L9.53828 11.9566C9.43331 12.1032 9.26413 12.1901 9.08389 12.1901C8.90365 12.1901 8.73447 12.1032 8.62949 11.9566L6.4375 8.91914C6.3707 8.82598 6.4375 8.6959 6.55176 8.6959H7.37617C7.55547 8.6959 7.72598 8.78203 7.83145 8.92969L9.08301 10.6664L11.8463 6.83437C11.9518 6.68848 12.1205 6.60059 12.3016 6.60059H13.126C13.2402 6.60059 13.307 6.73066 13.2402 6.82383Z" fill="white"/>
</g>
<defs>
<clipPath id="clip0_347_12223">
<rect width="12.9661" height="12.9661" fill="white" transform="translate(0.838867 0.395508)"/>
</clipPath>
</defs>
</svg>
