<svg width="23" height="23" viewBox="0 0 23 23" fill="none" xmlns="http://www.w3.org/2000/svg">
<rect x="0.762695" y="0.65332" width="21.6102" height="21.6102" rx="10.8051" fill="#E5E7EB"/>
<g clip-path="url(#clip0_347_12303)">
<path fill-rule="evenodd" clip-rule="evenodd" d="M9.16504 9.05566C9.16504 8.22779 9.83717 7.55566 10.665 7.55566H14.1045C14.5023 7.55575 14.8838 7.71384 15.165 7.99516L17.7255 10.5557C18.0069 10.8369 18.165 11.2184 18.165 11.6162V18.0557C18.165 18.8835 17.4929 19.5557 16.665 19.5557H10.665C9.83717 19.5557 9.16504 18.8835 9.16504 18.0557V9.05566ZM10.665 13.5557C10.665 13.1417 11.0011 12.8057 11.415 12.8057H15.915C16.329 12.8057 16.665 13.1417 16.665 13.5557C16.665 13.9696 16.329 14.3057 15.915 14.3057H11.415C11.0011 14.3057 10.665 13.9696 10.665 13.5557ZM11.415 15.8057C11.0011 15.8057 10.665 16.1417 10.665 16.5557C10.665 16.9696 11.0011 17.3057 11.415 17.3057H15.915C16.329 17.3057 16.665 16.9696 16.665 16.5557C16.665 16.1417 16.329 15.8057 15.915 15.8057H11.415Z" fill="#374151"/>
</g>
<defs>
<clipPath id="clip0_347_12303">
<rect width="10.8051" height="10.8051" fill="white" transform="translate(6.16504 6.05566)"/>
</clipPath>
</defs>
</svg>
