<svg width="14" height="14" viewBox="0 0 14 14" fill="none" xmlns="http://www.w3.org/2000/svg">
<g clip-path="url(#clip0_347_12240)">
<path d="M9.95752 1.91016C5.60869 1.91016 2.08252 5.43633 2.08252 9.78516C2.08252 14.134 5.60869 17.6602 9.95752 17.6602C14.3063 17.6602 17.8325 14.134 17.8325 9.78516C17.8325 5.43633 14.3063 1.91016 9.95752 1.91016ZM12.8649 12.777L11.7048 12.7717L9.95752 10.6887L8.21201 12.7699L7.0501 12.7752C6.97275 12.7752 6.90947 12.7137 6.90947 12.6346C6.90947 12.6012 6.92178 12.5695 6.94287 12.5432L9.22978 9.81855L6.94287 7.0957C6.92163 7.06994 6.90984 7.03768 6.90947 7.0043C6.90947 6.92695 6.97275 6.86367 7.0501 6.86367L8.21201 6.86895L9.95752 8.95195L11.703 6.8707L12.8632 6.86543C12.9405 6.86543 13.0038 6.92695 13.0038 7.00605C13.0038 7.03945 12.9915 7.07109 12.9704 7.09746L10.687 9.82031L12.9722 12.5449C12.9933 12.5713 13.0056 12.6029 13.0056 12.6363C13.0056 12.7137 12.9423 12.777 12.8649 12.777Z" fill="white"/>
</g>
<defs>
<clipPath id="clip0_347_12240">
<rect width="12.9661" height="12.9661" fill="white" transform="translate(0.95752 0.785156)"/>
</clipPath>
</defs>
</svg>
