<svg width="30" height="30" viewBox="0 0 30 30" fill="none" xmlns="http://www.w3.org/2000/svg">
<rect x="0.313477" y="0.370117" width="28.8136" height="28.8136" rx="4.32203" fill="#557ABA"/>
<g clip-path="url(#clip0_347_12162)">
<path d="M24.2085 13.2129L20.0054 9.00781C19.8882 8.89062 19.728 8.82422 19.562 8.82422H11.2671C10.9214 8.82422 10.6421 9.10352 10.6421 9.44922V25.6992C10.6421 26.0449 10.9214 26.3242 11.2671 26.3242H23.7671C24.1128 26.3242 24.3921 26.0449 24.3921 25.6992V13.6543C24.3921 13.4883 24.3257 13.3301 24.2085 13.2129ZM15.3296 15.4258C15.7612 15.4258 16.1108 15.7754 16.1108 16.207C16.1108 16.6387 15.7612 16.9883 15.3296 16.9883C14.8979 16.9883 14.5483 16.6387 14.5483 16.207C14.5483 15.7754 14.8979 15.4258 15.3296 15.4258ZM21.1108 21.168H13.9233C13.7925 21.168 13.7202 21.0176 13.8003 20.916L15.7495 18.4316C15.7791 18.3938 15.8245 18.3717 15.8726 18.3717C15.9206 18.3717 15.966 18.3938 15.9956 18.4316L16.7983 19.4551L18.3179 17.5176C18.3475 17.4797 18.3929 17.4576 18.4409 17.4576C18.489 17.4576 18.5343 17.4797 18.564 17.5176L21.23 20.916C21.314 21.0176 21.2397 21.168 21.1108 21.168ZM19.2749 13.9414V10.2656L22.9507 13.9414H19.2749Z" fill="#F3F4F6"/>
</g>
<defs>
<clipPath id="clip0_347_12162">
<rect width="14.4068" height="14.4068" fill="white" transform="translate(7.51709 7.57422)"/>
</clipPath>
</defs>
</svg>
