<svg width="14" height="14" viewBox="0 0 14 14" fill="none" xmlns="http://www.w3.org/2000/svg">
<g clip-path="url(#clip0_347_12228)">
<path d="M9.95752 1.52051C5.60869 1.52051 2.08252 5.04668 2.08252 9.39551C2.08252 13.7443 5.60869 17.2705 9.95752 17.2705C14.3063 17.2705 17.8325 13.7443 17.8325 9.39551C17.8325 5.04668 14.3063 1.52051 9.95752 1.52051ZM12.8649 12.3873L11.7048 12.382L9.95752 10.299L8.21201 12.3803L7.0501 12.3855C6.97275 12.3855 6.90947 12.324 6.90947 12.2449C6.90947 12.2115 6.92178 12.1799 6.94287 12.1535L9.22978 9.42891L6.94287 6.70605C6.92163 6.68029 6.90984 6.64804 6.90947 6.61465C6.90947 6.5373 6.97275 6.47402 7.0501 6.47402L8.21201 6.4793L9.95752 8.5623L11.703 6.48105L12.8632 6.47578C12.9405 6.47578 13.0038 6.5373 13.0038 6.61641C13.0038 6.64981 12.9915 6.68145 12.9704 6.70781L10.687 9.43066L12.9722 12.1553C12.9933 12.1816 13.0056 12.2133 13.0056 12.2467C13.0056 12.324 12.9423 12.3873 12.8649 12.3873Z" fill="white"/>
</g>
<defs>
<clipPath id="clip0_347_12228">
<rect width="12.9661" height="12.9661" fill="white" transform="translate(0.95752 0.395508)"/>
</clipPath>
</defs>
</svg>
