<svg width="18" height="18" viewBox="0 0 18 18" fill="none" xmlns="http://www.w3.org/2000/svg">
<g clip-path="url(#clip0_344_9748)">
<path d="M15.4831 17.6184H20.4831L19.0781 16.2134C18.6971 15.8323 18.483 15.3154 18.4831 14.7764V11.6184C18.4834 9.07511 16.8808 6.80774 14.4831 5.95941V5.61841C14.4831 4.90388 14.1019 4.24362 13.4831 3.88635C12.8643 3.52909 12.1019 3.52909 11.4831 3.88635C10.8643 4.24362 10.4831 4.90388 10.4831 5.61841V5.95941C8.15312 6.78341 6.48312 9.00641 6.48312 11.6184V14.7774C6.48312 15.3154 6.26912 15.8324 5.88812 16.2134L4.48312 17.6184H9.48312M15.4831 17.6184V18.6184C15.4831 20.2742 14.1389 21.6184 12.4831 21.6184C10.8274 21.6184 9.48312 20.2742 9.48312 18.6184V17.6184M15.4831 17.6184H9.48312" stroke="#6B7280" stroke-width="1.42617" stroke-linecap="round" stroke-linejoin="round"/>
</g>
<defs>
<clipPath id="clip0_344_9748">
<rect width="17.1141" height="17.1141" fill="white" transform="translate(0.483124 0.618408)"/>
</clipPath>
</defs>
</svg>
