<svg width="18" height="18" viewBox="0 0 18 18" fill="none" xmlns="http://www.w3.org/2000/svg">
<g clip-path="url(#clip0_346_11803)">
<path d="M15.8569 17.2144H20.8569L19.4519 15.8094C19.0709 15.4282 18.8568 14.9113 18.8569 14.3724V11.2144C18.8572 8.67106 17.2546 6.40369 14.8569 5.55536V5.21436C14.8569 4.49982 14.4757 3.83957 13.8569 3.4823C13.2381 3.12503 12.4757 3.12503 11.8569 3.4823C11.2381 3.83957 10.8569 4.49982 10.8569 5.21436V5.55536C8.52693 6.37936 6.85693 8.60236 6.85693 11.2144V14.3734C6.85693 14.9114 6.64293 15.4284 6.26193 15.8094L4.85693 17.2144H9.85693M15.8569 17.2144V18.2144C15.8569 19.8701 14.5127 21.2144 12.8569 21.2144C11.2012 21.2144 9.85693 19.8701 9.85693 18.2144V17.2144M15.8569 17.2144H9.85693" stroke="#6B7280" stroke-width="1.42857" stroke-linecap="round" stroke-linejoin="round"/>
</g>
<defs>
<clipPath id="clip0_346_11803">
<rect width="17.1429" height="17.1429" fill="white" transform="translate(0.856934 0.214355)"/>
</clipPath>
</defs>
</svg>
