<svg width="18" height="18" viewBox="0 0 18 18" fill="none" xmlns="http://www.w3.org/2000/svg">
<g clip-path="url(#clip0_63_4098)">
<path d="M15.8572 17.2144H20.8572L19.4522 15.8094C19.0711 15.4282 18.8571 14.9113 18.8572 14.3724V11.2144C18.8575 8.67106 17.2548 6.40369 14.8572 5.55536V5.21436C14.8572 4.49982 14.476 3.83957 13.8572 3.4823C13.2384 3.12503 12.476 3.12503 11.8572 3.4823C11.2384 3.83957 10.8572 4.49982 10.8572 5.21436V5.55536C8.52718 6.37936 6.85718 8.60236 6.85718 11.2144V14.3734C6.85718 14.9114 6.64318 15.4284 6.26218 15.8094L4.85718 17.2144H9.85718M15.8572 17.2144V18.2144C15.8572 19.8701 14.5129 21.2144 12.8572 21.2144C11.2014 21.2144 9.85718 19.8701 9.85718 18.2144V17.2144M15.8572 17.2144H9.85718" stroke="#6B7280" stroke-width="1.42857" stroke-linecap="round" stroke-linejoin="round"/>
</g>
<defs>
<clipPath id="clip0_63_4098">
<rect width="17.1429" height="17.1429" fill="white" transform="translate(0.857178 0.214355)"/>
</clipPath>
</defs>
</svg>
