<svg width="15" height="15" viewBox="0 0 15 15" fill="none" xmlns="http://www.w3.org/2000/svg">
<g clip-path="url(#clip0_344_10725)">
<path fill-rule="evenodd" clip-rule="evenodd" d="M5.21943 4.52607C7.95141 1.7941 12.3875 1.7941 15.1194 4.52607C17.8514 7.25805 17.8514 11.6941 15.1194 14.4261L10.1694 19.3761L5.21943 14.4261C3.90652 13.1133 3.16893 11.3327 3.16893 9.47607C3.16893 7.61944 3.90652 5.83885 5.21943 4.52607ZM10.1694 11.4761C11.2733 11.4761 12.1694 10.5799 12.1694 9.47607C12.1694 8.37224 11.2733 7.47607 10.1694 7.47607C9.0656 7.47607 8.16943 8.37224 8.16943 9.47607C8.16943 10.5799 9.0656 11.4761 10.1694 11.4761Z" fill="#EC5757"/>
</g>
<defs>
<clipPath id="clip0_344_10725">
<rect width="14.2857" height="14.2857" fill="white" transform="translate(0.169434 0.476074)"/>
</clipPath>
</defs>
</svg>
