<svg width="18" height="18" viewBox="0 0 18 18" fill="none" xmlns="http://www.w3.org/2000/svg">
<g clip-path="url(#clip0_344_10208)">
<path d="M15.8572 17.2139H20.8572L19.4522 15.8089C19.0711 15.4277 18.8571 14.9108 18.8572 14.3719V11.2139C18.8575 8.67057 17.2548 6.4032 14.8572 5.55487V5.21387C14.8572 4.49933 14.476 3.83908 13.8572 3.48181C13.2384 3.12455 12.476 3.12455 11.8572 3.48181C11.2384 3.83908 10.8572 4.49933 10.8572 5.21387V5.55487C8.52718 6.37887 6.85718 8.60187 6.85718 11.2139V14.3729C6.85718 14.9109 6.64318 15.4279 6.26218 15.8089L4.85718 17.2139H9.85718M15.8572 17.2139V18.2139C15.8572 19.8696 14.5129 21.2139 12.8572 21.2139C11.2014 21.2139 9.85718 19.8696 9.85718 18.2139V17.2139M15.8572 17.2139H9.85718" stroke="#6B7280" stroke-width="1.42857" stroke-linecap="round" stroke-linejoin="round"/>
</g>
<defs>
<clipPath id="clip0_344_10208">
<rect width="17.1429" height="17.1429" fill="white" transform="translate(0.857178 0.213867)"/>
</clipPath>
</defs>
</svg>
