<svg width="14" height="14" viewBox="0 0 14 14" fill="none" xmlns="http://www.w3.org/2000/svg">
<g clip-path="url(#clip0_344_10297)">
<path d="M16.7393 6.23904C16.7507 6.39893 16.7507 6.55886 16.7507 6.71875C16.7507 11.5956 13.0388 17.2149 6.25454 17.2149C4.16443 17.2149 2.22282 16.6096 0.589565 15.5589C0.88653 15.5931 1.17203 15.6045 1.48042 15.6045C3.20501 15.6045 4.7926 15.0221 6.06037 14.0284C4.43854 13.9941 3.0794 12.9319 2.61112 11.47C2.83957 11.5043 3.06798 11.5271 3.30785 11.5271C3.63905 11.5271 3.9703 11.4814 4.27865 11.4015C2.5883 11.0588 1.3205 9.57407 1.3205 7.78092V7.73525C1.8116 8.00937 2.38271 8.18068 2.98799 8.2035C1.99434 7.54105 1.34335 6.41036 1.34335 5.13116C1.34335 4.44589 1.52606 3.81772 1.84587 3.2695C3.66187 5.50807 6.39158 6.96997 9.45246 7.1299C9.39536 6.85579 9.36108 6.57028 9.36108 6.28474C9.36108 4.25173 11.0058 2.59566 13.0502 2.59566C14.1123 2.59566 15.0717 3.04109 15.7456 3.76063C16.5793 3.60074 17.3788 3.29235 18.087 2.86977C17.8128 3.72639 17.2304 4.44593 16.4651 4.90275C17.2075 4.82284 17.9271 4.61721 18.5895 4.33171C18.087 5.06264 17.4588 5.71363 16.7393 6.23904Z" fill="#1DA1F3"/>
</g>
<defs>
<clipPath id="clip0_344_10297">
<rect width="12.8571" height="12.8571" fill="white" transform="translate(0.589565 0.905273)"/>
</clipPath>
</defs>
</svg>
