<svg width="15" height="11" viewBox="0 0 15 11" fill="none" xmlns="http://www.w3.org/2000/svg">
<path d="M11.6621 0.957359L8.86302 5.23542C9.08781 5.50825 9.21014 5.85104 9.20885 6.20448C9.20821 6.6123 9.04569 7.00321 8.75696 7.29136C8.46823 7.57951 8.07688 7.74135 7.66887 7.74135C7.26087 7.74135 6.86954 7.57951 6.58081 7.29136C6.29208 7.00321 6.12956 6.6123 6.12892 6.20448C6.12967 6.10543 6.13857 6.00662 6.15553 5.90903L4.30816 4.83361C4.06963 5.06442 3.76263 5.21164 3.43326 5.25319C3.10388 5.29474 2.7699 5.22839 2.48148 5.06406L0.515869 6.90469V8.7394C0.516647 9.10223 0.660998 9.45002 0.917395 9.70685C1.17379 9.96369 1.52142 10.1087 1.88441 10.1103H13.5213C13.8846 10.1087 14.2326 9.96379 14.4894 9.70704C14.7463 9.45028 14.8913 9.1025 14.8929 8.7394V1.93529L13.013 0.685547C12.8242 0.832179 12.6039 0.933048 12.3695 0.980211C12.1352 1.02738 11.893 1.01955 11.6621 0.957359Z" fill="#EC5757"/>
</svg>
