<svg width="19" height="12" viewBox="0 0 19 12" fill="none" xmlns="http://www.w3.org/2000/svg">
<path d="M15.6503 11.8184C15.1248 11.8188 14.611 11.6634 14.1738 11.3718C13.7367 11.0803 13.3958 10.6657 13.1944 10.1806C12.993 9.69543 12.94 9.16147 13.0422 8.64622C13.1444 8.13097 13.3971 7.65757 13.7684 7.28589C14.1398 6.91422 14.6131 6.66094 15.1284 6.55812C15.6437 6.45529 16.178 6.50754 16.6637 6.70823C17.1493 6.90892 17.5645 7.24903 17.8568 7.68558C18.149 8.12213 18.3052 8.63552 18.3056 9.16079C18.3057 9.86507 18.0261 10.5406 17.5282 11.0389C17.0303 11.5373 16.3549 11.8177 15.6503 11.8184ZM9.45524 11.8184C8.75129 11.8176 8.07639 11.5378 7.57862 11.0402C7.08085 10.5427 6.80085 9.86808 6.80004 9.16444V2.97219C6.80088 2.26884 7.08099 1.59457 7.57885 1.09752C8.07672 0.600476 8.75162 0.321289 9.45529 0.321289C10.159 0.321289 10.8338 0.600476 11.3317 1.09752C11.8296 1.59457 12.1097 2.26884 12.1105 2.97219V9.16444C12.1097 9.86809 11.8297 10.5427 11.3319 11.0402C10.8341 11.5378 10.1592 11.8177 9.45524 11.8184ZM3.26202 11.8184C2.55756 11.8176 1.88221 11.5375 1.38409 11.0396C0.885973 10.5417 0.605775 9.86665 0.60498 9.16251V6.6885C0.60498 5.98412 0.884921 5.3086 1.38322 4.81053C1.88151 4.31245 2.55734 4.03264 3.26204 4.03264C3.96674 4.03264 4.64259 4.31245 5.14088 4.81053C5.63918 5.3086 5.9191 5.98412 5.9191 6.6885V9.16251C5.9183 9.86666 5.63811 10.5417 5.13999 11.0396C4.64186 11.5375 3.96648 11.8176 3.26202 11.8184Z" fill="#EC5757"/>
</svg>
