<svg width="23" height="22" viewBox="0 0 23 22" fill="none" xmlns="http://www.w3.org/2000/svg">
<path d="M11.0813 17.5501C11.4133 16.398 11.3174 14.8389 10.1999 14.4031C9.61767 14.1761 8.96802 14.3552 8.34628 14.4188C7.12967 14.5382 5.9119 14.2032 4.9278 13.4783C3.77189 12.6194 3.05791 11.3065 2.37993 10.0363L1.35446 8.11511C1.12627 7.71458 0.931657 7.29584 0.772633 6.8632C0.202051 5.16714 0.821609 3.20357 2.08991 1.94075C3.41537 0.708246 5.15954 0.0247139 6.96985 0.0283346C8.76597 0.0412246 10.5405 0.421209 12.1842 1.14493C15.1059 2.33532 17.7522 4.1123 19.9593 6.36593C21.4019 7.84102 22.7151 9.76266 22.4137 11.8033C22.1791 13.3918 21.0207 14.6637 19.916 15.8294L15.9087 20.0578C15.199 20.8066 14.4406 21.5859 13.4497 21.8738C12.4588 22.1617 11.1822 21.7388 10.912 20.7433C10.912 20.7433 10.7492 18.7022 11.0813 17.5501Z" fill="#412E2E"/>
</svg>
