<svg width="189" height="130" viewBox="0 0 189 130" fill="none" xmlns="http://www.w3.org/2000/svg">
<path d="M186.017 0.285645H2.68208C1.98342 0.286419 1.31359 0.564178 0.819563 1.05799C0.325534 1.55179 0.0476502 2.22132 0.046875 2.91967V127.095C0.0476502 127.793 0.325534 128.463 0.819563 128.957C1.31359 129.45 1.98342 129.728 2.68208 129.729H186.017C186.716 129.728 187.386 129.45 187.88 128.957C188.374 128.463 188.652 127.793 188.652 127.095V2.91967C188.652 2.22132 188.374 1.55179 187.88 1.05799C187.386 0.564178 186.716 0.286419 186.017 0.285645ZM187.899 127.095C187.899 127.594 187.701 128.072 187.348 128.425C186.995 128.778 186.516 128.976 186.017 128.976H2.68208C2.18293 128.976 1.70428 128.778 1.35132 128.425C0.998369 128.072 0.799991 127.594 0.799791 127.095V2.91967C0.799991 2.42074 0.998369 1.9423 1.35132 1.58951C1.70428 1.23671 2.18293 1.03842 2.68208 1.03822H186.017C186.516 1.03842 186.995 1.23671 187.348 1.58951C187.701 1.9423 187.899 2.42074 187.899 2.91967V127.095Z" fill="#563D3D"/>
</svg>
