<svg width="29" height="30" viewBox="0 0 29 30" fill="none" xmlns="http://www.w3.org/2000/svg">
<path d="M14.3993 29.1749C11.5597 29.1749 8.78386 28.3332 6.42281 26.7563C4.06176 25.1794 2.22156 22.9381 1.13489 20.3159C0.0482183 17.6936 -0.236112 14.8081 0.317869 12.0243C0.871849 9.24051 2.23924 6.68343 4.24715 4.67642C6.25506 2.66942 8.8133 1.30263 11.5984 0.7489C14.3834 0.195168 17.2702 0.47936 19.8936 1.56554C22.5171 2.65173 24.7594 4.49112 26.337 6.85111C27.9146 9.2111 28.7567 11.9857 28.7567 14.824C28.7524 18.6288 27.2383 22.2765 24.5467 24.9669C21.8552 27.6573 18.2058 29.1706 14.3993 29.1749Z" fill="#E6E6E6"/>
</svg>
