<svg width="30" height="29" viewBox="0 0 30 29" fill="none" xmlns="http://www.w3.org/2000/svg">
<path d="M15.2746 28.7389C12.435 28.7389 9.65911 27.8972 7.29806 26.3203C4.93701 24.7434 3.09679 22.5021 2.01012 19.8798C0.923446 17.2575 0.639138 14.3721 1.19312 11.5883C1.7471 8.80447 3.11449 6.24739 5.1224 4.24039C7.13031 2.23338 9.68853 0.866596 12.4736 0.312865C15.2586 -0.240867 18.1454 0.0433249 20.7689 1.12951C23.3923 2.21569 25.6346 4.05507 27.2122 6.41506C28.7899 8.77505 29.6319 11.5496 29.6319 14.388C29.6276 18.1927 28.1136 21.8405 25.422 24.5308C22.7304 27.2212 19.0811 28.7346 15.2746 28.7389ZM15.2746 1.02683C12.6308 1.02683 10.0464 1.81045 7.84816 3.2786C5.64994 4.74674 3.93664 6.83346 2.92491 9.27489C1.91318 11.7163 1.64847 14.4028 2.16425 16.9946C2.68002 19.5864 3.95313 21.9672 5.82256 23.8358C7.69199 25.7043 10.0738 26.9769 12.6668 27.4924C15.2598 28.008 17.9474 27.7434 20.39 26.7321C22.8325 25.7208 24.9202 24.0083 26.389 21.811C27.8578 19.6138 28.6417 17.0306 28.6417 14.388C28.6377 10.8456 27.2281 7.44949 24.7221 4.94466C22.2162 2.43982 18.8185 1.03085 15.2746 1.02683Z" fill="#563D3D"/>
</svg>
