<svg width="67" height="53" viewBox="0 0 67 53" fill="none" xmlns="http://www.w3.org/2000/svg">
<path d="M61.9977 50.744C65.3831 47.8847 67.4394 43.3679 66.9001 38.9707C66.3608 34.5736 63.0208 30.5312 58.6883 29.5975C54.3558 28.6637 49.417 31.2485 48.1011 35.4788C47.3769 27.3229 46.5424 18.8253 42.2042 11.8799C38.2761 5.5909 31.4727 1.09092 24.0992 0.285857C16.7258 -0.519202 8.96248 2.52139 4.36393 8.33854C-0.234618 14.1557 -1.36056 22.6126 1.86014 29.2912C4.23272 34.2111 8.60386 37.8725 13.1837 40.8513C27.9829 50.3956 45.7325 54.2769 63.1669 51.781L61.9977 50.744Z" fill="#F2F2F2"/>
</svg>
