<svg width="9" height="12" viewBox="0 0 9 12" fill="none" xmlns="http://www.w3.org/2000/svg">
<path d="M0.285645 5.85839C0.285645 6.00047 0.342086 6.13673 0.442552 6.2372C0.543019 6.33766 0.67928 6.3941 0.821361 6.3941H4.88745L3.6553 7.62089C3.60509 7.6707 3.56524 7.72995 3.53804 7.79523C3.51084 7.86051 3.49684 7.93053 3.49684 8.00125C3.49684 8.07197 3.51084 8.142 3.53804 8.20728C3.56524 8.27256 3.60509 8.33181 3.6553 8.38161C3.7051 8.43182 3.76435 8.47168 3.82964 8.49888C3.89492 8.52607 3.96494 8.54008 4.03566 8.54008C4.10638 8.54008 4.1764 8.52607 4.24169 8.49888C4.30697 8.47168 4.36622 8.43182 4.41602 8.38161L6.55889 6.23875C6.60766 6.1878 6.64589 6.12772 6.67139 6.06196C6.72497 5.93153 6.72497 5.78524 6.67139 5.65481C6.64589 5.58906 6.60766 5.52898 6.55889 5.47803L4.41602 3.33516C4.36607 3.28521 4.30677 3.24559 4.24151 3.21856C4.17625 3.19153 4.1063 3.17761 4.03566 3.17761C3.96502 3.17761 3.89507 3.19153 3.82981 3.21856C3.76455 3.24559 3.70525 3.28521 3.6553 3.33516C3.60535 3.38511 3.56573 3.44441 3.5387 3.50967C3.51167 3.57493 3.49775 3.64488 3.49775 3.71552C3.49775 3.78616 3.51167 3.85611 3.5387 3.92137C3.56573 3.98663 3.60535 4.04593 3.6553 4.09588L4.88745 5.32267H0.821361C0.67928 5.32267 0.543019 5.37911 0.442552 5.47958C0.342086 5.58004 0.285645 5.71631 0.285645 5.85839ZM7.24996 0.501221H1.89279C1.46655 0.501221 1.05777 0.670545 0.756368 0.971944C0.454969 1.27334 0.285645 1.68213 0.285645 2.10837V3.71552C0.285645 3.8576 0.342086 3.99386 0.442552 4.09433C0.543019 4.1948 0.67928 4.25124 0.821361 4.25124C0.963442 4.25124 1.0997 4.1948 1.20017 4.09433C1.30064 3.99386 1.35708 3.8576 1.35708 3.71552V2.10837C1.35708 1.96629 1.41352 1.83003 1.51399 1.72956C1.61445 1.6291 1.75071 1.57265 1.89279 1.57265H7.24996C7.39204 1.57265 7.5283 1.6291 7.62877 1.72956C7.72924 1.83003 7.78568 1.96629 7.78568 2.10837V9.6084C7.78568 9.75048 7.72924 9.88675 7.62877 9.98721C7.5283 10.0877 7.39204 10.1441 7.24996 10.1441H1.89279C1.75071 10.1441 1.61445 10.0877 1.51399 9.98721C1.41352 9.88675 1.35708 9.75048 1.35708 9.6084V8.00125C1.35708 7.85917 1.30064 7.72291 1.20017 7.62245C1.0997 7.52198 0.963442 7.46554 0.821361 7.46554C0.67928 7.46554 0.543019 7.52198 0.442552 7.62245C0.342086 7.72291 0.285645 7.85917 0.285645 8.00125V9.6084C0.285645 10.0346 0.454969 10.4434 0.756368 10.7448C1.05777 11.0462 1.46655 11.2156 1.89279 11.2156H7.24996C7.6762 11.2156 8.08499 11.0462 8.38639 10.7448C8.68779 10.4434 8.85711 10.0346 8.85711 9.6084V2.10837C8.85711 1.68213 8.68779 1.27334 8.38639 0.971944C8.08499 0.670545 7.6762 0.501221 7.24996 0.501221Z" fill="#D1110B"/>
</svg>
