<svg width="30" height="29" viewBox="0 0 30 29" fill="none" xmlns="http://www.w3.org/2000/svg">
<path d="M14.7045 28.7984C11.8649 28.7984 9.08906 27.9568 6.72801 26.3799C4.36696 24.803 2.52674 22.5617 1.44007 19.9394C0.353394 17.3171 0.0690641 14.4316 0.623044 11.6478C1.17702 8.86403 2.54444 6.30696 4.55235 4.29995C6.56026 2.29295 9.11848 0.92617 11.9035 0.372438C14.6886 -0.181294 17.5754 0.102887 20.1988 1.18907C22.8223 2.27525 25.0646 4.11465 26.6422 6.47464C28.2198 8.83462 29.0619 11.6092 29.0619 14.4476C29.0576 18.2523 27.5435 21.9 24.8519 24.5904C22.1603 27.2808 18.511 28.7941 14.7045 28.7984ZM14.7045 1.08641C12.0607 1.08641 9.47633 1.87 7.27811 3.33815C5.07989 4.80629 3.36659 6.89303 2.35486 9.33447C1.34313 11.7759 1.07842 14.4624 1.5942 17.0542C2.10997 19.646 3.38305 22.0267 5.25249 23.8953C7.12192 25.7639 9.50372 27.0364 12.0967 27.552C14.6897 28.0675 17.3774 27.8029 19.8199 26.7917C22.2624 25.7804 24.3501 24.0679 25.8189 21.8706C27.2877 19.6734 28.0717 17.0901 28.0717 14.4476C28.0677 10.9052 26.6581 7.50906 24.1521 5.00423C21.6461 2.4994 18.2485 1.09042 14.7045 1.08641Z" fill="#563D3D"/>
</svg>
