<svg width="14" height="13" viewBox="0 0 14 13" fill="none" xmlns="http://www.w3.org/2000/svg">
<path d="M5.06251 5.3656H2.65179C2.54523 5.3656 2.44303 5.32327 2.36768 5.24792C2.29233 5.17257 2.25 5.07037 2.25 4.96381V2.55309C2.25 2.44653 2.29233 2.34433 2.36768 2.26898C2.44303 2.19363 2.54523 2.1513 2.65179 2.1513C2.75835 2.1513 2.86054 2.19363 2.93589 2.26898C3.01124 2.34433 3.05358 2.44653 3.05358 2.55309V3.75092C3.83053 2.87452 5.1936 1.74951 7.07145 1.74951C9.22202 1.74951 10.5158 3.01866 10.57 3.0724C10.6455 3.14766 10.6881 3.24983 10.6883 3.35645C10.6885 3.46307 10.6463 3.5654 10.571 3.64093C10.4958 3.71645 10.3936 3.75899 10.287 3.75918C10.1803 3.75936 10.078 3.71719 10.0025 3.64193C9.98893 3.62837 8.87548 2.55309 7.07145 2.55309C5.31363 2.55309 4.04649 3.79109 3.42724 4.56202H5.06251C5.16907 4.56202 5.27127 4.60436 5.34662 4.67971C5.42197 4.75505 5.4643 4.85725 5.4643 4.96381C5.4643 5.07037 5.42197 5.17257 5.34662 5.24792C5.27127 5.32327 5.16907 5.3656 5.06251 5.3656ZM11.4911 7.77632H9.08039C8.97383 7.77632 8.87163 7.81866 8.79628 7.894C8.72093 7.96935 8.6786 8.07155 8.6786 8.17811C8.6786 8.28467 8.72093 8.38687 8.79628 8.46222C8.87163 8.53757 8.97383 8.5799 9.08039 8.5799H10.7157C10.0964 9.35083 8.82927 10.5888 7.07145 10.5888C5.26742 10.5888 4.15397 9.51355 4.14041 9.49999C4.06489 9.42474 3.96256 9.38256 3.85594 9.38275C3.74932 9.38294 3.64714 9.42547 3.57188 9.501C3.49662 9.57652 3.45445 9.67885 3.45464 9.78547C3.45483 9.89209 3.49736 9.99427 3.57289 10.0695C3.62713 10.1233 4.92088 11.3924 7.07145 11.3924C8.9493 11.3924 10.3124 10.2674 11.0893 9.39101V10.5888C11.0893 10.6954 11.1317 10.7976 11.207 10.8729C11.2824 10.9483 11.3846 10.9906 11.4911 10.9906C11.5977 10.9906 11.6999 10.9483 11.7752 10.8729C11.8506 10.7976 11.8929 10.6954 11.8929 10.5888V8.17811C11.8929 8.07155 11.8506 7.96935 11.7752 7.894C11.6999 7.81866 11.5977 7.77632 11.4911 7.77632Z" fill="#FF0000"/>
</svg>
