<svg width="14" height="14" viewBox="0 0 14 14" fill="none" xmlns="http://www.w3.org/2000/svg">
<path d="M11.7829 4.72846L8.94217 1.88774C8.90446 1.85007 8.85969 1.8202 8.81042 1.79983C8.76116 1.77946 8.70836 1.769 8.65506 1.76904H3.78526C3.57001 1.76904 3.36356 1.85455 3.21135 2.00676C3.05914 2.15898 2.97363 2.36542 2.97363 2.58067V11.5086C2.97363 11.7239 3.05914 11.9303 3.21135 12.0825C3.36356 12.2347 3.57001 12.3203 3.78526 12.3203H11.09C11.3052 12.3203 11.5117 12.2347 11.6639 12.0825C11.8161 11.9303 11.9016 11.7239 11.9016 11.5086V5.01557C11.9016 4.96226 11.8912 4.90947 11.8708 4.8602C11.8504 4.81094 11.8206 4.76617 11.7829 4.72846ZM9.06087 9.47955H5.81434C5.70672 9.47955 5.60349 9.43679 5.52739 9.36069C5.45128 9.28458 5.40853 9.18136 5.40853 9.07373C5.40853 8.9661 5.45128 8.86288 5.52739 8.78677C5.60349 8.71067 5.70672 8.66791 5.81434 8.66791H9.06087C9.1685 8.66791 9.27172 8.71067 9.34783 8.78677C9.42393 8.86288 9.46669 8.9661 9.46669 9.07373C9.46669 9.18136 9.42393 9.28458 9.34783 9.36069C9.27172 9.43679 9.1685 9.47955 9.06087 9.47955ZM9.06087 7.85628H5.81434C5.70672 7.85628 5.60349 7.81353 5.52739 7.73742C5.45128 7.66132 5.40853 7.5581 5.40853 7.45047C5.40853 7.34284 5.45128 7.23962 5.52739 7.16351C5.60349 7.08741 5.70672 7.04465 5.81434 7.04465H9.06087C9.1685 7.04465 9.27172 7.08741 9.34783 7.16351C9.42393 7.23962 9.46669 7.34284 9.46669 7.45047C9.46669 7.5581 9.42393 7.66132 9.34783 7.73742C9.27172 7.81353 9.1685 7.85628 9.06087 7.85628ZM8.65506 5.01557V2.78358L10.887 5.01557H8.65506Z" fill="black"/>
</svg>
