<svg width="14" height="14" viewBox="0 0 14 14" fill="none" xmlns="http://www.w3.org/2000/svg">
<path d="M11.7829 5.06195L8.94217 2.22124C8.90446 2.18357 8.85969 2.15369 8.81042 2.13333C8.76116 2.11296 8.70836 2.1025 8.65506 2.10254H3.78526C3.57001 2.10254 3.36356 2.18805 3.21135 2.34026C3.05914 2.49247 2.97363 2.69891 2.97363 2.91417V11.8421C2.97363 12.0574 3.05914 12.2638 3.21135 12.416C3.36356 12.5682 3.57001 12.6538 3.78526 12.6538H5.61144C5.66525 12.6538 5.71686 12.6324 5.75491 12.5943C5.79297 12.5563 5.81434 12.5047 5.81434 12.4508V11.4363H5.42222C5.31732 11.438 5.21569 11.3998 5.13783 11.3295C5.05998 11.2591 5.01169 11.1619 5.00271 11.0574C4.99903 11.0019 5.00679 10.9462 5.02553 10.8938C5.04427 10.8414 5.07358 10.7935 5.11163 10.7529C5.14969 10.7123 5.19568 10.68 5.24676 10.6579C5.29783 10.6359 5.3529 10.6246 5.40853 10.6247H5.81434V9.81304H5.42222C5.31732 9.81471 5.21569 9.77653 5.13783 9.70621C5.05998 9.63588 5.01169 9.53864 5.00271 9.43411C4.99903 9.3786 5.00679 9.32293 5.02553 9.27054C5.04427 9.21816 5.07358 9.17019 5.11163 9.12961C5.14969 9.08903 5.19568 9.05671 5.24676 9.03466C5.29783 9.01261 5.3529 9.00129 5.40853 9.00141H5.81434V8.18978H5.42222C5.31732 8.19145 5.21569 8.15327 5.13783 8.08294C5.05998 8.01262 5.01169 7.91538 5.00271 7.81085C4.99903 7.75534 5.00679 7.69966 5.02553 7.64728C5.04427 7.5949 5.07358 7.54693 5.11163 7.50635C5.14969 7.46577 5.19568 7.43345 5.24676 7.4114C5.29783 7.38934 5.3529 7.37802 5.40853 7.37815H5.81434V6.98603C5.81305 6.88133 5.85139 6.78002 5.92167 6.7024C5.99195 6.62479 6.08897 6.57661 6.19328 6.56753C6.24879 6.56384 6.30446 6.57161 6.35684 6.59035C6.40922 6.60909 6.4572 6.63839 6.49777 6.67645C6.53835 6.71451 6.57067 6.7605 6.59273 6.81158C6.61478 6.86265 6.6261 6.91771 6.62598 6.97334V7.37916H7.0181C7.12283 7.37775 7.2242 7.41605 7.30185 7.48635C7.37949 7.55665 7.42763 7.65374 7.43659 7.75809C7.44028 7.8136 7.43251 7.86928 7.41378 7.92166C7.39504 7.97404 7.36573 8.02201 7.32767 8.06259C7.28962 8.10317 7.24362 8.13549 7.19255 8.15754C7.14147 8.1796 7.08641 8.19092 7.03078 8.19079H6.62496V9.00243H7.01708C7.12181 9.00102 7.22319 9.03931 7.30083 9.10961C7.37847 9.17991 7.42662 9.277 7.43558 9.38136C7.43927 9.43687 7.4315 9.49254 7.41276 9.54492C7.39402 9.5973 7.36472 9.64528 7.32666 9.68585C7.2886 9.72643 7.24261 9.75875 7.19153 9.78081C7.14046 9.80286 7.0854 9.81418 7.02976 9.81406H6.62395V10.6257H7.01607C7.1208 10.6243 7.22218 10.6626 7.29982 10.7329C7.37746 10.8032 7.4256 10.9003 7.43457 11.0046C7.43825 11.0601 7.43048 11.1158 7.41175 11.1682C7.39301 11.2206 7.3637 11.2685 7.32564 11.3091C7.28759 11.3497 7.24159 11.382 7.19052 11.4041C7.13944 11.4261 7.08438 11.4374 7.02875 11.4373H6.62293V12.4519C6.62293 12.5057 6.64431 12.5573 6.68236 12.5953C6.72042 12.6334 6.77203 12.6548 6.82584 12.6548H11.0869C11.3022 12.6548 11.5086 12.5693 11.6608 12.417C11.813 12.2648 11.8985 12.0584 11.8985 11.8431V5.34907C11.8994 5.24184 11.8579 5.13862 11.7829 5.06195ZM8.65506 5.34907V3.11708L10.887 5.34907H8.65506Z" fill="black"/>
</svg>
