<svg width="29" height="30" viewBox="0 0 29 30" fill="none" xmlns="http://www.w3.org/2000/svg">
<g clip-path="url(#clip0_344_10211)">
<path d="M16.4678 10.5309C16.8938 8.77487 19.3918 8.77487 19.8178 10.5309C19.9475 11.0659 20.3249 11.5069 20.8335 11.7176C21.3421 11.9283 21.9208 11.8835 22.3908 11.5969C23.9338 10.6569 25.7008 12.4229 24.7608 13.9669C24.4746 14.4367 24.4299 15.0149 24.6404 15.5232C24.8508 16.0315 25.2913 16.4089 25.8258 16.5389C27.5818 16.9649 27.5818 19.4629 25.8258 19.8889C25.2908 20.0185 24.8498 20.3959 24.6391 20.9045C24.4284 21.4131 24.4732 21.9918 24.7598 22.4619C25.6998 24.0049 23.9338 25.7719 22.3898 24.8319C21.92 24.5457 21.3417 24.5009 20.8334 24.7114C20.3251 24.9219 19.9478 25.3623 19.8178 25.8969C19.3918 27.6529 16.8938 27.6529 16.4678 25.8969C16.3382 25.3618 15.9608 24.9208 15.4522 24.7101C14.9436 24.4994 14.3649 24.5443 13.8948 24.8309C12.3518 25.7709 10.5848 24.0049 11.5248 22.4609C11.811 21.991 11.8558 21.4128 11.6453 20.9045C11.4348 20.3962 10.9944 20.0189 10.4598 19.8889C8.70382 19.4629 8.70382 16.9649 10.4598 16.5389C10.9949 16.4092 11.4358 16.0318 11.6466 15.5232C11.8573 15.0146 11.8124 14.4359 11.5258 13.9659C10.5858 12.4229 12.3518 10.6559 13.8958 11.5959C14.8918 12.2039 16.1918 11.6659 16.4678 10.5309" stroke="#6B7280" stroke-width="1.42857" stroke-linecap="round" stroke-linejoin="round"/>
<path d="M21.1428 18.2139C21.1428 19.8696 19.7986 21.2139 18.1428 21.2139C16.4871 21.2139 15.1428 19.8696 15.1428 18.2139C15.1428 16.5581 16.4871 15.2139 18.1428 15.2139C19.7986 15.2139 21.1428 16.5581 21.1428 18.2139" stroke="#6B7280" stroke-width="1.42857" stroke-linecap="round" stroke-linejoin="round"/>
</g>
<defs>
<clipPath id="clip0_344_10211">
<rect width="17.1429" height="17.1429" fill="white" transform="translate(6.14288 6.21387)"/>
</clipPath>
</defs>
</svg>
