<svg width="13" height="14" viewBox="0 0 13 14" fill="none" xmlns="http://www.w3.org/2000/svg">
<g clip-path="url(#clip0_63_4616)">
<path d="M6.03551 5.53573H8.17838C8.32046 5.53573 8.45672 5.47929 8.55719 5.37883C8.65766 5.27836 8.7141 5.1421 8.7141 5.00002C8.7141 4.85794 8.65766 4.72167 8.55719 4.62121C8.45672 4.52074 8.32046 4.4643 8.17838 4.4643H7.10695V3.92858C7.10695 3.7865 7.05051 3.65024 6.95004 3.54977C6.84957 3.44931 6.71331 3.39287 6.57123 3.39287C6.42915 3.39287 6.29289 3.44931 6.19242 3.54977C6.09196 3.65024 6.03551 3.7865 6.03551 3.92858V4.4643C5.60927 4.4643 5.20049 4.63362 4.89909 4.93502C4.59769 5.23642 4.42836 5.64521 4.42836 6.07145C4.42836 6.49769 4.59769 6.90648 4.89909 7.20788C5.20049 7.50928 5.60927 7.6786 6.03551 7.6786H7.10695C7.24903 7.6786 7.38529 7.73504 7.48576 7.83551C7.58622 7.93597 7.64266 8.07224 7.64266 8.21432C7.64266 8.3564 7.58622 8.49266 7.48576 8.59313C7.38529 8.69359 7.24903 8.75003 7.10695 8.75003H4.96408C4.822 8.75003 4.68574 8.80648 4.58527 8.90694C4.48481 9.00741 4.42836 9.14367 4.42836 9.28575C4.42836 9.42783 4.48481 9.56409 4.58527 9.66456C4.68574 9.76503 4.822 9.82147 4.96408 9.82147H6.03551V10.3572C6.03551 10.4993 6.09196 10.6355 6.19242 10.736C6.29289 10.8365 6.42915 10.8929 6.57123 10.8929C6.71331 10.8929 6.84957 10.8365 6.95004 10.736C7.05051 10.6355 7.10695 10.4993 7.10695 10.3572V9.82147C7.53319 9.82147 7.94197 9.65214 8.24337 9.35074C8.54477 9.04935 8.7141 8.64056 8.7141 8.21432C8.7141 7.78807 8.54477 7.37929 8.24337 7.07789C7.94197 6.77649 7.53319 6.60717 7.10695 6.60717H6.03551C5.89343 6.60717 5.75717 6.55073 5.6567 6.45026C5.55624 6.34979 5.4998 6.21353 5.4998 6.07145C5.4998 5.92937 5.55624 5.79311 5.6567 5.69264C5.75717 5.59218 5.89343 5.53573 6.03551 5.53573ZM6.57123 1.25C5.40573 1.25 4.2664 1.59561 3.29732 2.24313C2.32824 2.89065 1.57293 3.81099 1.12692 4.88777C0.680898 5.96456 0.564199 7.14942 0.791577 8.29253C1.01896 9.43564 1.5802 10.4856 2.40433 11.3098C3.22847 12.1339 4.27848 12.6952 5.42159 12.9225C6.56469 13.1499 7.74956 13.0332 8.82634 12.5872C9.90312 12.1412 10.8235 11.3859 11.471 10.4168C12.1185 9.44771 12.4641 8.30839 12.4641 7.14288C12.4641 5.57999 11.8433 4.08112 10.7381 2.97599C9.633 1.87086 8.13412 1.25 6.57123 1.25ZM6.57123 11.9643C5.61764 11.9643 4.68546 11.6816 3.89258 11.1518C3.09969 10.622 2.48172 9.86898 2.11679 8.98797C1.75187 8.10697 1.65639 7.13754 1.84242 6.20227C2.02846 5.267 2.48766 4.4079 3.16195 3.7336C3.83624 3.05931 4.69534 2.60011 5.63061 2.41408C6.56588 2.22804 7.53531 2.32352 8.41632 2.68844C9.29732 3.05337 10.0503 3.67135 10.5801 4.46423C11.1099 5.25711 11.3927 6.18929 11.3927 7.14288C11.3927 8.42161 10.8847 9.64797 9.98051 10.5522C9.07631 11.4564 7.84996 11.9643 6.57123 11.9643Z" fill="#818187"/>
</g>
<defs>
<clipPath id="clip0_63_4616">
<rect width="12.8572" height="12.8572" fill="white" transform="translate(0.142578 0.713867)"/>
</clipPath>
</defs>
</svg>
