<svg width="35" height="35" viewBox="0 0 35 35" fill="none" xmlns="http://www.w3.org/2000/svg">
<circle cx="17.7961" cy="17.8314" r="17.1141" fill="#EFF2FE"/>
<path d="M23.1443 16.5835H22.55V15.9893C22.55 15.8317 22.4874 15.6805 22.376 15.5691C22.2645 15.4576 22.1134 15.395 21.9558 15.395C21.7982 15.395 21.647 15.4576 21.5356 15.5691C21.4242 15.6805 21.3616 15.8317 21.3616 15.9893V16.5835H20.7673C20.6097 16.5835 20.4586 16.6461 20.3471 16.7576C20.2357 16.869 20.1731 17.0201 20.1731 17.1777C20.1731 17.3353 20.2357 17.4865 20.3471 17.5979C20.4586 17.7094 20.6097 17.772 20.7673 17.772H21.3616V18.3662C21.3616 18.5238 21.4242 18.675 21.5356 18.7864C21.647 18.8979 21.7982 18.9605 21.9558 18.9605C22.1134 18.9605 22.2645 18.8979 22.376 18.7864C22.4874 18.675 22.55 18.5238 22.55 18.3662V17.772H23.1443C23.3019 17.772 23.453 17.7094 23.5645 17.5979C23.6759 17.4865 23.7385 17.3353 23.7385 17.1777C23.7385 17.0201 23.6759 16.869 23.5645 16.7576C23.453 16.6461 23.3019 16.5835 23.1443 16.5835ZM18.5686 17.6056C18.8857 17.3311 19.14 16.9917 19.3143 16.6103C19.4886 16.2288 19.5788 15.8144 19.5788 15.395C19.5788 14.607 19.2658 13.8513 18.7086 13.2941C18.1514 12.7369 17.3957 12.4238 16.6076 12.4238C15.8196 12.4238 15.0639 12.7369 14.5067 13.2941C13.9495 13.8513 13.6364 14.607 13.6364 15.395C13.6364 15.8144 13.7267 16.2288 13.901 16.6103C14.0753 16.9917 14.3296 17.3311 14.6467 17.6056C13.8148 17.9823 13.109 18.5906 12.6137 19.3577C12.1185 20.1249 11.8546 21.0185 11.8537 21.9317C11.8537 22.0893 11.9163 22.2404 12.0278 22.3518C12.1392 22.4633 12.2904 22.5259 12.448 22.5259C12.6056 22.5259 12.7567 22.4633 12.8682 22.3518C12.9796 22.2404 13.0422 22.0893 13.0422 21.9317C13.0422 20.986 13.4179 20.0792 14.0865 19.4105C14.7551 18.7419 15.662 18.3662 16.6076 18.3662C17.5533 18.3662 18.4601 18.7419 19.1288 19.4105C19.7974 20.0792 20.1731 20.986 20.1731 21.9317C20.1731 22.0893 20.2357 22.2404 20.3471 22.3518C20.4586 22.4633 20.6097 22.5259 20.7673 22.5259C20.9249 22.5259 21.0761 22.4633 21.1875 22.3518C21.299 22.2404 21.3616 22.0893 21.3616 21.9317C21.3607 21.0185 21.0968 20.1249 20.6015 19.3577C20.1062 18.5906 19.4005 17.9823 18.5686 17.6056ZM16.6076 17.1777C16.2551 17.1777 15.9104 17.0732 15.6172 16.8773C15.3241 16.6814 15.0956 16.403 14.9606 16.0772C14.8257 15.7515 14.7904 15.393 14.8592 15.0472C14.928 14.7014 15.0978 14.3838 15.3471 14.1345C15.5964 13.8851 15.914 13.7153 16.2599 13.6466C16.6057 13.5778 16.9641 13.6131 17.2899 13.748C17.6156 13.8829 17.894 14.1114 18.0899 14.4046C18.2858 14.6978 18.3904 15.0424 18.3904 15.395C18.3904 15.8678 18.2025 16.3213 17.8682 16.6556C17.5339 16.9899 17.0805 17.1777 16.6076 17.1777Z" fill="#7B91F7"/>
</svg>
