<svg width="13" height="14" viewBox="0 0 13 14" fill="none" xmlns="http://www.w3.org/2000/svg">
<path d="M2.28564 6.85814C2.28564 7.00022 2.34209 7.13649 2.44255 7.23695C2.54302 7.33742 2.67928 7.39386 2.82136 7.39386H6.88745L5.6553 8.62065C5.60509 8.67045 5.56524 8.7297 5.53804 8.79499C5.51084 8.86027 5.49684 8.93029 5.49684 9.00101C5.49684 9.07173 5.51084 9.14175 5.53804 9.20703C5.56524 9.27232 5.60509 9.33157 5.6553 9.38137C5.7051 9.43158 5.76435 9.47144 5.82964 9.49863C5.89492 9.52583 5.96494 9.53983 6.03566 9.53983C6.10638 9.53983 6.1764 9.52583 6.24169 9.49863C6.30697 9.47144 6.36622 9.43158 6.41602 9.38137L8.55889 7.2385C8.60766 7.18755 8.64589 7.12748 8.67139 7.06172C8.72497 6.93129 8.72497 6.785 8.67139 6.65457C8.64589 6.58881 8.60766 6.52873 8.55889 6.47778L6.41602 4.33492C6.36607 4.28497 6.30677 4.24535 6.24151 4.21831C6.17625 4.19128 6.1063 4.17737 6.03566 4.17737C5.96502 4.17737 5.89507 4.19128 5.82981 4.21831C5.76455 4.24535 5.70525 4.28497 5.6553 4.33492C5.60535 4.38487 5.56573 4.44417 5.5387 4.50943C5.51167 4.57469 5.49775 4.64464 5.49775 4.71528C5.49775 4.78592 5.51167 4.85586 5.5387 4.92113C5.56573 4.98639 5.60535 5.04569 5.6553 5.09564L6.88745 6.32243H2.82136C2.67928 6.32243 2.54302 6.37887 2.44255 6.47933C2.34209 6.5798 2.28564 6.71606 2.28564 6.85814ZM9.24996 1.50098H3.89279C3.46655 1.50098 3.05777 1.6703 2.75637 1.9717C2.45497 2.2731 2.28564 2.68188 2.28564 3.10813V4.71528C2.28564 4.85736 2.34209 4.99362 2.44255 5.09409C2.54302 5.19455 2.67928 5.25099 2.82136 5.25099C2.96344 5.25099 3.0997 5.19455 3.20017 5.09409C3.30064 4.99362 3.35708 4.85736 3.35708 4.71528V3.10813C3.35708 2.96605 3.41352 2.82978 3.51399 2.72932C3.61445 2.62885 3.75071 2.57241 3.89279 2.57241H9.24996C9.39204 2.57241 9.5283 2.62885 9.62877 2.72932C9.72924 2.82978 9.78568 2.96605 9.78568 3.10813V10.6082C9.78568 10.7502 9.72924 10.8865 9.62877 10.987C9.5283 11.0874 9.39204 11.1439 9.24996 11.1439H3.89279C3.75071 11.1439 3.61445 11.0874 3.51399 10.987C3.41352 10.8865 3.35708 10.7502 3.35708 10.6082V9.00101C3.35708 8.85893 3.30064 8.72267 3.20017 8.6222C3.0997 8.52173 2.96344 8.46529 2.82136 8.46529C2.67928 8.46529 2.54302 8.52173 2.44255 8.6222C2.34209 8.72267 2.28564 8.85893 2.28564 9.00101V10.6082C2.28564 11.0344 2.45497 11.4432 2.75637 11.7446C3.05777 12.046 3.46655 12.2153 3.89279 12.2153H9.24996C9.6762 12.2153 10.085 12.046 10.3864 11.7446C10.6878 11.4432 10.8571 11.0344 10.8571 10.6082V3.10813C10.8571 2.68188 10.6878 2.2731 10.3864 1.9717C10.085 1.6703 9.6762 1.50098 9.24996 1.50098Z" fill="#D1110B"/>
</svg>
