<svg width="14" height="14" viewBox="0 0 14 14" fill="none" xmlns="http://www.w3.org/2000/svg">
<path d="M11.9924 5.40111L10.9799 5.06361L11.4567 4.11003C11.505 4.01022 11.5212 3.89787 11.5029 3.78848C11.4847 3.67909 11.433 3.57805 11.3549 3.49931L10.2138 2.35824C10.1346 2.279 10.0326 2.22656 9.92213 2.2083C9.81162 2.19005 9.69817 2.20688 9.59773 2.25645L8.64415 2.73324L8.30665 1.72073C8.27101 1.61519 8.20335 1.52339 8.11309 1.4581C8.02284 1.39281 7.91447 1.35727 7.80308 1.35645H6.19593C6.08362 1.35616 5.97406 1.39117 5.88273 1.45654C5.79141 1.52191 5.72294 1.61433 5.687 1.72073L5.34949 2.73324L4.39592 2.25645C4.29611 2.20812 4.18376 2.19195 4.07437 2.21018C3.96498 2.22842 3.86394 2.28015 3.7852 2.35824L2.64413 3.49931C2.56489 3.57847 2.51245 3.68048 2.49419 3.79099C2.47593 3.9015 2.49277 4.01495 2.54234 4.11539L3.01913 5.06896L2.00662 5.40647C1.90108 5.44211 1.80928 5.50977 1.74399 5.60002C1.6787 5.69028 1.64316 5.79864 1.64234 5.91004V7.51719C1.64205 7.6295 1.67706 7.73906 1.74243 7.83038C1.8078 7.92171 1.90022 7.99018 2.00662 8.02612L3.01913 8.36362L2.54234 9.3172C2.49401 9.41701 2.47784 9.52936 2.49607 9.63875C2.5143 9.74814 2.56603 9.84917 2.64413 9.92791L3.7852 11.069C3.86436 11.1482 3.96637 11.2007 4.07688 11.2189C4.18738 11.2372 4.30084 11.2203 4.40128 11.1708L5.35485 10.694L5.69235 11.7065C5.72829 11.8129 5.79676 11.9053 5.88809 11.9707C5.97941 12.0361 6.08897 12.0711 6.20128 12.0708H7.80843C7.92074 12.0711 8.0303 12.0361 8.12163 11.9707C8.21296 11.9053 8.28143 11.8129 8.31737 11.7065L8.65487 10.694L9.60844 11.1708C9.70762 11.2179 9.81887 11.2334 9.92715 11.2152C10.0354 11.197 10.1355 11.1459 10.2138 11.069L11.3549 9.92791C11.4341 9.84875 11.4866 9.74675 11.5048 9.63624C11.5231 9.52573 11.5062 9.41228 11.4567 9.31184L10.9799 8.35826L11.9924 8.02076C12.0979 7.98512 12.1897 7.91746 12.255 7.8272C12.3203 7.73695 12.3558 7.62858 12.3567 7.51719V5.91004C12.357 5.79773 12.3219 5.68817 12.2566 5.59684C12.1912 5.50552 12.0988 5.43705 11.9924 5.40111ZM11.2852 7.13147L10.6424 7.34576C10.4945 7.39371 10.3589 7.47325 10.2449 7.57885C10.1309 7.68445 10.0412 7.8136 9.98208 7.95732C9.92296 8.10105 9.89582 8.25591 9.90253 8.41118C9.90924 8.56644 9.94964 8.71839 10.0209 8.85648L10.3263 9.4672L9.73701 10.0565L9.14237 9.73505C9.00499 9.66661 8.8545 9.62848 8.70111 9.62325C8.54771 9.61802 8.39498 9.64581 8.25325 9.70473C8.11152 9.76366 7.98411 9.85234 7.87964 9.96479C7.77517 10.0772 7.69608 10.2108 7.64772 10.3565L7.43343 10.9993H6.58164L6.36736 10.3565C6.31941 10.2087 6.23987 10.073 6.13427 9.95901C6.02866 9.845 5.89952 9.75532 5.75579 9.69619C5.61207 9.63707 5.4572 9.60993 5.30194 9.61664C5.14667 9.62335 4.99472 9.66375 4.85664 9.73505L4.24592 10.0404L3.65663 9.45113L3.97806 8.85648C4.04936 8.71839 4.08977 8.56644 4.09648 8.41118C4.10319 8.25591 4.07604 8.10105 4.01692 7.95732C3.9578 7.8136 3.86812 7.68445 3.7541 7.57885C3.64008 7.47325 3.50446 7.39371 3.35663 7.34576L2.71377 7.13147V6.29575L3.35663 6.08147C3.50446 6.03352 3.64008 5.95398 3.7541 5.84838C3.86812 5.74277 3.9578 5.61363 4.01692 5.4699C4.07604 5.32618 4.10319 5.17131 4.09648 5.01605C4.08977 4.86078 4.04936 4.70884 3.97806 4.57075L3.6727 3.9761L4.26199 3.38681L4.85664 3.69217C4.99472 3.76347 5.14667 3.80388 5.30194 3.81059C5.4572 3.8173 5.61207 3.79015 5.75579 3.73103C5.89952 3.67191 6.02866 3.58223 6.13427 3.46821C6.23987 3.35419 6.31941 3.21857 6.36736 3.07074L6.58164 2.42788H7.41736L7.63165 3.07074C7.6796 3.21857 7.75913 3.35419 7.86474 3.46821C7.97034 3.58223 8.09949 3.67191 8.24321 3.73103C8.38694 3.79015 8.5418 3.8173 8.69707 3.81059C8.85233 3.80388 9.00428 3.76347 9.14237 3.69217L9.75309 3.38681L10.3424 3.9761L10.0209 4.57075C9.9525 4.70813 9.91437 4.85861 9.90914 5.01201C9.90391 5.16541 9.93169 5.31814 9.99062 5.45987C10.0495 5.60159 10.1382 5.729 10.2507 5.83347C10.3631 5.93794 10.4967 6.01704 10.6424 6.0654L11.2852 6.27968V7.13147ZM6.9995 4.57075C6.57568 4.57075 6.16138 4.69642 5.80899 4.93189C5.4566 5.16735 5.18194 5.50202 5.01975 5.89357C4.85756 6.28513 4.81513 6.71599 4.89781 7.13167C4.98049 7.54734 5.18458 7.92916 5.48427 8.22885C5.78395 8.52853 6.16577 8.73262 6.58145 8.81531C6.99713 8.89799 7.42798 8.85555 7.81954 8.69336C8.2111 8.53118 8.54577 8.25652 8.78123 7.90413C9.01669 7.55173 9.14237 7.13743 9.14237 6.71361C9.14237 6.14529 8.9166 5.60024 8.51474 5.19838C8.11287 4.79651 7.56783 4.57075 6.9995 4.57075ZM6.9995 7.78505C6.78759 7.78505 6.58044 7.72221 6.40425 7.60448C6.22805 7.48675 6.09072 7.31941 6.00963 7.12363C5.92853 6.92785 5.90731 6.71242 5.94866 6.50459C5.99 6.29675 6.09204 6.10584 6.24188 5.956C6.39173 5.80615 6.58264 5.70411 6.79048 5.66277C6.99831 5.62143 7.21374 5.64264 7.40952 5.72374C7.6053 5.80483 7.77264 5.94216 7.89037 6.11836C8.0081 6.29455 8.07094 6.5017 8.07094 6.71361C8.07094 6.99778 7.95805 7.2703 7.75712 7.47123C7.55619 7.67216 7.28366 7.78505 6.9995 7.78505Z" fill="#818187"/>
</svg>
