<svg width="13" height="14" viewBox="0 0 13 14" fill="none" xmlns="http://www.w3.org/2000/svg">
<path d="M11.5642 5.40111L10.5517 5.06361L11.0284 4.11003C11.0768 4.01022 11.0929 3.89787 11.0747 3.78848C11.0565 3.67909 11.0047 3.57805 10.9267 3.49931L9.78558 2.35824C9.70642 2.279 9.60441 2.22656 9.49391 2.2083C9.3834 2.19005 9.26995 2.20688 9.16951 2.25645L8.21593 2.73324L7.87843 1.72073C7.84278 1.61519 7.77513 1.52339 7.68487 1.4581C7.59461 1.39281 7.48625 1.35727 7.37485 1.35645H5.7677C5.6554 1.35616 5.54583 1.39117 5.45451 1.45654C5.36318 1.52191 5.29471 1.61433 5.25877 1.72073L4.92127 2.73324L3.9677 2.25645C3.86789 2.20812 3.75553 2.19195 3.64614 2.21018C3.53676 2.22842 3.43572 2.28015 3.35698 2.35824L2.2159 3.49931C2.13666 3.57847 2.08423 3.68048 2.06597 3.79099C2.04771 3.9015 2.06455 4.01495 2.11412 4.11539L2.5909 5.06896L1.5784 5.40647C1.47286 5.44211 1.38106 5.50977 1.31576 5.60002C1.25047 5.69028 1.21494 5.79864 1.21411 5.91004V7.51719C1.21382 7.6295 1.24884 7.73906 1.31421 7.83038C1.37958 7.92171 1.472 7.99018 1.5784 8.02612L2.5909 8.36362L2.11412 9.3172C2.06578 9.41701 2.04962 9.52936 2.06785 9.63875C2.08608 9.74814 2.13781 9.84917 2.2159 9.92791L3.35698 11.069C3.43614 11.1482 3.53815 11.2007 3.64865 11.2189C3.75916 11.2372 3.87261 11.2203 3.97305 11.1708L4.92663 10.694L5.26413 11.7065C5.30007 11.8129 5.36854 11.9053 5.45987 11.9707C5.55119 12.0361 5.66075 12.0711 5.77306 12.0708H7.38021C7.49252 12.0711 7.60208 12.0361 7.69341 11.9707C7.78473 11.9053 7.8532 11.8129 7.88914 11.7065L8.22664 10.694L9.18022 11.1708C9.27939 11.2179 9.39065 11.2334 9.49892 11.2152C9.6072 11.197 9.70727 11.1459 9.78558 11.069L10.9267 9.92791C11.0059 9.84875 11.0583 9.74675 11.0766 9.63624C11.0948 9.52573 11.078 9.41228 11.0284 9.31184L10.5517 8.35826L11.5642 8.02076C11.6697 7.98512 11.7615 7.91746 11.8268 7.8272C11.8921 7.73695 11.9276 7.62858 11.9284 7.51719V5.91004C11.9287 5.79773 11.8937 5.68817 11.8284 5.59684C11.763 5.50552 11.6706 5.43705 11.5642 5.40111ZM10.857 7.13147L10.2142 7.34576C10.0663 7.39371 9.9307 7.47325 9.81668 7.57885C9.70266 7.68445 9.61298 7.8136 9.55386 7.95732C9.49474 8.10105 9.46759 8.25591 9.4743 8.41118C9.48101 8.56644 9.52142 8.71839 9.59272 8.85648L9.89808 9.4672L9.30879 10.0565L8.71415 9.73505C8.57676 9.66661 8.42628 9.62848 8.27288 9.62325C8.11948 9.61802 7.96675 9.64581 7.82503 9.70473C7.6833 9.76366 7.55589 9.85234 7.45142 9.96479C7.34695 10.0772 7.26786 10.2108 7.2195 10.3565L7.00521 10.9993H6.15342L5.93913 10.3565C5.89118 10.2087 5.81165 10.073 5.70604 9.95901C5.60044 9.845 5.4713 9.75532 5.32757 9.69619C5.18385 9.63707 5.02898 9.60993 4.87371 9.61664C4.71845 9.62335 4.5665 9.66375 4.42841 9.73505L3.8177 10.0404L3.22841 9.45113L3.54984 8.85648C3.62114 8.71839 3.66155 8.56644 3.66826 8.41118C3.67497 8.25591 3.64782 8.10105 3.5887 7.95732C3.52958 7.8136 3.4399 7.68445 3.32588 7.57885C3.21186 7.47325 3.07623 7.39371 2.92841 7.34576L2.28555 7.13147V6.29575L2.92841 6.08147C3.07623 6.03352 3.21186 5.95398 3.32588 5.84838C3.4399 5.74277 3.52958 5.61363 3.5887 5.4699C3.64782 5.32618 3.67497 5.17131 3.66826 5.01605C3.66155 4.86078 3.62114 4.70884 3.54984 4.57075L3.24448 3.9761L3.83377 3.38681L4.42841 3.69217C4.5665 3.76347 4.71845 3.80388 4.87371 3.81059C5.02898 3.8173 5.18385 3.79015 5.32757 3.73103C5.4713 3.67191 5.60044 3.58223 5.70604 3.46821C5.81165 3.35419 5.89118 3.21857 5.93913 3.07074L6.15342 2.42788H6.98914L7.20343 3.07074C7.25138 3.21857 7.33091 3.35419 7.43652 3.46821C7.54212 3.58223 7.67126 3.67191 7.81499 3.73103C7.95871 3.79015 8.11358 3.8173 8.26885 3.81059C8.42411 3.80388 8.57606 3.76347 8.71415 3.69217L9.32486 3.38681L9.91415 3.9761L9.59272 4.57075C9.52428 4.70813 9.48615 4.85861 9.48092 5.01201C9.47568 5.16541 9.50347 5.31814 9.5624 5.45987C9.62132 5.60159 9.71001 5.729 9.82246 5.83347C9.9349 5.93794 10.0685 6.01704 10.2142 6.0654L10.857 6.27968V7.13147ZM6.57128 4.57075C6.14746 4.57075 5.73316 4.69642 5.38077 4.93189C5.02837 5.16735 4.75372 5.50202 4.59153 5.89357C4.42934 6.28513 4.3869 6.71599 4.46959 7.13167C4.55227 7.54734 4.75636 7.92916 5.05604 8.22885C5.35573 8.52853 5.73755 8.73262 6.15323 8.81531C6.5689 8.89799 6.99976 8.85555 7.39132 8.69336C7.78288 8.53118 8.11755 8.25652 8.35301 7.90413C8.58847 7.55173 8.71415 7.13743 8.71415 6.71361C8.71415 6.14529 8.48838 5.60024 8.08651 5.19838C7.68465 4.79651 7.1396 4.57075 6.57128 4.57075ZM6.57128 7.78505C6.35937 7.78505 6.15222 7.72221 5.97602 7.60448C5.79983 7.48675 5.6625 7.31941 5.5814 7.12363C5.50031 6.92785 5.47909 6.71242 5.52043 6.50459C5.56177 6.29675 5.66382 6.10584 5.81366 5.956C5.9635 5.80615 6.15442 5.70411 6.36225 5.66277C6.57009 5.62143 6.78552 5.64264 6.9813 5.72374C7.17708 5.80483 7.34441 5.94216 7.46214 6.11836C7.57987 6.29455 7.64271 6.5017 7.64271 6.71361C7.64271 6.99778 7.52983 7.2703 7.3289 7.47123C7.12796 7.67216 6.85544 7.78505 6.57128 7.78505Z" fill="#818187"/>
</svg>
