<svg width="14" height="13" viewBox="0 0 14 13" fill="none" xmlns="http://www.w3.org/2000/svg">
<g clip-path="url(#clip0_347_12193)">
<path d="M9.83887 1.13867C5.49004 1.13867 1.96387 4.66484 1.96387 9.01367C1.96387 13.3625 5.49004 16.8887 9.83887 16.8887C14.1877 16.8887 17.7139 13.3625 17.7139 9.01367C17.7139 4.66484 14.1877 1.13867 9.83887 1.13867ZM13.2402 6.44199L9.53828 11.5748C9.43331 11.7213 9.26413 11.8082 9.08389 11.8082C8.90365 11.8082 8.73447 11.7213 8.62949 11.5748L6.4375 8.5373C6.3707 8.44414 6.4375 8.31406 6.55176 8.31406H7.37617C7.55547 8.31406 7.72598 8.4002 7.83145 8.54785L9.08301 10.2846L11.8463 6.45254C11.9518 6.30664 12.1205 6.21875 12.3016 6.21875H13.126C13.2402 6.21875 13.307 6.34883 13.2402 6.44199Z" fill="white"/>
</g>
<defs>
<clipPath id="clip0_347_12193">
<rect width="12.9661" height="12.9661" fill="white" transform="translate(0.838867 0.0136719)"/>
</clipPath>
</defs>
</svg>
