<svg width="14" height="14" viewBox="0 0 14 14" fill="none" xmlns="http://www.w3.org/2000/svg">
<g clip-path="url(#clip0_347_12216)">
<path d="M9.95752 1.24902C5.60869 1.24902 2.08252 4.7752 2.08252 9.12402C2.08252 13.4729 5.60869 16.999 9.95752 16.999C14.3063 16.999 17.8325 13.4729 17.8325 9.12402C17.8325 4.7752 14.3063 1.24902 9.95752 1.24902ZM12.8649 12.1158L11.7048 12.1105L9.95752 10.0275L8.21201 12.1088L7.0501 12.1141C6.97275 12.1141 6.90947 12.0525 6.90947 11.9734C6.90947 11.94 6.92178 11.9084 6.94287 11.882L9.22978 9.15742L6.94287 6.43457C6.92163 6.40881 6.90984 6.37655 6.90947 6.34316C6.90947 6.26582 6.97275 6.20254 7.0501 6.20254L8.21201 6.20781L9.95752 8.29082L11.703 6.20957L12.8632 6.2043C12.9405 6.2043 13.0038 6.26582 13.0038 6.34492C13.0038 6.37832 12.9915 6.40996 12.9704 6.43633L10.687 9.15918L12.9722 11.8838C12.9933 11.9102 13.0056 11.9418 13.0056 11.9752C13.0056 12.0525 12.9423 12.1158 12.8649 12.1158Z" fill="white"/>
</g>
<defs>
<clipPath id="clip0_347_12216">
<rect width="12.9661" height="12.9661" fill="white" transform="translate(0.95752 0.124023)"/>
</clipPath>
</defs>
</svg>
