<svg width="23" height="22" viewBox="0 0 23 22" fill="none" xmlns="http://www.w3.org/2000/svg">
<rect x="0.762695" y="0.228516" width="21.6102" height="21.6102" rx="10.8051" fill="#E5E7EB"/>
<g clip-path="url(#clip0_347_12285)">
<path fill-rule="evenodd" clip-rule="evenodd" d="M19.4453 12.6016C19.7381 12.8945 19.7381 13.3692 19.4453 13.6621L14.1953 18.9121C13.9024 19.2049 13.4277 19.2049 13.1348 18.9121L7.88479 13.6621C7.74392 13.5216 7.66483 13.3308 7.66504 13.1318V9.38184C7.66504 8.14003 8.67323 7.13184 9.91504 7.13184H13.665C13.857 7.13184 14.049 7.20534 14.1953 7.35159L19.4453 12.6016ZM9.91504 10.1318C10.329 10.1318 10.665 9.79577 10.665 9.38184C10.665 8.9679 10.329 8.63184 9.91504 8.63184C9.5011 8.63184 9.16504 8.9679 9.16504 9.38184C9.16504 9.79577 9.5011 10.1318 9.91504 10.1318Z" fill="#374151"/>
</g>
<defs>
<clipPath id="clip0_347_12285">
<rect width="10.8051" height="10.8051" fill="white" transform="translate(6.16504 5.63184)"/>
</clipPath>
</defs>
</svg>
