<svg width="15" height="15" viewBox="0 0 15 15" fill="none" xmlns="http://www.w3.org/2000/svg">
<g clip-path="url(#clip0_344_10733)">
<path d="M2.16943 3.61914C2.16943 3.06723 2.61752 2.61914 3.16943 2.61914H5.32243C5.81125 2.61937 6.22827 2.97294 6.30843 3.45514L7.04843 7.89014C7.12102 8.32376 6.90188 8.75393 6.50843 8.95014L4.96043 9.72314C6.08205 12.5027 8.28589 14.7065 11.0654 15.8281L11.8394 14.2801C12.0355 13.8871 12.4651 13.668 12.8984 13.7401L17.3334 14.4801C17.8156 14.5603 18.1692 14.9773 18.1694 15.4661V17.6191C18.1694 18.1711 17.7213 18.6191 17.1694 18.6191H15.1694C7.98943 18.6191 2.16943 12.7991 2.16943 5.61914V3.61914Z" fill="#EC5757"/>
</g>
<defs>
<clipPath id="clip0_344_10733">
<rect width="14.2857" height="14.2857" fill="white" transform="translate(0.169434 0.619141)"/>
</clipPath>
</defs>
</svg>
