<svg width="13" height="14" viewBox="0 0 13 14" fill="none" xmlns="http://www.w3.org/2000/svg">
<g clip-path="url(#clip0_344_10300)">
<path d="M4.66859 16.6553H1.40328V6.14004H4.66859M3.03418 4.70566C1.99004 4.70566 1.14312 3.84082 1.14312 2.79668C1.14312 1.75298 1.99048 0.905625 3.03418 0.905625C4.07788 0.905625 4.92523 1.75298 4.92523 2.79668C4.92523 3.84082 4.07797 4.70566 3.03418 4.70566ZM16.8896 16.6553H13.6313V11.5365C13.6313 10.3166 13.6067 8.75215 11.9336 8.75215C10.2359 8.75215 9.97578 10.0775 9.97578 11.4486V16.6553H6.71398V6.14004H9.8457V7.57441H9.89141C10.3273 6.74824 11.3922 5.87637 12.9809 5.87637C16.2856 5.87637 16.8931 8.05254 16.8931 10.8791V16.6553" fill="#0077B5"/>
</g>
<defs>
<clipPath id="clip0_344_10300">
<rect width="12.8571" height="12.8571" fill="white" transform="translate(0.0181236 0.905273)"/>
</clipPath>
</defs>
</svg>
