<svg width="14" height="14" viewBox="0 0 14 14" fill="none" xmlns="http://www.w3.org/2000/svg">
<g clip-path="url(#clip0_344_10303)">
<path d="M9.86858 1.13379C6.26154 1.13379 2.6967 3.53848 2.6967 7.43027C2.6967 9.90527 4.08889 11.3115 4.93264 11.3115C5.28069 11.3115 5.48108 10.3412 5.48108 10.067C5.48108 9.74004 4.64787 9.04395 4.64787 7.6834C4.64787 4.85684 6.79944 2.85293 9.58381 2.85293C11.978 2.85293 13.7498 4.21348 13.7498 6.71309C13.7498 8.57988 13.001 12.0814 10.5752 12.0814C9.69983 12.0814 8.951 11.4486 8.951 10.5416C8.951 9.2127 9.87912 7.92598 9.87912 6.55488C9.87912 4.22754 6.57795 4.64941 6.57795 7.46191C6.57795 8.05254 6.65178 8.70645 6.91545 9.24434C6.43029 11.3326 5.43889 14.4439 5.43889 16.5955C5.43889 17.26 5.53381 17.9139 5.59709 18.5783C5.71662 18.7119 5.65686 18.6979 5.83967 18.6311C7.61154 16.2053 7.54826 15.7307 8.34983 12.5561C8.78225 13.3787 9.90022 13.8217 10.7862 13.8217C14.5197 13.8217 16.1967 10.183 16.1967 6.90293C16.1967 3.41191 13.1803 1.13379 9.86858 1.13379Z" fill="#DF0018"/>
</g>
<defs>
<clipPath id="clip0_344_10303">
<rect width="12.8571" height="12.8571" fill="white" transform="translate(0.446701 0.905273)"/>
</clipPath>
</defs>
</svg>
