<svg width="30" height="29" viewBox="0 0 30 29" fill="none" xmlns="http://www.w3.org/2000/svg">
<path d="M14.9188 28.9322C12.0792 28.9322 9.30339 28.0905 6.94234 26.5137C4.58129 24.9368 2.7411 22.6955 1.65442 20.0732C0.56775 17.4509 0.28342 14.5654 0.8374 11.7816C1.39138 8.99784 2.75877 6.44075 4.76668 4.43375C6.77459 2.42674 9.33284 1.05996 12.1179 0.506224C14.9029 -0.0475076 17.7897 0.236684 20.4132 1.32287C23.0366 2.40905 25.2789 4.24845 26.8565 6.60843C28.4341 8.96842 29.2762 11.743 29.2762 14.5813C29.2719 18.3861 27.7579 22.0338 25.0663 24.7242C22.3747 27.4146 18.7253 28.9279 14.9188 28.9322Z" fill="#E6E6E6"/>
</svg>
