<svg width="18" height="12" viewBox="0 0 18 12" fill="none" xmlns="http://www.w3.org/2000/svg">
<path d="M1.29113 11.1547C1.08479 11.1546 0.883095 11.0934 0.711508 10.9789C0.53992 10.8644 0.406141 10.7016 0.327053 10.5111C0.247966 10.3206 0.227121 10.1109 0.267152 9.90861C0.307183 9.70628 0.406301 9.52034 0.551977 9.37428L5.85686 4.05689C5.93941 3.97368 6.0377 3.90769 6.14598 3.86275C6.25426 3.81781 6.37038 3.79482 6.48763 3.7951H6.48822C6.60534 3.79476 6.72136 3.81765 6.82957 3.86244C6.93778 3.90723 7.03603 3.97303 7.11863 4.05603L9.57895 6.51523C9.62851 6.56507 9.68746 6.60459 9.75241 6.63148C9.81735 6.65837 9.887 6.67211 9.9573 6.6719C10.0276 6.6721 10.0975 6.65835 10.1624 6.63142C10.2273 6.6045 10.2863 6.56494 10.3358 6.51506L13.8094 3.0372C13.8259 3.02065 13.8391 3.001 13.848 2.97936C13.857 2.95773 13.8616 2.93454 13.8615 2.91113C13.8615 2.88772 13.8569 2.86454 13.8479 2.84293C13.8389 2.82131 13.8257 2.80168 13.8091 2.78516L12.6853 1.66365C12.6103 1.58892 12.5593 1.49364 12.5386 1.38989C12.5178 1.28613 12.5283 1.17856 12.5688 1.08079C12.6093 0.983016 12.6778 0.899441 12.7658 0.840645C12.8538 0.781848 12.9573 0.750473 13.0632 0.750488H17.055C17.1969 0.750644 17.3328 0.807035 17.4331 0.907283C17.5334 1.00753 17.5898 1.14345 17.59 1.28523V5.27275C17.59 5.37852 17.5587 5.48193 17.4999 5.56988C17.4411 5.65784 17.3576 5.7264 17.2598 5.76689C17.1621 5.80738 17.0545 5.81799 16.9507 5.79736C16.8469 5.77673 16.7516 5.7258 16.6768 5.651L15.5512 4.52583C15.5346 4.50928 15.515 4.49614 15.4933 4.48718C15.4717 4.47822 15.4485 4.47362 15.4251 4.47362C15.4017 4.47362 15.3785 4.47822 15.3569 4.48718C15.3352 4.49614 15.3156 4.50928 15.299 4.52583L10.5953 9.22425C10.5127 9.30724 10.4144 9.37304 10.3062 9.41783C10.1981 9.46262 10.0821 9.48551 9.96495 9.48518C9.84782 9.48548 9.73172 9.46257 9.62351 9.41775C9.5153 9.37293 9.41704 9.3071 9.33445 9.22408L6.87291 6.76364C6.77097 6.66644 6.63552 6.61221 6.49463 6.61221C6.35375 6.61221 6.21827 6.66644 6.11634 6.76364L2.02925 10.8488C1.93258 10.9461 1.81754 11.0232 1.69084 11.0757C1.56414 11.1282 1.42828 11.155 1.29113 11.1547Z" fill="#EC5757"/>
</svg>
