<svg width="23" height="29" viewBox="0 0 23 29" fill="none" xmlns="http://www.w3.org/2000/svg">
<path d="M7.90756 0.230469C5.44309 0.233618 3.0206 0.868442 0.871582 2.07428C3.97726 2.34861 6.88939 3.69917 9.10435 5.89238C11.3193 8.08559 12.6978 10.9835 13.0015 14.0851C13.3052 17.1867 12.515 20.2968 10.7675 22.8776C9.02001 25.4585 6.42513 27.3478 3.43161 28.2188C3.99236 28.4046 4.56447 28.5542 5.14442 28.6666C6.05453 28.8456 6.98 28.9351 7.90756 28.9338C11.7156 28.9338 15.3676 27.4217 18.0603 24.7303C20.753 22.0388 22.2657 18.3884 22.2657 14.5821C22.2657 10.7758 20.753 7.12543 18.0603 4.43398C15.3676 1.74252 11.7156 0.230469 7.90756 0.230469Z" fill="#E6E6E6"/>
</svg>
