<svg width="15" height="16" viewBox="0 0 15 16" fill="none" xmlns="http://www.w3.org/2000/svg">
<path d="M13.4841 15.5602C13.1082 15.5603 12.7476 15.4112 12.4816 15.1458C12.2155 14.8803 12.0658 14.5201 12.0652 14.1444V6.09238C12.0656 5.71701 12.215 5.35713 12.4805 5.09169C12.7461 4.82626 13.1061 4.67695 13.4816 4.67652H13.4841C13.8597 4.67695 14.2197 4.82626 14.4852 5.09169C14.7508 5.35713 14.9001 5.71701 14.9006 6.09238V14.1444C14.9001 14.5197 14.7508 14.8796 14.4852 15.145C14.2197 15.4105 13.8597 15.5598 13.4841 15.5602ZM9.78573 15.5602C9.59824 15.5621 9.41222 15.5269 9.23837 15.4567C9.06453 15.3864 8.90629 15.2825 8.77276 15.151C8.63923 15.0194 8.53305 14.8627 8.46032 14.6899C8.38758 14.5172 8.34973 14.3318 8.34895 14.1444V9.80697C8.34937 9.43162 8.49873 9.07175 8.76427 8.80635C9.02981 8.54094 9.38983 8.39168 9.76535 8.39128H9.78573C10.1613 8.39168 10.5213 8.54094 10.7868 8.80635C11.0524 9.07175 11.2017 9.43162 11.2021 9.80697V14.1444C11.2017 14.5197 11.0524 14.8796 10.7868 15.145C10.5213 15.4105 10.1613 15.5598 9.78573 15.5602ZM6.05162 15.5602C5.67569 15.5603 5.3151 15.4112 5.04905 15.1458C4.78299 14.8803 4.63324 14.5201 4.63269 14.1444V1.76107C4.6331 1.38571 4.78246 1.02583 5.048 0.760398C5.31354 0.494964 5.67357 0.345648 6.0491 0.345215H6.05162C6.42716 0.345648 6.78719 0.494964 7.05272 0.760398C7.31826 1.02583 7.46763 1.38571 7.46804 1.76107V14.1444C7.46763 14.5197 7.31826 14.8796 7.05272 15.145C6.78719 15.4105 6.42716 15.5598 6.05162 15.5602ZM2.33171 15.5602C2.14548 15.5604 1.96104 15.5239 1.78895 15.4528C1.61686 15.3816 1.4605 15.2773 1.3288 15.1457C1.1971 15.0141 1.09266 14.8578 1.02146 14.6858C0.950248 14.5138 0.913671 14.3295 0.913819 14.1433L0.915381 12.2834C0.915543 11.9079 1.06492 11.5479 1.33066 11.2825C1.59639 11.0171 1.95672 10.8681 2.33236 10.8683C2.708 10.8685 3.0682 11.0178 3.33371 11.2834C3.59921 11.549 3.74828 11.9092 3.74812 12.2846V14.1444C3.74771 14.5197 3.59835 14.8796 3.33281 15.145C3.06727 15.4105 2.70724 15.5598 2.33171 15.5602Z" fill="#EC5757"/>
</svg>
