<svg width="47" height="51" viewBox="0 0 47 51" fill="none" xmlns="http://www.w3.org/2000/svg">
<path d="M36.7872 23.4159C36.8293 23.3782 36.8621 23.3311 36.8829 23.2785C36.9036 23.2259 36.9118 23.1692 36.9068 23.1128C36.9018 23.0565 36.8838 23.0021 36.8541 22.9539C36.8244 22.9058 36.7839 22.8652 36.7357 22.8354C35.9522 22.3504 35.3139 21.6634 34.8877 20.8466C34.4616 20.0298 34.2634 19.1134 34.3139 18.1936C34.3645 17.2738 34.662 16.3846 35.1751 15.6194C35.6883 14.8542 36.3981 14.2413 37.2301 13.845C39.8242 12.6088 43.3393 13.5705 45.257 11.1949C45.647 10.6866 45.9228 10.1003 46.0655 9.47584C46.2083 8.8514 46.2146 8.20353 46.0842 7.57639C45.6704 5.33258 43.9829 3.66628 42.093 2.52431C39.7713 1.12148 37.103 0.396628 34.3904 0.431892C31.6778 0.467156 29.0293 1.26112 26.7449 2.72383C24.4606 4.18654 22.6318 6.25952 21.4657 8.70788C20.2996 11.1562 19.8429 13.8821 20.1473 16.5766C20.3912 18.7362 21.0579 21.1577 19.7732 22.911C18.6426 24.4541 16.5084 24.7435 14.6337 25.1269C10.6127 25.9493 6.73339 27.8465 4.00465 30.911C1.27591 33.9755 -0.179794 38.2751 0.642929 42.2943C1.46565 46.3135 4.76631 49.8457 8.82304 50.4687C12.1251 50.9758 15.5346 49.5742 17.9594 47.2772C20.3842 44.9802 21.9169 41.8783 22.8837 38.6819C24.0312 34.8881 24.4838 30.8 26.5554 27.4206C28.5827 24.1136 32.9513 21.743 36.3752 23.4652C36.4409 23.4995 36.5153 23.5131 36.5888 23.5043C36.6624 23.4955 36.7315 23.4647 36.7872 23.4159Z" fill="#412E2E"/>
</svg>
