<svg width="30" height="30" viewBox="0 0 30 30" fill="none" xmlns="http://www.w3.org/2000/svg">
<path d="M14.9188 29.3038C12.0792 29.3038 9.30339 28.4621 6.94234 26.8852C4.58129 25.3083 2.7411 23.0671 1.65442 20.4448C0.56775 17.8225 0.28342 14.937 0.8374 12.1532C1.39138 9.36942 2.75877 6.81234 4.76668 4.80533C6.77459 2.79833 9.33284 1.43154 12.1179 0.877806C14.9029 0.324074 17.7897 0.608266 20.4132 1.69445C23.0366 2.78063 25.2789 4.62003 26.8565 6.98002C28.4341 9.34 29.2762 12.1146 29.2762 14.9529C29.2719 18.7577 27.7579 22.4054 25.0663 25.0958C22.3747 27.7862 18.7253 29.2995 14.9188 29.3038ZM14.9188 1.59178C12.2751 1.59178 9.69068 2.37539 7.49246 3.84354C5.29424 5.31168 3.58092 7.3984 2.56919 9.83984C1.55746 12.2813 1.29276 14.9678 1.80853 17.5596C2.32431 20.1514 3.59741 22.5321 5.46684 24.4007C7.33627 26.2693 9.71808 27.5418 12.3111 28.0574C14.904 28.5729 17.5917 28.3083 20.0343 27.297C22.4768 26.2858 24.5644 24.5732 26.0333 22.376C27.5021 20.1788 28.286 17.5955 28.286 14.9529C28.282 11.4106 26.8724 8.01443 24.3664 5.5096C21.8605 3.00477 18.4628 1.59579 14.9188 1.59178Z" fill="#563D3D"/>
</svg>
