<svg width="30" height="29" viewBox="0 0 30 29" fill="none" xmlns="http://www.w3.org/2000/svg">
<path d="M17.4604 0.307092C16.5506 0.124982 15.6249 0.0342212 14.6971 0.0361633C11.0054 0.0323444 7.45381 1.4485 4.77841 3.9911C2.103 6.5337 0.508949 10.0078 0.326635 13.6933C0.144321 17.3788 1.38773 20.9931 3.79914 23.7871C6.21056 26.5811 9.60506 28.3406 13.2791 28.7008C16.9531 29.061 20.625 27.9944 23.5336 25.722C26.4422 23.4496 28.3645 20.1456 28.9021 16.495C29.4397 12.8443 28.5514 9.12681 26.4212 6.11305C24.2911 3.09929 21.0825 1.02034 17.4604 0.307092ZM18.4317 27.2193C16.593 27.7539 14.6608 27.8874 12.766 27.6108C10.8712 27.3342 9.05795 26.654 7.44898 25.6161C5.84 24.5783 4.47286 23.2071 3.4401 21.5953C2.40734 19.9834 1.73305 18.1686 1.46288 16.2737C1.19271 14.3788 1.33295 12.448 1.87413 10.612C2.4153 8.77598 3.34477 7.07759 4.59963 5.63179C5.85449 4.18599 7.40546 3.02652 9.14754 2.23186C10.8896 1.43721 12.7822 1.02591 14.6971 1.0258C15.0925 1.0258 15.484 1.04462 15.8717 1.07472C18.9774 1.34906 21.8895 2.6996 24.1044 4.89281C26.3194 7.08602 27.6979 9.98398 28.0016 13.0855C28.3053 16.1871 27.5151 19.2972 25.7676 21.8781C24.0201 24.4589 21.4252 26.3483 18.4317 27.2193Z" fill="#563D3D"/>
</svg>
