<svg width="30" height="30" viewBox="0 0 30 30" fill="none" xmlns="http://www.w3.org/2000/svg">
<path d="M14.9071 29.3038C12.0675 29.3038 9.29169 28.4621 6.93064 26.8852C4.56959 25.3083 2.72937 23.0671 1.6427 20.4448C0.556022 17.8225 0.271704 14.937 0.825684 12.1532C1.37966 9.36942 2.74707 6.81234 4.75498 4.80533C6.76289 2.79833 9.32111 1.43154 12.1062 0.877806C14.8912 0.324074 17.778 0.608266 20.4014 1.69445C23.0249 2.78063 25.2672 4.62003 26.8448 6.98002C28.4224 9.34 29.2645 12.1146 29.2645 14.9529C29.2602 18.7577 27.7462 22.4054 25.0546 25.0958C22.363 27.7862 18.7136 29.2995 14.9071 29.3038ZM14.9071 1.59178C12.2634 1.59178 9.67896 2.37539 7.48074 3.84354C5.28252 5.31168 3.56922 7.3984 2.55749 9.83984C1.54576 12.2813 1.28104 14.9678 1.79681 17.5596C2.31259 20.1514 3.58569 22.5321 5.45513 24.4007C7.32456 26.2693 9.70636 27.5418 12.2993 28.0574C14.8923 28.5729 17.58 28.3083 20.0225 27.297C22.4651 26.2858 24.5527 24.5732 26.0215 22.376C27.4903 20.1788 28.2743 17.5955 28.2743 14.9529C28.2703 11.4106 26.8607 8.01443 24.3547 5.5096C21.8488 3.00477 18.4511 1.59579 14.9071 1.59178Z" fill="#563D3D"/>
</svg>
