<svg width="29" height="30" viewBox="0 0 29 30" fill="none" xmlns="http://www.w3.org/2000/svg">
<path d="M14.4552 29.4195C11.6156 29.4195 8.83979 28.5778 6.47874 27.001C4.11769 25.4241 2.27747 23.1828 1.1908 20.5605C0.104127 17.9382 -0.180204 15.0527 0.373777 12.2689C0.927758 9.48515 2.29517 6.92805 4.30308 4.92104C6.31099 2.91404 8.86921 1.54726 11.6543 0.993532C14.4393 0.4398 17.3261 0.72398 19.9496 1.81016C22.573 2.89635 24.8153 4.73574 26.3929 7.09573C27.9705 9.45572 28.8126 12.2303 28.8126 15.0686C28.8083 18.8734 27.2942 22.5211 24.6027 25.2115C21.9111 27.9019 18.2617 29.4152 14.4552 29.4195ZM14.4552 1.7075C11.8115 1.7075 9.22706 2.49112 7.02884 3.95926C4.83062 5.42741 3.11732 7.51413 2.10559 9.95556C1.09386 12.397 0.829155 15.0835 1.34493 17.6753C1.86071 20.2671 3.13379 22.6478 5.00322 24.5164C6.87265 26.385 9.25445 27.6575 11.8474 28.1731C14.4404 28.6886 17.1281 28.424 19.5706 27.4127C22.0132 26.4015 24.1008 24.6889 25.5696 22.4917C27.0384 20.2945 27.8224 17.7112 27.8224 15.0686C27.8184 11.5263 26.4088 8.13015 23.9028 5.62532C21.3969 3.12049 17.9992 1.71152 14.4552 1.7075Z" fill="#563D3D"/>
</svg>
