<svg width="15" height="10" viewBox="0 0 15 10" fill="none" xmlns="http://www.w3.org/2000/svg">
<path d="M3.2411 6.19773C3.64953 6.19773 4.04123 6.3599 4.33003 6.64857C4.61884 6.93724 4.78108 7.32877 4.78108 7.73701V7.93496L6.70826 9.01333C6.98325 8.7878 7.32797 8.6646 7.68367 8.66471C7.7959 8.66549 7.90777 8.67736 8.01767 8.70015L10.8227 4.36004C10.6826 4.16327 10.591 3.93623 10.5553 3.69737C10.5196 3.45852 10.5409 3.21461 10.6173 2.98552C10.6938 2.75642 10.8233 2.54863 10.9953 2.37903C11.1673 2.20943 11.377 2.08283 11.6072 2.00954C11.8374 1.93626 12.0817 1.91836 12.3201 1.95729C12.5586 1.99623 12.7845 2.0909 12.9794 2.23361C13.1743 2.37631 13.3327 2.56302 13.4418 2.77852C13.5509 2.99401 13.6075 3.2322 13.607 3.4737C13.6069 3.596 13.593 3.71791 13.5657 3.8371L14.8928 4.72344V2.15602C14.8913 1.79292 14.7463 1.44514 14.4894 1.18839C14.2325 0.931632 13.8846 0.786711 13.5213 0.785156H1.88439C1.5214 0.786718 1.17377 0.931733 0.917372 1.18857C0.660976 1.4454 0.516646 1.7932 0.515869 2.15602V9.50968L1.79869 8.28061C1.71294 8.04833 1.68464 7.79878 1.71617 7.55321C1.74771 7.30764 1.83816 7.07332 1.97981 6.87022C2.12147 6.66712 2.31014 6.50124 2.52975 6.38672C2.74936 6.2722 2.9934 6.21243 3.2411 6.2125V6.19773Z" fill="#EC5757"/>
</svg>
